<?xml version="1.0" encoding="UTF-8"?>
<svg id="Layer_1" data-name="Layer 1" xmlns="http://www.w3.org/2000/svg" viewBox="0 0 754.22 855">
  <defs>
    <style>
      .cls-1 {
        fill: #f4f4f4;
      }

      .cls-2 {
        fill: #9cff00;
      }

      .cls-3 {
        fill: #fff;
      }
    </style>
  </defs>
  <path d="M477.49,475.94l-409.95-28.66c-1.56-.43-4.1-5.22.31-5.16l315.99,22.21,96.88,7.35c4.81.59.77,3.77-3.23,4.25Z"/>
  <path class="cls-2" d="M754.17,56.79c-.82-11.02-12.63-17.32-22.82-21.58-15.5-6.47-36.16-10.45-51.26-13.36-57.8-11.13-116.76-14.49-173.8-17.73-4.67-.26-9.35-.53-14.03-.8-.1,0-.19,0-.28,0l-123.51-3.31h-.47c-12.86.33-25.99.61-38.68.89-68.99,1.5-140.32,3.04-209.83,11.67C77.76,17.74,24.43,27.08,7.45,42.21.56,48.34-.35,54.44.09,58.49c1.18,10.76,12.44,17.04,21.5,22.09,2.64,1.48,5.64,3.15,6.81,4.15,10.28,8.75,17.21,40.63,21.79,61.73,1.63,7.54,3.05,14.05,4.5,19.33,18.7,68.38,48.49,114.32,91.06,140.43,22.05,13.51,46.15,21.33,69.15,27.61-.26,1.34-.75,2.99-1,3.87-1.56,5.31-6.91,10.5-12.56,16-5.63,5.46-11.44,11.12-15.47,18.42-.98,1.77-1.6,3.58-2.15,5.17-.21.59-.48,1.38-.71,1.95-2.68,1.18-9.19,3.15-11.82,3.95-1.43.43-2.66.8-3.55,1.09-16.23,5.27-33.01,10.09-49.23,14.76-16.7,4.81-33.97,9.77-50.82,15.26-.33.11-.67.24-.98.39-3.65,1.69-11.17,7.94-15.34,11.52-12.08,10.39-13.2,13.11-13.85,14.74-.43,1.07-.66,2.21-.67,3.38l-.66,254.63c-1.13.62-2.39,1.32-3.57,2.2-5.74,4.33-13.2,10.12-20.05,16.6-.89.84-1.59,1.85-2.08,2.97-2.56,5.91-1.63,33-1.25,35.7,1.82,12.99,13.3,14.99,18.82,15.97,1.36.23,2.66.46,3.7.75.3.08.6.15.89.21,72.36,12.44,145.86,25.71,216.92,38.56,65.32,11.8,132.87,24.02,199.4,35.54,4.01.7,8.49,1.61,13.23,2.58,10.38,2.12,21.11,4.31,30.06,4.89.9.05,1.8.08,2.66.08,11.13,0,18.19-4.64,25.03-9.13,1.32-.87,2.68-1.76,4.1-2.64,28.54-17.73,57.01-36.58,84.55-54.81,35.5-23.53,72.22-47.84,109.34-69.88.23-.14.44-.28.66-.43.95-.69,5.75-4.35,7.1-9.63,1.07-4.24,1.07-27.87-.33-32.31-1.69-5.36-6.84-8.82-12.81-12.83-1.69-1.13-4.2-2.83-5.78-4.1l-.42-239.05c.12-8.1-4.8-13.04-8.05-16.32l-.45-.45c-.15-.16-15.9-15.77-25.06-17.47-.27-.05-.54-.09-.81-.12-13.02-1.21-26.26-1.98-39.05-2.73-14.04-.81-28.57-1.66-42.68-3.09-.72-.07-1.62-.16-2.64-.25-10.47-1.01-17.46-1.91-20.87-2.69-.3-1.21-.72-2.69-1.51-4.25-3.78-7.42-9.62-12.47-14.78-16.93-3.33-2.88-6.48-5.6-8.72-8.62-3.52-4.76-6.19-11.28-6.3-14.08,3.7-1.58,10.49-3.09,16.54-4.43,5.67-1.26,11.02-2.45,15.39-3.93,33.45-11.34,60.44-31.49,82.51-61.61,17.29-23.6,31.56-53.72,43.61-92.09,1.94-6.18,4.03-14.78,6.24-23.88,4.49-18.47,11.28-46.36,18.07-54.58,2.43-2.94,8.52-6.62,13.89-9.86,11.52-6.97,23.45-14.17,22.57-26.01ZM710.75,86.91c-11.51,13.92-19.69,61.52-25.97,81.5-20.27,64.49-52.36,124.8-120.4,147.85-9.42,3.19-26.48,5.43-34.05,9.3-9.21,4.71-.17,21.34,4.07,27.07,6.61,8.92,17.49,14.06,22.69,24.27,1.39,2.74.78,6.28,3.94,7.81,4.6,2.22,22.2,3.67,28.23,4.28,27.15,2.75,54.61,3.29,81.78,5.83,4.63.86,16.63,11.23,20.29,14.93,2.93,2.96,5.99,5.78,5.9,10.37l.42,242.53c2.89,5.26,17.55,11.64,18.99,16.22.84,2.66.9,24.53.18,27.38-.4,1.57-2.26,3.55-3.61,4.52-66.12,39.25-128.78,84.27-194.03,124.78-9.14,5.67-14.86,11.08-26.45,10.35-12.33-.79-29.54-5.14-42.32-7.35-138.88-24.07-277.4-50.23-416.32-74.11-6.58-1.83-14.84-.92-16.01-9.28-.57-4.06-.6-28.09.6-30.84,6.02-5.7,12.67-10.97,19.27-15.95,2.14-1.62,6.71-3.18,7.14-5.5l.69-258.54c1.32-3.26,20.8-19.69,24.6-21.45,33.08-10.78,66.96-19.29,100.05-30.02,4.04-1.31,15.97-4.57,18.61-6.67,2.53-2.02,3.1-6.72,4.75-9.71,7.57-13.71,24.77-22.53,28.78-36.24,1.39-4.72,3.39-11.68-2.01-14.24-24.3-6.52-48.54-14.28-70.07-27.48-48.31-29.62-72.62-82.26-87.08-135.11-5.93-21.72-12.73-71.59-29.15-85.55-7.65-6.51-36.05-15.32-20.79-28.9,17.12-15.25,83.07-24.44,107.14-27.43,81.86-10.15,165.29-10.41,247.63-12.49l123.51,3.31c62.7,3.62,124.83,6.49,186.63,18.39,15.43,2.97,35.14,6.84,49.49,12.83,42.57,17.77-5.32,29.08-17.12,43.36Z"/>
  <path d="M530.33,325.57c7.57-3.87,24.63-6.11,34.05-9.3,68.05-23.05,100.14-83.36,120.4-147.85,6.28-19.99,14.46-67.59,25.97-81.5,11.8-14.28,59.69-25.6,17.12-43.36-14.35-5.99-34.07-9.85-49.49-12.83-61.81-11.9-123.94-14.77-186.63-18.39l-123.51-3.31c-82.33,2.08-165.77,2.34-247.63,12.49-24.08,2.99-90.03,12.18-107.14,27.43-15.25,13.58,13.14,22.39,20.79,28.9,16.41,13.96,23.21,63.83,29.15,85.55,14.46,52.85,38.76,105.48,87.08,135.11,21.53,13.2,45.77,20.96,70.07,27.48,5.4,2.56,3.41,9.52,2.01,14.24-4.02,13.7-21.22,22.53-28.78,36.24-1.65,2.99-2.22,7.69-4.75,9.71-2.64,2.1-14.57,5.36-18.61,6.67-33.08,10.73-66.96,19.25-100.05,30.02-3.8,1.76-23.28,18.19-24.6,21.45l-.69,258.54c-.43,2.32-5,3.88-7.14,5.5-6.6,4.98-13.26,10.25-19.27,15.95-1.19,2.75-1.17,26.78-.6,30.84,1.17,8.36,9.44,7.45,16.01,9.28,138.92,23.88,277.44,50.04,416.32,74.11,12.78,2.21,29.99,6.57,42.32,7.35,11.6.73,17.31-4.68,26.45-10.35,65.25-40.52,127.91-85.53,194.03-124.78,1.35-.97,3.22-2.94,3.61-4.52.72-2.85.66-24.72-.18-27.38-1.44-4.58-16.1-10.96-18.99-16.22l-.42-242.53c.09-4.59-2.97-7.41-5.9-10.37-3.66-3.7-15.65-14.07-20.29-14.93-27.18-2.54-54.63-3.07-81.78-5.83-6.03-.61-23.64-2.06-28.23-4.28-3.16-1.54-2.55-5.08-3.94-7.81-5.19-10.21-16.08-15.35-22.69-24.27-4.24-5.73-13.29-22.36-4.07-27.07ZM343.38,551.16c-2.11,33.44-3.41,70.79-8.26,103.74-3.31,22.49-20.36,30.47-40.07,37.62-8.07,2.93-34.98,10.88-42.39,9.89-4.06-.55-22.82-10.45-27.65-13.05-22.78-12.27-49.3-28.21-53.15-56.13-3.61-26.23-4.31-54.62-5.54-81.16-.55-11.78-3.2-30.45-1.84-41.59.19-1.51,1.03-3.65,2.13-4.64,3.25-2.93,19.58-4.57,24.51-4.84,43.64-2.39,93.65,2.46,135.98,13.12,5.06,1.27,14.46,3.3,17.2,8.09,2.52,4.42-.55,22.76-.94,28.96ZM477.49,475.94l-409.95-28.66c-1.56-.43-4.1-5.22.31-5.16l315.99,22.21,96.88,7.35c4.81.59.77,3.77-3.23,4.25Z"/>
  <path d="M477.49,475.94l-409.95-28.66c-1.56-.43-4.1-5.22.31-5.16l315.99,22.21,96.88,7.35c4.81.59.77,3.77-3.23,4.25Z"/>
  <path class="cls-2" d="M463.11,768.28l-93.96-14.09-306.58-44.22c-4.29-.37-2.44,3.29-.69,5.12l397.75,57.21c3.94-.21,8.12-3.09,3.48-4.02Z"/>
  <path class="cls-2" d="M467.41,798.41l-98.09-15.32-320.05-48.22c-4.48-.43-2.47,4.44-.72,5.12l415.23,62.4c4.12-.16,8.47-2.99,3.63-3.98Z"/>
  <path class="cls-2" d="M487.82,777.95c-.28.14-.43.46-.34.76l1.95,6.72,6.42,19.65c.24.22,3.17-.73,3.24-1.07l-8.42-25.46c-.52-.08-1.14-1.42-2.84-.6Z"/>
  <path class="cls-2" d="M482.08,487.83l-.55,65.86-.06,214.71c.24,2.98,3.7,1.64,4.73-1.58l.35-277.01c-.77-2.68-4.22-5.26-4.47-1.99Z"/>
  <path class="cls-2" d="M477.49,475.94l-409.95-28.66c-1.56-.43-4.1-5.22.31-5.16l315.99,22.21,96.88,7.35c4.81.59.77,3.77-3.23,4.25Z"/>
  <path class="cls-2" d="M498.48,477.37l41.77-16.43,136.8-51.92c1.99-.49,1.54,3.93,1.81,4.84l-177.53,67.21c-1.98-.07-4.85-2.67-2.85-3.7Z"/>
  <path class="cls-1" d="M520.84,115.36c7.95,2.31,5.66,42.57,4.86,50.01-6.48,59.63-36.9,121.23-104.66,122.49-.07-1-.06-1.96.22-2.94.8-2.81,10.22-15.56,12.58-19.93,18.65-34.56,28.61-93.92,25.12-132.91-.55-6.13-3.47-10.88-4.5-16.72h66.38Z"/>
  <path class="cls-1" d="M569.15,34.99c.21,1.57-2.05.85-3.15.89-11.12.45-23.19.21-34.37.04-123.4-1.88-253.86-6.04-376.58,7.19-2.16.23-11.91,1.07-12.23,2.4l4.5,31.85-35.95-2.78c-1.29-.78-1.65-18.27-4.88-21.31-1.92-1.81-11.49-1.25-14.56-1.02-5.67.42-36.05,5.73-38.57,9.3-1.79,2.53.35,5.82-2.17,7.72-39.46-13.84,10.11-22.89,24.79-25.74,52.98-10.27,110.02-12.57,163.95-14.88,104.33-4.46,209.24-4.07,313.41,4.53,5.23.43,10.58,1.31,15.81,1.81Z"/>
  <path class="cls-2" d="M592.35,642.93c2.5-.24,2.88,3.92,3.04,5.72,1.08,11.93,1.34,39.91-.02,51.54-.39,3.3-1.94,5.36-4.81,6.93-22.91,11.25-44.64,25.01-67.44,36.42-6.67,3.34-10.93,7.88-11.8-2.69-1.1-13.36-.99-36.31,0-49.75.19-2.57.57-6.76,1.95-8.89,1.67-2.57,12.71-7.44,16.13-9.15,20.78-10.4,42.14-19.77,62.96-30.13Z"/>
  <path class="cls-2" d="M594.34,478.56c.74,1.52.94,3.14,1.06,4.81.97,13.72,1.24,38.06,0,51.56-.34,3.7-1.03,5.44-4.34,7.41-7.63,4.54-22.89,9.51-31.86,13.3-14.45,6.11-29.17,11.62-43.53,17.95-3.16,1.61-4.04-1.84-4.33-4.36-1.42-12.44-.96-38.67-.02-51.54.24-3.3.59-6.53,2.3-9.44l80.72-29.7Z"/>
  <path class="cls-2" d="M512.48,659.76c-1.02-1.06-1.04-3.27-1.16-4.71-1.16-13.41-1.18-39.07,0-52.46.24-2.75.8-5.28,2.32-7.61l77.21-33.96c3.01-1.07,4.19.94,4.54,3.63,1.47,11.23.84,37.9,0,49.76-.2,2.82-.37,5.61-1.8,8.14l-78.95,38.11c-.72-.16-1.65-.37-2.16-.89Z"/>
  <path class="cls-2" d="M679.06,521.94l2.16,1.14c.75.79.75,1.74.88,2.74,1.29,9.6,1.13,40.83-.02,50.64-.79,6.73-9.55,9.3-15.05,12.04-14.81,7.41-30.72,15.11-45.78,21.96-1.95.89-11.3,5.41-12.34,4.87-2.23-1.77-2.52-3.7-2.76-6.34-1.1-11.89-1-35.07.01-47.04.19-2.3.87-6.81,2.31-8.52l70.59-31.49Z"/>
  <path class="cls-2" d="M681.12,601.3c.51,1.63.85,3.18.98,4.9.92,12.77,1.13,35.33,0,47.95-.16,1.81-.15,3.42-1.42,4.91-17.72,10.02-35.59,20.09-53.7,29.39-3.67,1.89-13.09,7.4-16.27,8.18-4.01.99-4.27-2.16-4.57-5.45-1.08-11.96-1.01-35.02.01-47.04.44-5.17,1.17-7.76,5.72-10.54,9.68-5.92,25.66-12.57,36.44-17.75,3.92-1.89,31.33-15.59,32.81-14.56Z"/>
  <path class="cls-2" d="M680.24,445.02c.71,2.68,1.61,4.76,1.86,7.64.94,10.97,1.22,35.44-.02,46.12-.51,4.39-2.21,5.08-5.72,6.92-16.5,8.62-42.52,18.98-60.26,25.55-12.35,4.57-8.91.23-8.96-9.87-.07-13.52-1.55-32.39-.06-45.21.17-1.48.35-2.86,1.4-4.01l71.76-27.13Z"/>
  <path class="cls-2" d="M674.83,105.43c-8.83,48.4-17.4,101.93-51.01,140-16.66,18.86-38.98,33.42-62.78,41.52,11.16-9.69,22.02-17.92,31.59-29.37,35.74-42.78,40.64-95.61,50.7-148.45,10.66,1.56,20.99-2.55,31.51-3.7Z"/>
  <path class="cls-2" d="M246.51,113.77c4.54,11.46,2.16,24.35,2.88,36.4.8,13.31,3.07,26.62,6.62,39.45,1.05,3.81,8.86,24.2,7.49,26.04l-1.88.85c-8.83-1.44-30.16.13-36.62-5.82-6.61-6.09-11.91-31.55-13.38-40.81-2.29-14.48-4.15-33.13-4.63-47.75-.56-17.27,5.5-11.36,18.51-10.39,3.61.27,19.32.34,21.01,2.03Z"/>
  <path class="cls-3" d="M313.72,499.51c-41.2-8.23-82.84-12.38-124.99-9.95-13.09.75-33.13,1.25-35.04,18.24-1.42,12.63.28,33.61.92,46.96,1.19,25.19,2.94,54.54,6.42,79.37,4.53,32.2,30.2,49.99,56.77,64.26,5.72,3.07,27.56,14.6,32.44,15.28,4.27.6,15.18-1.73,19.99-2.64,29.72-5.59,69.08-17.5,75.6-51.74,3.86-20.23,5.01-47.41,6.57-68.41,1.52-20.59,3.2-41.75,3.67-62.28.53-23.67-24.58-25.55-42.33-29.09ZM345.16,620.7c-3.46,36.93-2.05,61.04-41.32,76.09-9.93,3.8-44.66,13.65-53.76,11.76-5.79-1.2-25.96-12.13-32.29-15.58-25.86-14.09-48.14-30.09-52.35-61.44-5.44-40.45-5.36-82.86-7.16-123.65,1.95-13.62,23.5-13.27,34.06-13.81,43.03-2.24,98.84,2.82,140.37,14.44,10.4,2.91,18.86,6.67,18.84,19.17-.02,28.8-3.68,63.91-6.39,93.02Z"/>
  <path class="cls-2" d="M347.88,352.91c-3.57,5.81-5.91,18.52-2.22,24.34,2.3,3.62,7.51,4.27,8.54,8.16-7.86,1.75-15.87,1.32-23.92.9-15.21-.8-32.6-2.69-47.76-4.62-9.22-1.18-18.47-2.93-27.63-4.44-2.44-2.91,8.44-9.99,10.38-12.59s3.91-6.45,3.97-9.6c.06-2.88-4.29-9.33-1.16-10.22,19.36,3.25,38.91,6.08,58.55,7.19,7.08.4,14.32-.9,21.26.88Z"/>
  <path class="cls-2" d="M671.21,80.15c-.18,1.36-3.16,2.07-4.31,2.45-33.36,11-87.74,11.54-123.52,12.86-58.71,2.17-117.48,2.76-176.09-.86-6.83-.42-13.58.47-20.31-1.83.34-1.64,1.77-1.68,3.13-1.83,10.21-1.14,23.68.29,34.39.07,75.8-1.52,151.87-1.53,227.56-6.37,19.7-1.26,39.43-4.13,59.16-4.5Z"/>
  <path class="cls-2" d="M334.12,437.59c-2.08.76-4.32,1.18-6.55,1.18-25.23.04-85.22-7.64-107.66-17.96-1.43-.66-9.74-5.09-7.5-7.39,8.8,1.45,18.27,9.88,27.09,4.75.68-3.14.41-14.59,4.79-14.52,21.71,8.05,44.9,11.89,67.92,14.27,4.31.45,17.42-.5,20.3,2.28,2.53,5.2,3.72,11.84,1.61,17.39Z"/>
  <path class="cls-1" d="M478.84,394.46c-2.8,2.65-8.64,4.16-12.46,5.14-35.94,9.3-90.59,9.79-128.02,8.43-22.87-.83-93.95-7.26-110.13-21.74-1.11-.99-2.57-1.84-2.28-3.58,1.25-1.07,26.54,5.96,30.67,6.8,71.93,14.71,140.44,8.6,212.74,4.94,3.15-.16,6.33.08,9.47,0Z"/>
  <path class="cls-1" d="M186.2,282.45c-37.24-15.25-64.7-50.1-78.59-87.14-9.56-25.48-12.7-50.23-18.33-76.51-1.18-5.51-4.69-14.57-5.11-19.35-.48-5.6,2.95-4.24,5.79-1.2,8.39,9.01,17.04,60.01,21.94,75.6,10.92,34.77,30.42,69.67,58.03,93.7,1.87,1.63,18.38,12.77,16.27,14.89Z"/>
  <path class="cls-2" d="M281.03,218.33c-2.86,2.41-7.98-8.59-8.89-10.52-11.07-23.52-10.38-50.37-11.88-75.73-.27-4.59-1.79-10.99-1.84-15.41-.05-5,8.93-2.82,11.27-1.25,1.47.99,2.59,5.13,3,6.94,3.32,14.78,2.15,36.95,3.85,53.05,1.2,11.36,5.33,26.51,5.45,37.08.02,2.06-.87,3.82-.95,5.83Z"/>
  <path class="cls-1" d="M449.94,326.72c-1.27,2.32-5.49,2.84-7.94,3.34-12.8,2.61-27.37,2.38-40.41,2.94-38.06,1.63-76.67,1.32-114.66-2.68-11.29-1.19-23.09-2.52-33.87-5.86,1.03-1.51,2.47-1.29,4.01-1.41,7.55-.57,17.66-.24,25.37.01,28.22.91,56.59,4.04,84.82,4.59,27.64.54,55.12-.78,82.68-.93Z"/>
  <path class="cls-2" d="M425.56,376.38c.74-3.5,4.43-4.75,5.62-8.36,1.81-5.51-.62-9.36-4.24-13.34-1.65-1.82-5.12-2.51-5-5.38l26.62-2.77c5.38-.55,9.4,10.1,9.54,14.09.49,14.51-22.19,16.02-32.55,15.77Z"/>
  <path class="cls-2" d="M481.57,343.91c3.91-.81,14.85-4.23,18.05-2.3.83.5,6.32,13.57,8.65,16.64,3.27,4.29,7.74,7.41,12.1,10.46-10.87,5.03-26.05,1.4-32.67-8.85-1.28-1.98-6.98-14.74-6.12-15.94Z"/>
  <path class="cls-1" d="M516.86,425.98c-1.55-1.08-1.39-18.12-.16-21,.89-1.38,15.6-5.82,18.2-4.72,1.18.84,2.41,16.15,1.3,18.58-.99,2.08-17.85,8.18-19.34,7.14Z"/>
  <path class="cls-1" d="M487.87,411.61v20.32c-2.33,3.08-16.86,4.28-19.02,2.77l-1.33-18.61,20.36-4.48Z"/>
  <path class="cls-3" d="M198.85,452.26l.83.28c-.27-.02-.53-.03-.8-.05l-.03-.23Z"/>
  <path class="cls-1" d="M505.94,389.04c6.74.29,14.01-4.88,19.83-5.95,1.13-.21,2.47-.33,2.75.99.77,3.64-20.03,11.62-22.57,4.96Z"/>
  <path class="cls-2" d="M498.49,326.01c1.06-.1,2.93.07,2.91,1.15-.04,2.05-14.12,7.02-16.22,3.61.01-1.04,11.66-4.61,13.31-4.76Z"/>
  <path d="M332.72,508.51c-41.54-11.62-97.35-16.68-140.37-14.44-10.56.54-32.11.19-34.06,13.81,1.8,40.79,1.73,83.19,7.16,123.65,4.21,31.35,26.49,47.35,52.35,61.44,6.33,3.45,26.5,14.38,32.29,15.58,9.09,1.89,43.83-7.96,53.76-11.76,39.27-15.06,37.86-39.16,41.32-76.09,2.72-29.11,6.38-64.22,6.39-93.02.02-12.49-8.44-16.26-18.84-19.17ZM343.38,551.16c-2.11,33.44-3.41,70.79-8.26,103.74-3.31,22.49-20.36,30.47-40.07,37.62-8.07,2.93-34.98,10.88-42.39,9.89-4.06-.55-22.82-10.45-27.65-13.05-22.78-12.27-49.3-28.21-53.15-56.13-3.61-26.23-4.31-54.62-5.54-81.16-.55-11.78-3.2-30.45-1.84-41.59.19-1.51,1.03-3.65,2.13-4.64,3.25-2.93,19.58-4.57,24.51-4.84,43.64-2.39,93.65,2.46,135.98,13.12,5.06,1.27,14.46,3.3,17.2,8.09,2.52,4.42-.55,22.76-.94,28.96Z"/>
  <path class="cls-2" d="M343.38,551.16c-2.11,33.44-3.41,70.79-8.26,103.74-3.31,22.49-20.36,30.47-40.07,37.62-8.07,2.93-34.98,10.88-42.39,9.89-4.06-.55-22.82-10.45-27.65-13.05-22.78-12.27-49.3-28.21-53.15-56.13-3.61-26.23-4.31-54.62-5.54-81.16-.55-11.78-3.2-30.45-1.84-41.59.19-1.51,1.03-3.65,2.13-4.64,3.25-2.93,19.58-4.57,24.51-4.84,43.64-2.39,93.65,2.46,135.98,13.12,5.06,1.27,14.46,3.3,17.2,8.09,2.52,4.42-.55,22.76-.94,28.96Z"/>
  <path d="M549.06,553.45l-7.77,3.11c.05-1.44.28-2.87.7-4.29.42-1.42,1.23-3.22,2.42-5.4.73-1.34,1.2-2.32,1.4-2.94.2-.62.29-1.17.28-1.66-.01-.52-.13-.93-.35-1.21-.22-.29-.49-.37-.81-.24-.33.13-.6.43-.8.9-.2.47-.32,1.2-.37,2.19l-2.61.65c.06-1.38.22-2.5.47-3.36.25-.86.62-1.59,1.1-2.19.48-.6,1.16-1.07,2.04-1.42.91-.36,1.63-.46,2.15-.28.52.18.93.61,1.25,1.28.31.68.48,1.5.51,2.48.03,1.04-.11,2.11-.42,3.19-.31,1.08-.89,2.36-1.73,3.85-.5.87-.84,1.47-1.01,1.8-.17.33-.37.76-.59,1.28l4.05-1.62.1,3.86Z"/>
  <path d="M549.94,544.4c-.09-3.25.17-5.66.78-7.21.6-1.56,1.56-2.59,2.87-3.11.63-.25,1.15-.31,1.56-.19.41.12.75.36,1.01.72.27.35.48.75.64,1.2s.29.98.4,1.62c.21,1.21.33,2.5.36,3.89.08,3.1-.15,5.48-.68,7.14-.53,1.66-1.5,2.77-2.9,3.33-.78.31-1.42.34-1.92.07-.49-.26-.91-.78-1.24-1.54-.24-.54-.44-1.33-.59-2.37-.15-1.04-.25-2.22-.28-3.54ZM552.51,543.39c.06,2.18.2,3.62.43,4.33.23.71.54.99.94.83.26-.1.49-.36.67-.78s.31-1,.38-1.77c.07-.77.09-1.92.05-3.47-.06-2.27-.2-3.76-.43-4.45-.23-.7-.56-.96-.98-.8s-.73.69-.9,1.57c-.17.87-.23,2.39-.17,4.54Z"/>
  <path d="M566.4,546.53l-7.75,3.09c.05-1.44.29-2.87.71-4.29.42-1.42,1.23-3.22,2.43-5.4.73-1.34,1.2-2.31,1.4-2.93.2-.62.29-1.17.28-1.65-.01-.52-.13-.92-.35-1.21-.22-.29-.49-.37-.8-.24-.33.13-.6.43-.8.89-.2.46-.32,1.19-.37,2.19l-2.6.65c.07-1.38.23-2.5.48-3.36.25-.86.62-1.59,1.1-2.19.48-.6,1.16-1.07,2.04-1.42.91-.36,1.62-.45,2.14-.27.52.18.93.61,1.24,1.28.31.67.48,1.5.5,2.48.03,1.04-.12,2.1-.43,3.18-.31,1.08-.89,2.36-1.74,3.84-.5.87-.84,1.47-1.01,1.8-.17.33-.37.76-.59,1.28l4.03-1.61.09,3.86Z"/>
  <path d="M571.86,541.13l-4.7,1.88-.09-3.9,4.46-12.16,2.25-.9.24,10.51,1.16-.46.08,3.68-1.16.46.07,3.19-2.25.9-.07-3.19ZM571.77,537.45l-.12-5.38-2.36,6.37,2.48-.99Z"/>
  <path d="M528.93,510.92l4.16-1.53c.9-.33,1.56-.22,1.99.34.42.56.61,1.5.56,2.82-.05,1.35-.33,2.49-.84,3.42-.51.93-1.25,1.58-2.24,1.96l-1.34.51-.14,4.85-2.45.94.31-13.3ZM531.28,515.75l.61-.23c.48-.18.81-.44,1.02-.79s.31-.74.32-1.17c.01-.42-.06-.75-.22-.98-.16-.23-.47-.26-.93-.09l-.71.26-.08,2.99Z"/>
  <path d="M540.82,506.55l3.63-1.34c.71-.26,1.28-.31,1.7-.13.42.17.75.52,1,1.03.25.51.41,1.15.49,1.92.08.77.09,1.6.04,2.5-.08,1.41-.24,2.53-.48,3.37-.23.84-.53,1.58-.89,2.22-.36.64-.74,1.12-1.13,1.43-.53.43-1.01.73-1.43.89l-3.54,1.35.61-13.25ZM543.11,508.71l-.37,7.23.59-.22c.5-.19.86-.42,1.08-.68s.4-.66.55-1.17c.15-.51.25-1.3.31-2.35.08-1.41,0-2.32-.24-2.74-.24-.42-.68-.52-1.3-.29l-.6.22Z"/>
  <path d="M552.87,512.9l-2.66,1.01-.51,2.27-2.4.92,3.72-14.3,2.61-.96,1.89,12.12-2.43.93-.23-1.99ZM552.58,510.26l-.52-4.45-1.16,5.08,1.68-.63Z"/>
  <path d="M557.31,500.48l3.51-1.29c.69-.25,1.23-.29,1.62-.12.39.17.7.52.92,1.04.22.51.35,1.15.4,1.92s.03,1.59-.05,2.49c-.13,1.4-.32,2.52-.57,3.35-.25.83-.56,1.57-.92,2.2-.37.63-.74,1.11-1.12,1.42-.52.42-.99.72-1.4.87l-3.42,1.31,1.02-13.19ZM559.43,502.65l-.59,7.2.57-.21c.48-.18.83-.41,1.05-.67s.41-.65.56-1.16c.16-.51.28-1.29.37-2.34.12-1.4.07-2.31-.14-2.74-.22-.42-.63-.52-1.23-.3l-.58.22Z"/>
  <path d="M565.57,497.44l3.45-1.27c.68-.25,1.21-.28,1.59-.11.38.18.67.52.88,1.04.21.51.33,1.15.36,1.92.04.76,0,1.59-.09,2.49-.15,1.4-.35,2.51-.61,3.34-.26.83-.57,1.56-.94,2.19-.37.63-.74,1.1-1.12,1.41-.52.42-.98.71-1.38.86l-3.37,1.28,1.22-13.15ZM567.6,499.62l-.7,7.18.56-.21c.47-.18.82-.4,1.04-.66s.41-.65.57-1.15c.16-.51.29-1.28.4-2.33.14-1.39.11-2.31-.09-2.73-.2-.42-.6-.53-1.2-.3l-.57.21Z"/>
  <path d="M572.56,494.87l2.54-.94.98,3.95,1.99-5.04,2.5-.92-3.73,8.74-.62,5.41-2.23.85.6-5.41-2.03-6.64Z"/>
  <path d="M520.44,530.28l6.08-2.34-.05,2.73-3.58,1.39-.03,2.2,3.05-1.19-.04,2.52-3.03,1.19-.06,5.02-2.42.96.08-12.49Z"/>
  <path d="M527.84,527.44l2.43-.93-.25,9.45,3.7-1.46-.1,3.01-6.05,2.4.27-12.47Z"/>
  <path d="M535.13,524.64l6.39-2.46-.13,2.71-3.97,1.54-.08,2,3.67-1.43-.12,2.54-3.65,1.43-.1,2.43,4.03-1.59-.14,2.76-6.35,2.52.45-12.45Z"/>
  <path d="M542.39,521.85l2.6-1,1.12,3.37,1.53-4.39,2.54-.98-2.72,6.99,2.12,5.33-2.56,1.02-1.23-3.34-1.69,4.5-2.57,1.02,2.92-7.42-2.06-5.11Z"/>
  <path d="M551.15,518.48l4.33-1.66c.72-.28,1.24-.18,1.58.27.33.46.46,1.13.39,2.01-.06.74-.25,1.43-.56,2.06-.21.42-.49.8-.86,1.14.51,0,.87.23,1.08.65.21.42.28,1.02.21,1.8-.05.63-.19,1.24-.4,1.81-.22.57-.49,1.06-.81,1.48-.2.26-.5.5-.88.73-.51.31-.85.5-1.02.56l-3.9,1.55.84-12.4ZM553.13,522.52l.99-.39c.36-.14.61-.34.77-.6s.25-.59.28-.98c.03-.36-.02-.62-.14-.77s-.36-.16-.71-.03l-1.01.39-.17,2.37ZM552.78,527.37l1.16-.46c.39-.15.67-.38.85-.67.18-.29.28-.64.31-1.03.03-.36-.03-.62-.17-.78-.14-.16-.41-.16-.81,0l-1.16.45-.18,2.49Z"/>
  <path d="M559.24,515.37l6.08-2.34-.26,2.69-3.78,1.46-.17,1.99,3.49-1.36-.24,2.52-3.48,1.36-.21,2.42,3.84-1.51-.26,2.75-6.05,2.4,1.03-12.38Z"/>
  <path d="M570,521.16l-2.49.98-.55,2.13-2.24.89,3.92-13.41,2.44-.94,1.33,11.29-2.27.9-.14-1.86ZM569.83,518.7l-.32-4.14-1.24,4.75,1.56-.61Z"/>
  <path d="M574.51,509.51l2.06-.79,1.84,5.86.84-6.88,2.06-.79-1.54,12.3-2.01.8-1.82-5.66-.78,6.69-2.03.8,1.39-12.33Z"/>
  <path d="M581.31,514.78l2.06-1.02c-.03.56,0,.97.09,1.22.15.4.43.53.84.37.3-.12.55-.34.75-.65.2-.32.32-.64.36-.97.04-.32,0-.57-.12-.75-.12-.19-.45-.28-1-.28-.89,0-1.49-.24-1.81-.71-.32-.46-.43-1.18-.3-2.15.08-.64.26-1.29.55-1.94.28-.65.65-1.23,1.12-1.71.46-.49,1.06-.88,1.79-1.16.89-.34,1.53-.31,1.92.11.38.42.53,1.25.44,2.51l-2.04.99c.02-.54-.04-.9-.17-1.09s-.36-.22-.66-.11c-.25.1-.45.27-.6.5s-.25.49-.28.77c-.03.2,0,.36.09.47.08.12.3.18.66.18.89,0,1.51.1,1.86.31s.58.55.69,1.02c.11.47.12,1.04.02,1.7-.11.78-.33,1.54-.66,2.29-.33.75-.74,1.38-1.22,1.88-.48.51-1.05.89-1.71,1.15-1.16.46-1.92.39-2.27-.22-.35-.61-.48-1.52-.38-2.72Z"/>
  <path class="cls-3" d="M206.69,549.01c-3.43-1.53-6.78-3.02-10.17-4.53,0-6.8,0-13.52,0-20.25,1.3-.32,46.82,3.56,49.44,4.23-.06,6.86-.12,13.72-.18,20.65-3.41.87-6.79,1.73-10.26,2.62-.06,8.16-.11,16.23-.17,24.41,10.91,1.12,21.83,2.23,32.94,3.37.11-8.15.21-16.24.32-24.58-3.46-1.52-6.96-3.07-10.54-4.65.08-6.94.15-13.82.23-20.84,16.98,1.5,34.03,3,51.38,4.53-.14,7.02-.28,13.94-.43,21.11-3.52.87-7.14,1.76-10.8,2.66-.49,26.67-.97,52.97-1.45,79.16,3.48,1.56,6.96,3.11,10.51,4.7-.14,6.83-.27,13.55-.41,20.24-1.44.22-46.55-5.24-50-6.03-.38-1.37-.32-17.53.11-20.23,3.35-.69,6.79-1.4,10.45-2.15.24-8.54.25-17.12.39-25.66-1.48-.65-30.32-3.96-32.74-3.81-.38,1.32-.65,22.66-.3,25.69,3.26,1.48,6.62,3,10.03,4.55-.06,6.74-.12,13.35-.18,20.08-16.24-2.02-32.26-4.01-48.37-6.02-.14-6.54-.03-13.1-.07-19.82,3.4-.73,6.71-1.44,10.12-2.18.05-25.48.09-51.15.14-77.26ZM306.37,552.72c.11-5.43.21-10.73.32-16.09-15.37-1.37-30.46-2.71-45.54-4.06-.06,5.36-.12,10.59-.18,15.91,3.55,1.56,7.07,3.11,10.56,4.64-.13,9.99-.27,19.78-.4,29.54-.39.02-.64.07-.89.05-12.32-1.26-24.55-2.52-36.7-3.78-.25-.03-.49-.12-.74-.19-.06-.02-.12-.06-.16-.1-.05-.05-.08-.11-.16-.24.06-9.53.12-19.17.19-28.95,3.5-.91,6.97-1.81,10.33-2.69.05-5.4.09-10.56.13-15.78-14.81-1.32-29.36-2.62-43.89-3.91,0,5.23,0,10.33,0,15.59,3.39,1.51,6.78,3.03,10.23,4.57-.06,27.41-.13,54.45-.19,81.36-3.39.74-6.75,1.46-10.08,2.19,0,5.15,0,10.12,0,15.18,14.24,1.76,28.48,3.52,42.95,5.31.04-5.12.08-10.15.13-15.36-3.38-1.54-6.79-3.09-10.09-4.59.07-10.29.13-20.37.2-30.47,2.63-.12,37.13,3.79,38.47,4.35-.14,10.22-.27,20.41-.41,30.63-3.59.74-7.08,1.46-10.49,2.17-.06,5.28-.12,10.33-.18,15.47,14.76,1.82,29.52,3.65,44.53,5.51.1-5.21.2-10.38.31-15.64-3.55-1.59-7.02-3.14-10.46-4.68.49-27.56.98-55.22,1.48-83.26,3.61-.9,7.17-1.78,10.76-2.67Z"/>
  <path class="cls-2" d="M306.37,552.72c-3.58.89-7.14,1.77-10.76,2.67-.5,28.04-.99,55.7-1.48,83.26,3.44,1.54,6.91,3.1,10.46,4.68-.1,5.26-.21,10.42-.31,15.64-15.02-1.86-29.77-3.68-44.53-5.51.06-5.13.12-10.18.18-15.47,3.41-.7,6.9-1.43,10.49-2.17.14-10.23.27-20.41.41-30.63-1.33-.56-35.83-4.47-38.47-4.35-.07,10.1-.13,20.19-.2,30.47,3.3,1.5,6.71,3.05,10.09,4.59-.04,5.21-.09,10.24-.13,15.36-14.48-1.79-28.71-3.55-42.95-5.31,0-5.06,0-10.03,0-15.18,3.33-.72,6.69-1.45,10.08-2.19.06-26.91.13-53.94.19-81.36-3.45-1.54-6.85-3.06-10.23-4.57,0-5.27,0-10.36,0-15.59,14.54,1.29,29.08,2.59,43.89,3.91-.04,5.22-.09,10.37-.13,15.78-3.37.88-6.83,1.78-10.33,2.69-.06,9.78-.13,19.42-.19,28.95.08.13.11.19.16.24.04.04.1.09.16.1.25.07.49.16.74.19,12.15,1.26,24.38,2.52,36.7,3.78.25.03.5-.03.89-.05.13-9.77.26-19.55.4-29.54-3.49-1.53-7-3.08-10.56-4.64.06-5.32.12-10.56.18-15.91,15.09,1.34,30.18,2.69,45.54,4.06-.11,5.36-.21,10.66-.32,16.09ZM201.29,644.06c.26.13.43.27.6.29,12.02,1.5,24.13,3,36.33,4.5.49.06.99.04,1.48.05.05,0,.11-.05.15-.09.04-.03.08-.08.16-.17.03-3.66.06-7.37.09-11.23-3.42-1.57-6.81-3.13-10.1-4.64-.37-4.29-.02-32.93.39-34.28,2.89-.11,41.4,4.25,42.7,4.84-.16,11.53-.32,23.01-.48,34.51-3.61.74-7.1,1.45-10.63,2.18-.03,4.01-.15,7.77-.09,11.57.49.14.73.24.97.27,12.65,1.56,25.38,3.13,38.22,4.71.25.03.51,0,.76-.03.06,0,.1-.06.15-.1.05-.04.09-.08.16-.16.07-3.73.14-7.5.22-11.43-3.55-1.6-7.06-3.18-10.57-4.76.5-28.58.99-57.27,1.5-86.43,3.6-.9,7.22-1.8,10.76-2.69.44-2.62.49-10.65.09-12.09-13.67-1.23-27.24-2.45-40.79-3.66-.05,4.06-.1,7.99-.14,11.94,3.62,1.59,7.15,3.14,10.6,4.65-.16,11.32-.31,22.37-.46,33.49-14.52-1.51-28.81-2.99-43.04-4.47.07-11.07.13-22.05.2-33.12,3.51-.91,6.91-1.79,10.27-2.65.03-4.06.06-7.9.09-11.86-13.3-1.19-26.39-2.37-39.47-3.54,0,3.98,0,7.83-.01,11.73,3.49,1.56,6.89,3.08,10.26,4.59-.08,28.58-.15,56.66-.23,84.61-3.4.72-6.77,1.44-10.13,2.16,0,3.88,0,7.6-.01,11.3Z"/>
  <path d="M201.29,644.06c0-3.7,0-7.42.01-11.3,3.36-.72,6.73-1.44,10.13-2.16.08-27.94.15-56.02.23-84.61-3.37-1.51-6.77-3.03-10.26-4.59,0-3.89,0-7.74.01-11.73,13.08,1.17,26.17,2.35,39.47,3.54-.03,3.97-.06,7.81-.09,11.86-3.36.87-6.77,1.75-10.27,2.65-.07,11.07-.13,22.05-.2,33.12,14.23,1.48,28.52,2.96,43.04,4.47.15-11.11.31-22.17.46-33.49-3.46-1.52-6.98-3.06-10.6-4.65.05-3.95.09-7.88.14-11.94,13.55,1.22,27.12,2.44,40.79,3.66.4,1.44.35,9.47-.09,12.09-3.54.89-7.15,1.79-10.76,2.69-.51,29.16-1,57.85-1.5,86.43,3.51,1.58,7.02,3.16,10.57,4.76-.08,3.93-.15,7.7-.22,11.43-.07.07-.11.12-.16.16-.05.04-.1.1-.15.1-.25.02-.51.06-.76.03-12.83-1.57-25.57-3.14-38.22-4.71-.24-.03-.49-.13-.97-.27-.07-3.8.06-7.56.09-11.57,3.53-.72,7.03-1.44,10.63-2.18.16-11.5.32-22.99.48-34.51-1.3-.59-39.81-4.95-42.7-4.84-.41,1.35-.75,29.98-.39,34.28,3.29,1.51,6.68,3.07,10.1,4.64-.03,3.86-.06,7.57-.09,11.23-.08.09-.11.14-.16.17-.05.04-.1.09-.15.09-.49,0-.99,0-1.48-.05-12.19-1.5-24.3-3.01-36.33-4.5-.17-.02-.34-.16-.6-.29Z"/>
  <g>
    <path class="cls-2" d="M590.66,543.62l-74.21,30.24c-3.31,1.35-6-1.09-6-5.45v-52.08c0-4.39,2.7-8.98,6.03-10.23l74.54-28.04c3.09-1.16,5.57,1.33,5.55,5.56l-.29,50.14c-.02,4.2-2.53,8.62-5.61,9.87Z"/>
    <g>
      <g>
        <path d="M543.64,544.23c-.28.11-.53.3-.75.57-.22.27-.4.55-.55.85-.15.3-.26.56-.34.79-.08.23-.12.36-.13.4l-1.65-.35c0-.08.05-.24.12-.5.07-.26.19-.56.35-.92.16-.36.37-.73.63-1.12.26-.38.58-.75.96-1.08s.83-.61,1.35-.82c.6-.24,1.1-.32,1.49-.25.4.07.71.24.93.52.23.28.39.61.49,1,.1.39.15.78.14,1.17,0,.49-.08,1-.22,1.51-.15.52-.34,1.03-.58,1.53-.24.5-.49.98-.76,1.43-.27.45-.53.85-.78,1.2-.25.35-.46.64-.63.86-.17.22-.27.35-.31.4l3.19-1.28v2.23s-6.09,2.45-6.09,2.45v-2.03c.07-.09.21-.29.44-.6.23-.31.5-.69.82-1.14.32-.45.65-.95,1-1.48.35-.53.67-1.06.97-1.6.3-.54.54-1.04.73-1.52.19-.47.28-.88.29-1.22,0-.53-.1-.87-.3-1.01-.2-.14-.48-.14-.84,0Z"/>
        <path d="M547.62,546.33c0-.98.1-1.88.28-2.68.19-.81.44-1.52.77-2.14.32-.62.69-1.13,1.1-1.53.41-.41.84-.7,1.29-.88.45-.18.88-.23,1.29-.15.41.08.77.3,1.09.66s.57.87.75,1.53c.18.66.27,1.48.27,2.46,0,1.04-.1,1.97-.28,2.78-.18.81-.44,1.51-.76,2.11-.32.59-.68,1.08-1.1,1.46-.41.38-.84.67-1.29.85-.45.18-.88.25-1.29.19s-.78-.25-1.1-.58c-.32-.33-.57-.84-.76-1.5-.18-.67-.27-1.52-.27-2.57ZM549.54,545.56c0,.82.06,1.46.18,1.94.12.48.3.81.52.97.22.17.49.19.8.07.31-.12.58-.36.8-.71.22-.35.4-.81.52-1.39.12-.58.18-1.28.19-2.08,0-.76-.06-1.39-.18-1.87-.12-.49-.29-.83-.51-1.02-.22-.2-.49-.23-.8-.11-.31.12-.58.37-.81.75-.23.37-.4.86-.53,1.44-.13.59-.19,1.26-.19,2.02Z"/>
        <path d="M558.48,538.31c-.28.11-.53.3-.74.56-.21.26-.39.55-.54.84-.15.3-.26.56-.34.79-.08.23-.12.36-.13.4l-1.62-.35c0-.08.05-.24.12-.5.07-.25.19-.56.35-.92.16-.36.37-.73.62-1.11.26-.38.57-.74.95-1.07.38-.33.82-.6,1.33-.81.59-.24,1.08-.32,1.47-.24.39.07.7.25.92.52.22.28.38.61.48.99.1.39.14.78.14,1.17,0,.49-.08.99-.22,1.5-.15.51-.34,1.02-.57,1.52-.23.5-.48.97-.75,1.41-.27.44-.52.84-.77,1.19-.24.35-.45.63-.62.85-.17.22-.27.35-.3.39l3.14-1.26v2.21s-6.01,2.42-6.01,2.42v-2.02c.07-.09.21-.28.44-.59.23-.31.5-.68.81-1.13.32-.45.64-.94.99-1.46.34-.53.66-1.05.95-1.59.29-.53.54-1.03.72-1.51.19-.47.28-.88.28-1.21,0-.53-.1-.86-.29-1-.2-.14-.47-.14-.83,0Z"/>
        <path d="M567.5,532.76l-.03,6.63.96-.39v2.21s-.97.39-.97.39v2.36s-1.88.76-1.88.76v-2.36s-3.42,1.38-3.42,1.38v-2.02s3.18-8.1,3.18-8.1l2.16-.86ZM565.6,540.14v-3.38s0,0,0,0l-1.53,3.99,1.53-.61Z"/>
      </g>
      <g>
        <path d="M529.21,510.43l3.92-1.49c.85-.32,1.49-.3,1.91.08.42.38.63,1.06.63,2.06,0,1.02-.23,1.91-.7,2.66-.46.75-1.17,1.31-2.12,1.68l-1.29.49v3.76s-2.38.91-2.38.91v-10.16ZM531.58,513.86l.58-.22c.45-.17.77-.4.96-.68.18-.28.28-.58.28-.91,0-.32-.08-.56-.24-.72-.16-.16-.46-.16-.9.01l-.67.26v2.26Z"/>
        <path d="M540.48,506.15l3.47-1.32c.68-.26,1.23-.35,1.65-.26.42.09.77.31,1.04.67.27.36.47.82.59,1.39.12.57.18,1.19.18,1.88,0,1.08-.1,1.95-.28,2.61-.19.66-.44,1.26-.77,1.79-.33.53-.68.93-1.05,1.2-.51.38-.97.65-1.39.81l-3.47,1.34.02-10.11ZM542.81,507.55v5.52s.56-.22.56-.22c.49-.19.83-.39,1.04-.62.21-.22.37-.54.49-.94s.18-1.01.18-1.82c0-1.07-.13-1.75-.39-2.05-.26-.3-.69-.33-1.3-.1l-.58.22Z"/>
        <path d="M552.78,509.85l-2.63,1.01-.37,1.8-2.37.91,2.85-11.15,2.53-.96,2.78,8.97-2.42.93-.37-1.51ZM552.31,507.86l-.82-3.3-.83,3.93,1.65-.63Z"/>
        <path d="M556.36,500.1l3.42-1.3c.67-.26,1.22-.34,1.63-.25.41.09.75.31,1.02.67.27.36.46.82.58,1.38.12.56.18,1.19.18,1.87,0,1.07-.1,1.93-.28,2.59-.18.66-.43,1.25-.76,1.77-.32.52-.67.92-1.04,1.19-.5.38-.96.64-1.37.8l-3.42,1.32.03-10.04ZM558.65,501.5l-.02,5.48.56-.22c.48-.18.82-.39,1.02-.61.2-.22.36-.53.48-.93.12-.4.18-1,.18-1.81,0-1.06-.12-1.74-.38-2.03-.26-.29-.68-.33-1.28-.1l-.57.22Z"/>
        <path d="M564.44,497.03l3.39-1.29c.67-.25,1.21-.34,1.62-.25.41.09.75.31,1.01.67.27.36.46.82.58,1.38.12.56.18,1.18.17,1.86,0,1.07-.1,1.93-.28,2.58-.18.66-.43,1.24-.75,1.76-.32.52-.66.91-1.03,1.19-.5.37-.95.64-1.36.79l-3.39,1.31.04-10ZM566.71,498.43l-.02,5.46.56-.21c.48-.18.82-.39,1.02-.6.2-.22.36-.53.48-.93.12-.4.17-1,.18-1.8,0-1.06-.12-1.73-.37-2.03-.25-.29-.68-.33-1.27-.1l-.57.22Z"/>
        <path d="M571.33,494.41l2.52-.96,1.46,2.8,1.49-3.92,2.5-.95-2.87,6.86-.02,4.16-2.27.87.02-4.17-2.84-4.7Z"/>
      </g>
      <g>
        <path d="M519.77,530.07l5.87-2.28v2.18s-3.49,1.35-3.49,1.35v1.78s2.97-1.16,2.97-1.16v2.05s-2.98,1.16-2.98,1.16v4.15s-2.39.94-2.39.94v-10.18Z"/>
        <path d="M526.92,527.29l2.36-.92v7.64s3.67-1.44,3.67-1.44v2.49s-6.04,2.37-6.04,2.37v-10.15Z"/>
        <path d="M534.03,524.54l6.28-2.44v2.15s-3.93,1.53-3.93,1.53v1.61s3.64-1.42,3.64-1.42v2.06s-3.65,1.42-3.65,1.42v1.99s4.04-1.58,4.04-1.58v2.28s-6.4,2.51-6.4,2.51l.02-10.12Z"/>
        <path d="M541.17,521.77l2.57-1,1.33,2.58,1.3-3.6,2.53-.98-2.35,5.78,2.54,4.18-2.61,1.02-1.48-2.65-1.5,3.82-2.6,1.02,2.61-6.27-2.36-3.91Z"/>
        <path d="M549.86,518.39l4.33-1.68c.72-.28,1.27-.25,1.65.08.38.33.57.85.57,1.55,0,.59-.14,1.15-.42,1.68-.18.35-.45.68-.81.98.54-.04.93.11,1.18.43.25.32.38.8.37,1.44,0,.52-.09,1.02-.27,1.51-.18.48-.43.91-.74,1.27-.19.23-.49.45-.88.67-.52.29-.86.48-1.03.54l-3.99,1.57.03-10.05ZM552.19,521.42l1-.39c.36-.14.61-.32.75-.54.14-.22.21-.49.21-.8,0-.29-.07-.49-.21-.6s-.39-.1-.74.04l-1.02.4v1.9ZM552.18,525.37l1.18-.46c.4-.16.68-.36.84-.61.16-.25.25-.54.25-.86,0-.3-.08-.5-.24-.62-.16-.12-.44-.1-.85.06l-1.17.46v2.03Z"/>
        <path d="M557.97,515.25l6.14-2.38v2.13s-3.85,1.49-3.85,1.49v1.59s3.56-1.39,3.56-1.39v2.04s-3.57,1.39-3.57,1.39v1.97s3.94-1.55,3.94-1.55v2.26s-6.26,2.45-6.26,2.45l.03-10.01Z"/>
        <path d="M569.95,518.9l-2.58,1.01-.37,1.79-2.33.91,2.81-11.06,2.48-.96,2.72,8.87-2.38.93-.36-1.5ZM569.49,516.93l-.8-3.26-.82,3.9,1.62-.63Z"/>
        <path d="M573.47,509.24l2.11-.82,2.73,4.42.02-5.49,2.12-.82-.05,9.91-2.12.83-2.71-4.38-.02,5.45-2.13.84.04-9.94Z"/>
        <path d="M581.53,512.73l2.14-1.02c.04.45.14.78.28.97.23.31.56.38.99.21.32-.13.57-.32.74-.6.17-.27.26-.54.26-.81,0-.26-.08-.45-.24-.59-.16-.14-.55-.18-1.14-.12-.98.08-1.68-.04-2.1-.38-.42-.33-.63-.89-.63-1.66,0-.51.11-1.03.33-1.57.22-.54.55-1.02.98-1.45.44-.43,1.03-.79,1.79-1.08.93-.36,1.63-.4,2.11-.12.48.28.77.92.85,1.9l-2.11.99c-.05-.42-.17-.7-.35-.83-.18-.13-.43-.14-.74-.01-.26.1-.46.25-.59.46-.13.2-.2.41-.2.63,0,.16.05.28.16.36.1.09.36.11.75.07.98-.09,1.68-.07,2.1.05.42.13.73.37.92.73.19.36.28.81.28,1.35,0,.63-.13,1.27-.39,1.9-.26.63-.62,1.18-1.08,1.64-.46.46-1.04.82-1.75,1.1-1.23.48-2.09.5-2.56.03-.47-.46-.74-1.18-.8-2.15Z"/>
      </g>
    </g>
  </g>
  <g>
    <path class="cls-2" d="M591.09,625.72l-74.64,35.23c-3.41,1.61-6.18-.71-6.18-5.17v-52.91c0-4.43,2.76-9.18,6.15-10.61l74.29-31.28c3.01-1.27,5.47,1.06,5.49,5.2l.32,49.42c.03,4.17-2.39,8.71-5.42,10.13Z"/>
    <g>
      <g>
        <path d="M538.8,629.1c-.42.19-.79.5-1.11.91-.32.41-.59.85-.81,1.31-.22.46-.39.86-.5,1.2-.12.35-.18.55-.19.6l-2.46-.36c.01-.12.07-.37.18-.75.11-.39.28-.85.52-1.4.24-.55.55-1.12.93-1.71.39-.59.86-1.15,1.43-1.69.57-.53,1.24-.97,2.01-1.32.89-.4,1.63-.57,2.22-.5.59.07,1.05.3,1.39.69.34.39.58.87.73,1.43.15.57.22,1.14.22,1.72,0,.73-.11,1.48-.32,2.26-.22.78-.5,1.55-.85,2.32-.35.76-.72,1.49-1.12,2.18-.4.69-.78,1.31-1.15,1.85-.37.55-.68.99-.93,1.33-.25.34-.41.54-.46.62l4.74-2.2v3.29s-9.05,4.23-9.05,4.23v-3.02c.09-.14.31-.45.65-.93.34-.48.75-1.07,1.22-1.78.48-.7.97-1.47,1.48-2.28.51-.82.99-1.64,1.43-2.46s.8-1.59,1.08-2.31c.28-.72.42-1.33.42-1.83,0-.79-.15-1.27-.45-1.46-.3-.19-.72-.16-1.26.08Z"/>
        <path d="M544.74,631.85c0-1.45.13-2.78.4-3.99.27-1.21.64-2.28,1.12-3.21.47-.94,1.01-1.72,1.62-2.35.61-.63,1.24-1.1,1.9-1.4.66-.3,1.3-.41,1.9-.33s1.14.37,1.61.88.84,1.23,1.11,2.18c.27.95.41,2.15.41,3.58,0,1.53-.12,2.9-.39,4.11-.26,1.21-.63,2.27-1.09,3.17s-1,1.65-1.6,2.26c-.6.6-1.24,1.06-1.9,1.37-.67.31-1.3.45-1.91.4s-1.15-.29-1.63-.76-.86-1.18-1.13-2.15c-.28-.97-.42-2.23-.42-3.77ZM547.58,630.54c0,1.2.1,2.15.28,2.85.18.7.44,1.16.78,1.39.33.23.73.24,1.19.02.46-.21.85-.59,1.18-1.12.33-.53.58-1.23.75-2.1.18-.87.26-1.9.26-3.08,0-1.12-.1-2.04-.28-2.74-.18-.71-.44-1.19-.76-1.46-.33-.27-.72-.3-1.18-.09s-.85.6-1.18,1.17c-.33.57-.59,1.29-.77,2.17-.18.87-.27,1.87-.26,3Z"/>
        <path d="M560.65,619.14c-.41.19-.77.48-1.08.89-.31.4-.57.83-.78,1.28s-.37.84-.48,1.18c-.11.34-.17.54-.18.59l-2.39-.38c.01-.11.07-.36.17-.74.1-.38.27-.84.5-1.37s.53-1.1.9-1.68c.37-.58.83-1.13,1.38-1.65s1.2-.95,1.94-1.29c.86-.39,1.58-.55,2.15-.47.57.07,1.02.3,1.35.69.33.39.57.86.71,1.41.14.56.22,1.12.22,1.69,0,.71-.1,1.45-.31,2.22-.21.76-.48,1.52-.82,2.27s-.7,1.46-1.08,2.13c-.39.67-.75,1.28-1.11,1.81-.35.53-.65.97-.9,1.3-.25.33-.39.53-.44.6l4.58-2.13v3.24s-8.75,4.09-8.75,4.09v-2.97c.08-.13.29-.44.62-.91.33-.47.72-1.05,1.18-1.74.46-.69.94-1.43,1.43-2.23.49-.8.96-1.6,1.38-2.41.43-.8.77-1.56,1.04-2.27.27-.71.4-1.3.4-1.79,0-.77-.15-1.25-.44-1.44s-.69-.17-1.22.07Z"/>
        <path d="M568.76,624.37c.06.21.13.39.23.56s.22.31.37.41c.15.11.32.16.53.16s.45-.06.73-.19c.57-.26,1-.71,1.31-1.35s.46-1.34.45-2.12c0-.75-.16-1.27-.46-1.56-.3-.29-.7-.32-1.21-.09-.33.15-.61.36-.85.63-.24.27-.43.54-.58.81-.15.28-.25.51-.31.72l-2.26-.08,1.03-9.23,6.75-3.06.02,3.21-4.46,2.03-.36,3.26c.03-.07.13-.21.29-.4s.37-.41.64-.63c.26-.22.56-.41.9-.56.59-.27,1.16-.36,1.71-.25s.99.46,1.35,1.05c.35.6.53,1.49.54,2.7,0,1.2-.18,2.34-.55,3.41-.37,1.07-.89,2-1.55,2.8-.66.79-1.41,1.39-2.27,1.79-.65.3-1.22.46-1.71.48-.49.02-.91-.07-1.26-.25-.35-.19-.63-.43-.85-.74-.22-.31-.38-.64-.5-.98l2.34-2.5Z"/>
      </g>
      <g>
        <path d="M542.59,588.47l5.34-2.28c.89-.38,1.57-.38,2.04,0,.47.38.71,1,.72,1.87,0,.72-.16,1.42-.5,2.08-.22.44-.55.86-.99,1.25.66-.07,1.15.08,1.46.46.31.38.47.96.47,1.74,0,.64-.11,1.25-.33,1.86s-.52,1.14-.9,1.6c-.24.29-.6.58-1.08.87-.64.39-1.06.63-1.27.72l-4.93,2.15-.03-12.33ZM545.49,592.06l1.24-.53c.44-.19.75-.43.93-.7.17-.28.26-.61.26-1,0-.36-.09-.6-.26-.73-.17-.13-.48-.1-.91.09l-1.26.54v2.33ZM545.5,596.9l1.45-.63c.49-.21.84-.48,1.04-.8.2-.32.3-.67.3-1.06,0-.36-.1-.61-.3-.75-.2-.13-.55-.09-1.05.12l-1.45.63v2.49Z"/>
        <path d="M552.7,584.16l2.82-1.2.04,12.2-2.83,1.23-.04-12.23Z"/>
        <path d="M562.12,587.9v-2.53s4.28-1.85,4.28-1.85l.02,5.16c-.82,1.11-1.54,1.94-2.17,2.49-.63.55-1.38,1.01-2.25,1.39-1.07.47-1.95.6-2.63.4-.68-.2-1.21-.7-1.58-1.52-.38-.81-.57-1.85-.57-3.12,0-1.33.2-2.57.6-3.73.4-1.16,1-2.16,1.78-3,.61-.65,1.43-1.2,2.47-1.64s1.74-.62,2.23-.59c.49.03.9.23,1.23.6.33.37.57.91.74,1.62l-2.67,1.79c-.11-.41-.3-.68-.57-.81-.27-.13-.6-.11-1.01.07-.61.26-1.1.76-1.46,1.48-.36.73-.54,1.71-.54,2.95,0,1.32.19,2.18.56,2.58.37.4.88.46,1.54.18.31-.14.61-.33.89-.57s.6-.59.97-1.04v-1.14s-1.86.8-1.86.8Z"/>
      </g>
      <g>
        <path d="M524.02,612.51l4.37-1.92c.86-.38,1.55-.53,2.08-.45.53.07.96.32,1.31.74s.59.98.75,1.67.23,1.46.24,2.31c0,1.33-.11,2.41-.34,3.25-.23.84-.55,1.59-.95,2.27-.41.68-.85,1.21-1.32,1.58-.64.51-1.22.89-1.75,1.12l-4.37,1.96v-12.54ZM526.96,614.05v6.84s.73-.32.73-.32c.61-.27,1.05-.56,1.31-.85.26-.29.46-.7.61-1.21.15-.51.22-1.27.22-2.27,0-1.32-.17-2.16-.5-2.5-.33-.34-.87-.35-1.63-.01l-.73.32Z"/>
        <path d="M539.5,616.08l-3.28,1.47-.45,2.26-2.97,1.33,3.51-14.01,3.15-1.38,3.53,10.82-3.01,1.35-.47-1.84ZM538.89,613.66l-1.04-4-1.01,4.91,2.06-.91Z"/>
        <path d="M543.9,603.79l4.24-1.86c.83-.37,1.51-.51,2.02-.43.51.08.94.32,1.27.74.34.42.58.97.73,1.65.15.68.23,1.44.23,2.28,0,1.31-.1,2.38-.33,3.2-.22.82-.53,1.57-.92,2.23-.4.67-.82,1.18-1.28,1.55-.62.5-1.19.87-1.69,1.1l-4.25,1.9-.03-12.35ZM546.77,605.33l.02,6.73.7-.31c.6-.27,1.02-.54,1.27-.83.25-.29.45-.68.59-1.19.14-.5.21-1.24.21-2.23,0-1.3-.17-2.12-.48-2.46s-.85-.35-1.59-.02l-.71.31Z"/>
        <path d="M553.9,599.41l4.18-1.83c.82-.36,1.48-.5,1.99-.42.5.08.92.32,1.25.74s.57.96.72,1.64c.15.68.23,1.43.23,2.26,0,1.3-.1,2.36-.32,3.17-.22.81-.52,1.55-.91,2.21-.39.66-.81,1.17-1.26,1.53-.61.5-1.17.86-1.67,1.08l-4.18,1.87-.04-12.25ZM556.72,600.94l.02,6.68.69-.31c.59-.26,1-.53,1.25-.82.25-.28.44-.68.58-1.17.14-.5.21-1.23.2-2.21,0-1.29-.16-2.11-.48-2.45s-.84-.35-1.56-.03l-.7.31Z"/>
        <path d="M562.37,595.69l3.09-1.35,1.82,3.29,1.79-4.88,3.04-1.33-3.43,8.55.02,5.07-2.77,1.24-.02-5.08-3.53-5.51Z"/>
        <path d="M572.5,591.04l2.63-1.15v2.75c.02,1.01-.13,1.88-.44,2.61-.31.73-.83,1.48-1.58,2.25l-.58-1.21c.47-.5.79-.94.96-1.31.17-.37.27-.76.29-1.17l-1.26.55-.02-3.32Z"/>
        <path d="M575.98,597.79l2.59-1.37c.06.55.18.94.35,1.16.28.36.68.43,1.2.19.39-.17.68-.43.89-.77.21-.34.31-.68.31-1s-.1-.54-.3-.7-.66-.18-1.39-.08c-1.19.16-2.05.05-2.56-.33-.52-.38-.78-1.04-.78-1.98,0-.62.13-1.26.39-1.92.26-.67.65-1.27,1.18-1.82.52-.54,1.24-1.02,2.16-1.42,1.12-.49,1.97-.58,2.56-.27.59.31.94,1.06,1.06,2.25l-2.55,1.33c-.07-.51-.22-.84-.43-.99-.22-.15-.52-.14-.9.03-.32.14-.55.33-.71.59-.16.25-.24.51-.24.77,0,.19.07.33.2.43.13.1.43.12.91.04,1.19-.17,2.03-.2,2.55-.07.51.13.89.41,1.12.83.23.42.35.96.36,1.62,0,.77-.15,1.54-.45,2.33-.31.79-.74,1.47-1.29,2.06-.56.59-1.26,1.07-2.11,1.45-1.5.67-2.53.74-3.12.21s-.91-1.39-1-2.57Z"/>
      </g>
    </g>
  </g>
  <g>
    <path class="cls-2" d="M590.95,544.57l-74.71,29.61c-3.33,1.32-6.04-1.22-6.04-5.67v-52.94c0-4.45,2.71-9.05,6.04-10.27l74.71-27.32c3.1-1.13,5.61,1.42,5.61,5.7v50.91c0,4.28-2.51,8.74-5.61,9.97Z"/>
    <g>
      <g>
        <path d="M538.5,535.3c-.42.16-.79.44-1.11.83-.32.39-.59.81-.81,1.25s-.38.83-.5,1.17c-.11.34-.18.54-.19.59l-2.44-.56c.01-.12.07-.36.18-.74.11-.38.28-.84.51-1.37s.54-1.08.93-1.65.86-1.09,1.42-1.59c.56-.49,1.23-.88,2-1.18.89-.34,1.62-.45,2.2-.33.58.12,1.04.39,1.38.81.34.42.58.92.72,1.5.14.58.22,1.17.22,1.76,0,.73-.11,1.48-.33,2.25-.22.77-.5,1.52-.85,2.27-.35.74-.72,1.44-1.12,2.1-.4.66-.78,1.25-1.14,1.77-.36.52-.67.94-.93,1.26-.25.32-.4.51-.45.59l4.71-1.82v3.32s-8.99,3.5-8.99,3.5v-3.04c.09-.13.31-.42.65-.88.34-.45.74-1.02,1.21-1.69.47-.67.96-1.39,1.47-2.18.51-.78.98-1.57,1.42-2.36.44-.79.8-1.54,1.08-2.24.28-.7.42-1.31.42-1.81,0-.79-.15-1.3-.44-1.51-.29-.22-.71-.22-1.25-.02Z"/>
        <path d="M544.4,538.54c0-1.46.14-2.79.41-3.99.27-1.2.65-2.25,1.12-3.16.47-.91,1.01-1.66,1.62-2.25.61-.59,1.24-1.01,1.9-1.27s1.3-.31,1.9-.18c.6.13,1.14.47,1.61,1.01.47.55.84,1.31,1.1,2.3.27.99.4,2.21.4,3.66,0,1.55-.13,2.93-.4,4.13-.27,1.2-.64,2.24-1.1,3.12s-1,1.59-1.61,2.15-1.24.97-1.9,1.23c-.66.26-1.3.34-1.9.25s-1.15-.39-1.62-.9-.85-1.26-1.12-2.26c-.27-1-.41-2.28-.41-3.84ZM547.22,537.45c0,1.22.09,2.18.27,2.9.18.72.44,1.21.77,1.47.33.26.73.3,1.18.12.46-.18.85-.52,1.18-1.04.33-.51.58-1.2.76-2.06s.27-1.9.27-3.1c0-1.14-.09-2.07-.27-2.8s-.43-1.24-.76-1.54c-.33-.3-.72-.36-1.18-.18s-.85.54-1.18,1.09c-.33.55-.59,1.26-.77,2.13-.18.87-.27,1.87-.27,3.01Z"/>
        <path d="M560.35,526.93c-.41.16-.77.43-1.09.81-.31.39-.58.8-.79,1.24-.21.44-.38.82-.49,1.16-.11.33-.17.53-.19.59l-2.39-.57c.01-.12.07-.36.18-.73.11-.38.27-.83.5-1.36.23-.53.53-1.07.91-1.63.38-.56.84-1.08,1.39-1.57.55-.49,1.2-.87,1.96-1.16.87-.33,1.59-.44,2.16-.32.57.12,1.02.39,1.36.8.33.42.57.91.71,1.49.14.58.21,1.16.21,1.74,0,.73-.11,1.47-.32,2.23-.21.76-.49,1.51-.83,2.24-.34.73-.71,1.43-1.09,2.08-.39.65-.76,1.24-1.12,1.75-.36.51-.66.93-.91,1.24-.25.32-.4.51-.45.58l4.62-1.79v3.29l-8.81,3.43v-3.01c.09-.13.31-.42.64-.87.33-.45.73-1,1.19-1.67.46-.66.94-1.38,1.44-2.15.5-.77.96-1.55,1.4-2.33.43-.78.78-1.52,1.06-2.22.27-.69.41-1.29.41-1.79,0-.78-.14-1.28-.43-1.5s-.7-.22-1.22-.02Z"/>
        <path d="M573.56,518.98v9.84s1.41-.54,1.41-.54v3.29s-1.41.54-1.41.54v3.5s-2.74,1.07-2.74,1.07v-3.51l-5.02,1.95v-3s4.61-11.93,4.61-11.93l3.16-1.2ZM570.82,529.87v-5.02s-.02,0-.02,0l-2.22,5.88,2.24-.87Z"/>
      </g>
      <g>
        <path d="M519.55,520.22l5.89-2.2v2.22s-3.49,1.31-3.49,1.31v1.8s2.99-1.12,2.99-1.12v2.08s-2.99,1.12-2.99,1.12v4.22s-2.4.91-2.4.91v-10.34Z"/>
        <path d="M526.73,517.55l2.37-.88v7.76s3.69-1.39,3.69-1.39v2.53s-6.06,2.29-6.06,2.29v-10.31Z"/>
        <path d="M533.86,514.89l6.3-2.35v2.19s-3.94,1.47-3.94,1.47v1.63s3.66-1.37,3.66-1.37v2.09s-3.66,1.37-3.66,1.37v2.02s4.06-1.53,4.06-1.53v2.32s-6.42,2.42-6.42,2.42v-10.27Z"/>
        <path d="M541.02,512.22l2.58-.96,1.34,2.65,1.3-3.63,2.54-.95-2.35,5.82,2.57,4.3-2.62.99-1.49-2.72-1.49,3.85-2.62.99,2.61-6.32-2.38-4.01Z"/>
        <path d="M549.75,508.96l4.34-1.62c.72-.27,1.28-.23,1.66.11.39.34.58.87.58,1.59,0,.6-.14,1.17-.41,1.7-.18.36-.45.68-.81.98.54-.03.93.13,1.19.46.25.33.38.82.38,1.47,0,.53-.09,1.04-.27,1.52s-.43.91-.74,1.28c-.19.23-.49.45-.88.66-.52.29-.87.47-1.04.53l-4.01,1.51v-10.2ZM552.1,512.08l1.01-.38c.36-.14.61-.31.75-.54.14-.22.21-.49.21-.81,0-.3-.07-.5-.21-.61s-.39-.11-.74.03l-1.02.38v1.93ZM552.1,516.09l1.18-.45c.4-.15.68-.35.84-.61.16-.25.25-.54.25-.87,0-.3-.08-.51-.24-.63s-.45-.11-.85.05l-1.18.44v2.06Z"/>
        <path d="M557.89,505.93l6.17-2.3v2.16s-3.86,1.44-3.86,1.44v1.61l3.58-1.34v2.07s-3.58,1.34-3.58,1.34v2s3.97-1.49,3.97-1.49v2.29s-6.28,2.37-6.28,2.37v-10.16Z"/>
        <path d="M569.96,509.86l-2.6.98-.36,1.81-2.34.88,2.79-11.17,2.49-.93,2.77,9.06-2.39.9-.37-1.53ZM569.48,507.86l-.82-3.33-.81,3.94,1.62-.61Z"/>
        <path d="M573.45,500.12l2.12-.79,2.76,4.54v-5.57s2.13-.8,2.13-.8v10.06l-2.13.81-2.75-4.5v5.53s-2.14.81-2.14.81v-10.09Z"/>
        <path d="M581.58,503.82l2.15-.99c.05.46.14.79.28.99.23.32.56.4.99.23.32-.12.57-.32.74-.59.17-.27.26-.55.26-.82s-.08-.46-.25-.6-.55-.19-1.15-.15c-.99.07-1.69-.08-2.12-.43-.43-.35-.64-.91-.64-1.7,0-.52.11-1.04.33-1.59.22-.54.54-1.02.98-1.45.44-.42,1.03-.78,1.79-1.06.93-.35,1.64-.37,2.13-.08.49.29.78.94.87,1.95l-2.12.96c-.06-.43-.17-.71-.36-.85s-.43-.15-.75-.03c-.26.1-.46.25-.59.45-.13.2-.2.41-.2.63,0,.16.05.28.16.37.11.09.36.12.76.09.98-.08,1.69-.04,2.11.09.42.14.73.39.93.76.19.37.29.83.29,1.37,0,.64-.13,1.28-.39,1.92-.26.64-.62,1.19-1.08,1.64-.46.45-1.05.82-1.75,1.08-1.24.47-2.1.46-2.58-.01s-.75-1.21-.81-2.2Z"/>
      </g>
    </g>
  </g>
</svg>