<?xml version="1.0" encoding="UTF-8"?>
<svg id="Layer_1" data-name="Layer 1" xmlns="http://www.w3.org/2000/svg" viewBox="0 0 1080 1080">
  <defs>
    <style>
      .cls-1 {
        fill: #f4f4f4;
      }

      .cls-2 {
        fill: #9cff00;
      }

      .cls-3 {
        fill: #fff;
      }
    </style>
  </defs>
  <rect class="cls-1" width="1080" height="1080"/>
  <g>
    <path d="M636.51,586.57l-394.12-27.55c-1.5-.42-3.94-5.02.3-4.96l303.79,21.35,93.14,7.07c4.62.56.74,3.62-3.11,4.09Z"/>
    <path class="cls-2" d="M902.51,183.6c-.79-10.59-12.14-16.65-21.94-20.74-14.9-6.22-34.77-10.05-49.28-12.84-55.56-10.7-112.26-13.93-167.09-17.05-4.49-.25-8.99-.51-13.48-.77-.1,0-.18,0-.27,0l-118.74-3.19h-.45c-12.37.31-24.99.59-37.19.86-66.32,1.44-134.9,2.93-201.73,11.22-40.13,4.98-91.39,13.95-107.72,28.5-6.63,5.9-7.5,11.77-7.08,15.66,1.14,10.34,11.96,16.39,20.67,21.24,2.54,1.42,5.42,3.03,6.55,3.99,9.88,8.41,16.54,39.07,20.95,59.35,1.57,7.25,2.93,13.51,4.32,18.58,17.98,65.74,46.62,109.9,87.54,135.01,21.2,12.99,44.37,20.51,66.48,26.54-.25,1.29-.72,2.87-.96,3.72-1.5,5.11-6.64,10.1-12.08,15.39-5.41,5.25-11,10.69-14.87,17.71-.94,1.7-1.54,3.44-2.07,4.97-.2.56-.46,1.33-.69,1.88-2.58,1.14-8.84,3.03-11.37,3.79-1.37.42-2.56.77-3.41,1.05-15.6,5.06-31.74,9.7-47.33,14.19-16.06,4.62-32.66,9.4-48.86,14.67-.32.1-.64.23-.95.37-3.51,1.62-10.74,7.63-14.74,11.07-11.62,9.99-12.69,12.61-13.32,14.17-.42,1.03-.63,2.13-.64,3.25l-.63,244.81c-1.09.6-2.3,1.27-3.43,2.12-5.51,4.16-12.69,9.73-19.28,15.96-.85.81-1.53,1.78-2,2.86-2.46,5.68-1.56,31.73-1.2,34.32,1.75,12.49,12.79,14.41,18.1,15.35,1.31.23,2.56.44,3.56.72.29.08.57.15.86.2,69.57,11.96,140.23,24.72,208.55,37.07,62.8,11.35,127.74,23.09,191.7,34.17,3.86.67,8.16,1.55,12.72,2.48,9.98,2.04,20.29,4.14,28.9,4.7.87.05,1.73.08,2.56.08,10.7,0,17.49-4.46,24.06-8.78,1.27-.83,2.58-1.69,3.94-2.54,27.44-17.05,54.81-35.17,81.28-52.7,34.13-22.62,69.43-45.99,105.12-67.18.22-.13.43-.27.63-.42.91-.66,5.53-4.19,6.83-9.26,1.02-4.07,1.03-26.8-.31-31.06-1.62-5.16-6.57-8.48-12.31-12.33-1.62-1.09-4.04-2.72-5.56-3.94l-.4-229.83c.11-7.79-4.61-12.54-7.74-15.69l-.43-.43c-.15-.16-15.29-15.16-24.1-16.79-.26-.05-.52-.09-.78-.11-12.52-1.16-25.24-1.9-37.54-2.62-13.5-.78-27.47-1.6-41.03-2.97-.69-.07-1.55-.16-2.54-.24-10.06-.97-16.78-1.84-20.07-2.59-.29-1.16-.69-2.59-1.45-4.09-3.63-7.13-9.25-11.99-14.21-16.28-3.2-2.77-6.23-5.38-8.38-8.28-3.39-4.58-5.95-10.85-6.06-13.54,3.56-1.52,10.09-2.97,15.9-4.26,5.45-1.21,10.59-2.35,14.8-3.78,32.16-10.9,58.11-30.27,79.32-59.23,16.62-22.69,30.34-51.65,41.93-88.53,1.87-5.94,3.87-14.21,6-22.96,4.32-17.76,10.85-44.57,17.37-52.47,2.34-2.82,8.19-6.36,13.35-9.48,11.08-6.7,22.54-13.62,21.7-25.01ZM860.76,212.56c-11.06,13.38-18.93,59.14-24.96,78.36-19.49,62-50.34,119.99-115.76,142.14-9.06,3.07-25.46,5.22-32.74,8.94-8.86,4.52-.16,20.52,3.92,26.02,6.36,8.58,16.82,13.52,21.81,23.33,1.34,2.63.75,6.03,3.79,7.51,4.42,2.14,21.34,3.53,27.14,4.12,26.1,2.65,52.5,3.16,78.63,5.6,4.45.82,15.99,10.79,19.5,14.35,2.81,2.85,5.76,5.56,5.67,9.97l.41,233.17c2.78,5.05,16.87,11.19,18.26,15.6.81,2.55.87,23.58.17,26.32-.38,1.51-2.17,3.41-3.47,4.34-63.57,37.74-123.81,81.01-186.54,119.97-8.79,5.45-14.28,10.65-25.43,9.95-11.85-.76-28.4-4.94-40.69-7.07-133.52-23.14-266.7-48.29-400.25-71.25-6.32-1.76-14.27-.89-15.4-8.93-.55-3.91-.57-27,.57-29.65,5.78-5.48,12.18-10.55,18.53-15.33,2.06-1.55,6.45-3.06,6.87-5.29l.66-248.56c1.27-3.13,20-18.93,23.65-20.62,31.81-10.36,64.38-18.55,96.18-28.86,3.88-1.26,15.35-4.39,17.89-6.42,2.43-1.95,2.98-6.46,4.57-9.33,7.28-13.18,23.81-21.66,27.67-34.84,1.34-4.54,3.26-11.23-1.94-13.69-23.36-6.27-46.66-13.73-67.36-26.42-46.45-28.48-69.81-79.09-83.71-129.89-5.71-20.88-12.24-68.82-28.02-82.25-7.35-6.26-34.65-14.73-19.99-27.79,16.45-14.66,79.86-23.5,103.01-26.37,78.7-9.76,158.91-10.01,238.07-12.01l118.74,3.18c60.28,3.48,120.01,6.23,179.43,17.68,14.83,2.86,33.79,6.57,47.58,12.33,40.92,17.08-5.11,27.96-16.46,41.69Z"/>
    <path d="M687.3,442.01c7.28-3.73,23.68-5.88,32.74-8.94,65.42-22.16,96.27-80.15,115.76-142.14,6.04-19.22,13.9-64.98,24.96-78.36,11.35-13.73,57.39-24.61,16.46-41.69-13.8-5.76-32.75-9.47-47.58-12.33-59.42-11.44-119.15-14.2-179.43-17.68l-118.74-3.18c-79.16,2-159.37,2.25-238.07,12.01-23.15,2.87-86.55,11.71-103.01,26.37-14.67,13.06,12.63,21.53,19.99,27.79,15.78,13.42,22.32,61.36,28.02,82.25,13.9,50.81,37.27,101.41,83.71,129.89,20.7,12.7,44.01,20.15,67.36,26.42,5.19,2.47,3.27,9.15,1.94,13.69-3.86,13.17-20.4,21.66-27.67,34.84-1.59,2.87-2.14,7.39-4.57,9.33-2.54,2.02-14.01,5.16-17.89,6.42-31.81,10.32-64.38,18.5-96.18,28.86-3.66,1.69-22.39,17.49-23.65,20.62l-.66,248.56c-.42,2.23-4.81,3.73-6.87,5.29-6.35,4.78-12.75,9.86-18.53,15.33-1.15,2.65-1.12,25.75-.57,29.65,1.13,8.04,9.07,7.16,15.4,8.93,133.56,22.96,266.73,48.11,400.25,71.25,12.29,2.13,28.84,6.31,40.69,7.07,11.15.7,16.65-4.5,25.43-9.95,62.73-38.95,122.97-82.23,186.54-119.97,1.3-.93,3.09-2.83,3.47-4.34.69-2.74.63-23.77-.17-26.32-1.39-4.4-15.48-10.54-18.26-15.6l-.41-233.17c.09-4.41-2.86-7.12-5.67-9.97-3.52-3.56-15.05-13.53-19.5-14.35-26.13-2.44-52.52-2.95-78.63-5.6-5.8-.59-22.72-1.98-27.14-4.12-3.04-1.48-2.45-4.88-3.79-7.51-4.99-9.81-15.46-14.75-21.81-23.33-4.08-5.51-12.77-21.5-3.92-26.02ZM507.57,658.89c-2.03,32.15-3.28,68.06-7.94,99.74-3.18,21.62-19.57,29.3-38.52,36.17-7.76,2.81-33.63,10.46-40.75,9.51-3.9-.53-21.94-10.05-26.58-12.55-21.9-11.79-47.4-27.12-51.1-53.97-3.47-25.22-4.14-52.52-5.32-78.03-.53-11.32-3.07-29.27-1.77-39.99.18-1.45.99-3.51,2.05-4.46,3.13-2.81,18.83-4.39,23.57-4.65,41.96-2.3,90.04,2.36,130.74,12.62,4.86,1.22,13.9,3.17,16.53,7.78,2.42,4.25-.53,21.88-.9,27.84ZM636.51,586.57l-394.12-27.55c-1.5-.42-3.94-5.02.3-4.96l303.79,21.35,93.14,7.07c4.62.56.74,3.62-3.11,4.09Z"/>
    <path d="M636.51,586.57l-394.12-27.55c-1.5-.42-3.94-5.02.3-4.96l303.79,21.35,93.14,7.07c4.62.56.74,3.62-3.11,4.09Z"/>
    <path class="cls-2" d="M622.68,867.63l-90.33-13.55-294.74-42.51c-4.13-.36-2.35,3.17-.66,4.92l382.39,55c3.79-.2,7.8-2.98,3.34-3.86Z"/>
    <path class="cls-2" d="M626.82,896.6l-94.3-14.73-307.7-46.36c-4.31-.41-2.38,4.27-.69,4.92l399.2,59.99c3.96-.15,8.15-2.88,3.49-3.82Z"/>
    <path class="cls-2" d="M646.44,876.92c-.27.13-.41.44-.33.73l1.87,6.46,6.17,18.89c.23.21,3.05-.7,3.12-1.03l-8.1-24.48c-.5-.08-1.1-1.36-2.73-.58Z"/>
    <path class="cls-2" d="M640.92,598l-.53,63.32-.05,206.43c.23,2.87,3.56,1.57,4.55-1.51l.34-266.32c-.74-2.58-4.06-5.06-4.3-1.91Z"/>
    <path class="cls-2" d="M636.51,586.57l-394.12-27.55c-1.5-.42-3.94-5.02.3-4.96l303.79,21.35,93.14,7.07c4.62.56.74,3.62-3.11,4.09Z"/>
    <path class="cls-2" d="M656.69,587.94l40.16-15.79,131.52-49.92c1.91-.47,1.48,3.78,1.74,4.65l-170.68,64.62c-1.91-.07-4.66-2.57-2.74-3.56Z"/>
    <path class="cls-1" d="M678.18,239.91c7.65,2.22,5.45,40.92,4.67,48.08-6.23,57.33-35.48,116.55-100.62,117.76-.07-.96-.06-1.88.21-2.83.77-2.7,9.83-14.96,12.1-19.16,17.93-33.22,27.51-90.3,24.15-127.78-.53-5.9-3.34-10.46-4.33-16.08h63.82Z"/>
    <path class="cls-1" d="M724.63,162.64c.2,1.51-1.97.82-3.03.86-10.69.43-22.3.2-33.05.04-118.64-1.8-244.06-5.81-362.05,6.91-2.08.22-11.45,1.03-11.76,2.31l4.33,30.62-34.56-2.67c-1.24-.75-1.58-17.56-4.69-20.49-1.85-1.74-11.04-1.2-13.99-.98-5.45.41-34.66,5.51-37.08,8.94-1.72,2.43.34,5.6-2.09,7.42-37.94-13.31,9.72-22.01,23.84-24.75,50.93-9.88,105.77-12.09,157.62-14.3,100.3-4.29,201.17-3.92,301.31,4.36,5.03.42,10.18,1.26,15.2,1.74Z"/>
    <path class="cls-2" d="M746.94,747.12c2.4-.23,2.77,3.77,2.92,5.5,1.03,11.47,1.29,38.37-.02,49.56-.37,3.17-1.87,5.15-4.63,6.66-22.03,10.81-42.92,24.04-64.84,35.02-6.41,3.21-10.5,7.57-11.34-2.59-1.06-12.85-.95-34.91,0-47.83.18-2.47.54-6.5,1.87-8.55,1.6-2.47,12.22-7.15,15.51-8.8,19.98-10,40.51-19.01,60.53-28.96Z"/>
    <path class="cls-2" d="M748.84,589.09c.71,1.46.9,3.02,1.02,4.63.93,13.19,1.2,36.59,0,49.57-.33,3.56-.99,5.23-4.17,7.12-7.34,4.36-22.01,9.14-30.63,12.78-13.9,5.87-28.04,11.17-41.85,17.26-3.03,1.55-3.88-1.77-4.16-4.19-1.37-11.96-.92-37.18-.02-49.55.23-3.17.57-6.27,2.21-9.08l77.6-28.55Z"/>
    <path class="cls-2" d="M670.15,763.3c-.98-1.02-1-3.14-1.12-4.53-1.11-12.89-1.13-37.56,0-50.44.23-2.64.77-5.08,2.24-7.32l74.23-32.65c2.89-1.03,4.03.9,4.37,3.49,1.41,10.8.81,36.43,0,47.84-.19,2.71-.36,5.39-1.73,7.82l-75.9,36.64c-.7-.16-1.59-.35-2.08-.86Z"/>
    <path class="cls-2" d="M830.3,630.8l2.08,1.09c.72.75.72,1.68.85,2.63,1.24,9.23,1.09,39.26-.02,48.69-.76,6.47-9.19,8.94-14.47,11.58-14.24,7.12-29.53,14.53-44.01,21.12-1.87.85-10.86,5.2-11.87,4.68-2.15-1.71-2.42-3.56-2.65-6.1-1.06-11.43-.96-33.72.01-45.23.19-2.22.83-6.55,2.22-8.2l67.86-30.28Z"/>
    <path class="cls-2" d="M832.28,707.09c.49,1.56.82,3.05.94,4.72.89,12.28,1.08,33.97,0,46.1-.16,1.74-.15,3.28-1.36,4.72-17.04,9.64-34.22,19.31-51.63,28.26-3.53,1.81-12.58,7.11-15.64,7.86-3.86.95-4.11-2.07-4.39-5.23-1.04-11.5-.97-33.67.01-45.22.42-4.97,1.13-7.46,5.5-10.13,9.31-5.69,24.67-12.08,35.03-17.07,3.77-1.81,30.12-14.98,31.54-13.99Z"/>
    <path class="cls-2" d="M831.43,556.85c.68,2.58,1.55,4.58,1.79,7.35.9,10.55,1.17,34.07-.02,44.34-.49,4.22-2.13,4.89-5.5,6.65-15.86,8.28-40.88,18.24-57.93,24.56-11.87,4.4-8.57.22-8.62-9.49-.06-13-1.49-31.14-.05-43.47.17-1.42.34-2.75,1.35-3.86l68.99-26.08Z"/>
    <path class="cls-2" d="M826.23,230.37c-8.49,46.53-16.73,98-49.04,134.6-16.01,18.13-37.48,32.13-60.36,39.92,10.73-9.32,21.17-17.22,30.37-28.24,34.36-41.13,39.08-91.92,48.74-142.72,10.25,1.5,20.18-2.45,30.29-3.56Z"/>
    <path class="cls-2" d="M414.44,238.38c4.37,11.02,2.08,23.41,2.77,35,.77,12.8,2.95,25.6,6.36,37.92,1.01,3.66,8.51,23.27,7.21,25.04l-1.81.82c-8.48-1.39-29,.13-35.21-5.59-6.36-5.86-11.45-30.33-12.86-39.24-2.21-13.92-3.99-31.85-4.45-45.91-.54-16.6,5.29-10.92,17.8-9.99,3.47.26,18.57.32,20.2,1.95Z"/>
    <path class="cls-3" d="M479.06,609.23c-39.61-7.91-79.64-11.9-120.17-9.57-12.58.72-31.85,1.2-33.69,17.54-1.36,12.14.27,32.31.89,45.14,1.15,24.22,2.82,52.44,6.17,76.31,4.35,30.96,29.04,48.06,54.57,61.78,5.5,2.95,26.49,14.03,31.19,14.69,4.11.57,14.6-1.67,19.22-2.54,28.58-5.37,66.41-16.83,72.68-49.75,3.71-19.45,4.82-45.58,6.31-65.77,1.46-19.8,3.07-40.14,3.53-59.88.51-22.76-23.63-24.56-40.7-27.97ZM509.29,725.74c-3.33,35.51-1.97,58.68-39.73,73.16-9.54,3.66-42.94,13.12-51.68,11.31-5.57-1.15-24.96-11.66-31.04-14.98-24.86-13.55-46.28-28.93-50.33-59.07-5.23-38.89-5.16-79.66-6.89-118.87,1.88-13.09,22.59-12.76,32.74-13.28,41.37-2.15,95.02,2.71,134.96,13.88,9.99,2.8,18.13,6.42,18.11,18.43-.02,27.69-3.53,61.44-6.15,89.43Z"/>
    <path class="cls-2" d="M511.9,468.29c-3.43,5.59-5.69,17.8-2.13,23.4,2.21,3.48,7.22,4.11,8.21,7.84-7.56,1.69-15.25,1.27-23,.86-14.62-.76-31.34-2.58-45.92-4.44-8.86-1.13-17.76-2.82-26.57-4.26-2.35-2.8,8.11-9.61,9.98-12.1s3.76-6.2,3.82-9.23c.06-2.77-4.13-8.97-1.12-9.82,18.61,3.12,37.41,5.85,56.29,6.92,6.81.39,13.77-.86,20.44.84Z"/>
    <path class="cls-2" d="M822.75,206.06c-.17,1.3-3.04,1.99-4.15,2.35-32.08,10.58-84.35,11.09-118.75,12.36-56.44,2.09-112.94,2.65-169.3-.82-6.56-.4-13.05.45-19.53-1.76.33-1.58,1.71-1.61,3.01-1.76,9.82-1.1,22.76.27,33.06.07,72.88-1.46,146.01-1.48,218.77-6.12,18.94-1.21,37.91-3.97,56.88-4.32Z"/>
    <path class="cls-2" d="M498.67,549.7c-2,.73-4.15,1.13-6.3,1.14-24.25.04-81.93-7.34-103.51-17.27-1.37-.63-9.36-4.89-7.21-7.11,8.46,1.4,17.56,9.5,26.04,4.57.65-3.02.39-14.03,4.61-13.96,20.87,7.74,43.17,11.43,65.3,13.72,4.14.43,16.74-.48,19.52,2.19,2.43,4.99,3.58,11.38,1.55,16.72Z"/>
    <path class="cls-1" d="M637.81,508.23c-2.69,2.55-8.3,4-11.98,4.95-34.55,8.94-87.09,9.41-123.08,8.11-21.98-.8-90.32-6.98-105.88-20.9-1.06-.95-2.47-1.77-2.19-3.45,1.2-1.03,25.51,5.73,29.49,6.54,69.15,14.14,135.02,8.27,204.53,4.75,3.03-.15,6.09.07,9.11,0Z"/>
    <path class="cls-1" d="M356.46,400.55c-35.8-14.67-62.2-48.16-75.56-83.77-9.19-24.5-12.21-48.29-17.62-73.55-1.13-5.3-4.51-14.01-4.91-18.6-.47-5.38,2.84-4.08,5.56-1.15,8.06,8.66,16.39,57.69,21.09,72.68,10.49,33.42,29.25,66.98,55.79,90.09,1.8,1.57,17.67,12.27,15.64,14.31Z"/>
    <path class="cls-2" d="M447.63,338.9c-2.75,2.31-7.68-8.25-8.55-10.11-10.65-22.62-9.97-48.42-11.42-72.81-.26-4.41-1.72-10.57-1.77-14.81-.05-4.81,8.59-2.71,10.83-1.2,1.42.95,2.49,4.94,2.88,6.67,3.2,14.21,2.06,35.52,3.7,51,1.16,10.93,5.13,25.48,5.24,35.65.02,1.99-.84,3.68-.91,5.61Z"/>
    <path class="cls-1" d="M610.02,443.11c-1.22,2.23-5.28,2.73-7.64,3.21-12.31,2.51-26.32,2.29-38.85,2.83-36.59,1.57-73.71,1.26-110.23-2.58-10.86-1.14-22.2-2.43-32.57-5.63.99-1.45,2.37-1.24,3.86-1.35,7.26-.55,16.98-.23,24.39.01,27.13.88,54.4,3.88,81.55,4.41,26.58.52,53-.75,79.49-.9Z"/>
    <path class="cls-2" d="M586.58,490.85c.72-3.36,4.26-4.57,5.4-8.04,1.74-5.29-.6-9-4.07-12.83-1.59-1.75-4.92-2.41-4.8-5.17l25.6-2.67c5.17-.52,9.04,9.71,9.17,13.54.47,13.95-21.33,15.41-31.29,15.16Z"/>
    <path class="cls-2" d="M640.43,459.64c3.76-.78,14.28-4.07,17.35-2.21.8.48,6.07,13.05,8.31,15.99,3.14,4.13,7.44,7.13,11.63,10.06-10.45,4.84-25.05,1.34-31.41-8.51-1.23-1.9-6.72-14.17-5.89-15.33Z"/>
    <path class="cls-1" d="M674.36,538.54c-1.49-1.04-1.34-17.42-.16-20.19.86-1.33,15-5.59,17.5-4.54,1.13.81,2.31,15.52,1.25,17.86-.96,2-17.16,7.86-18.59,6.87Z"/>
    <path class="cls-1" d="M646.49,524.72v19.54c-2.24,2.96-16.21,4.11-18.29,2.66l-1.28-17.89,19.57-4.3Z"/>
    <path class="cls-3" d="M368.62,563.8l.8.27c-.26-.02-.51-.03-.77-.05l-.03-.22Z"/>
    <path class="cls-1" d="M663.86,503.02c6.48.27,13.47-4.7,19.06-5.72,1.08-.2,2.37-.32,2.64.95.74,3.5-19.26,11.17-21.7,4.77Z"/>
    <path class="cls-2" d="M656.7,442.43c1.02-.09,2.82.07,2.8,1.1-.04,1.97-13.58,6.75-15.59,3.47.01-1,11.21-4.43,12.8-4.58Z"/>
    <path d="M497.32,617.88c-39.93-11.18-93.59-16.04-134.96-13.88-10.15.52-30.87.18-32.74,13.28,1.73,39.21,1.66,79.98,6.89,118.87,4.05,30.14,25.47,45.53,50.33,59.07,6.09,3.32,25.48,13.82,31.04,14.98,8.74,1.81,42.14-7.65,51.68-11.31,37.75-14.47,36.4-37.65,39.73-73.16,2.61-27.99,6.13-61.74,6.15-89.43.02-12.01-8.12-15.63-18.11-18.43ZM507.57,658.89c-2.03,32.15-3.28,68.06-7.94,99.74-3.18,21.62-19.57,29.3-38.52,36.17-7.76,2.81-33.63,10.46-40.75,9.51-3.9-.53-21.94-10.05-26.58-12.55-21.9-11.79-47.4-27.12-51.1-53.97-3.47-25.22-4.14-52.52-5.32-78.03-.53-11.32-3.07-29.27-1.77-39.99.18-1.45.99-3.51,2.05-4.46,3.13-2.81,18.83-4.39,23.57-4.65,41.96-2.3,90.04,2.36,130.74,12.62,4.86,1.22,13.9,3.17,16.53,7.78,2.42,4.25-.53,21.88-.9,27.84Z"/>
    <path class="cls-2" d="M507.57,658.89c-2.03,32.15-3.28,68.06-7.94,99.74-3.18,21.62-19.57,29.3-38.52,36.17-7.76,2.81-33.63,10.46-40.75,9.51-3.9-.53-21.94-10.05-26.58-12.55-21.9-11.79-47.4-27.12-51.1-53.97-3.47-25.22-4.14-52.52-5.32-78.03-.53-11.32-3.07-29.27-1.77-39.99.18-1.45.99-3.51,2.05-4.46,3.13-2.81,18.83-4.39,23.57-4.65,41.96-2.3,90.04,2.36,130.74,12.62,4.86,1.22,13.9,3.17,16.53,7.78,2.42,4.25-.53,21.88-.9,27.84Z"/>
    <path d="M705.32,661.09l-7.47,2.99c.05-1.38.27-2.76.68-4.12.4-1.36,1.18-3.1,2.33-5.2.7-1.29,1.15-2.23,1.34-2.83.19-.6.28-1.13.27-1.59-.01-.5-.13-.89-.34-1.16-.21-.28-.47-.35-.78-.23-.32.13-.57.41-.77.86-.19.45-.31,1.15-.35,2.1l-2.51.63c.06-1.33.21-2.4.46-3.23.24-.83.6-1.53,1.06-2.1.47-.58,1.12-1.03,1.96-1.37.88-.35,1.57-.44,2.07-.26.5.17.9.58,1.2,1.23.3.65.46,1.44.49,2.39.03,1-.11,2.02-.4,3.06-.3,1.04-.85,2.27-1.67,3.7-.48.84-.81,1.41-.97,1.73-.16.32-.35.73-.57,1.24l3.89-1.55.1,3.72Z"/>
    <path d="M706.16,652.39c-.08-3.13.17-5.44.75-6.93.58-1.5,1.5-2.49,2.76-2.99.6-.24,1.1-.3,1.5-.18.39.12.72.35.98.69.26.34.46.72.61,1.15s.28.95.38,1.55c.2,1.16.31,2.41.35,3.74.08,2.98-.14,5.27-.66,6.87-.51,1.6-1.44,2.67-2.79,3.2-.75.3-1.37.32-1.84.07-.48-.25-.87-.75-1.19-1.48-.23-.52-.42-1.28-.57-2.28-.15-1-.24-2.14-.27-3.41ZM708.63,651.42c.05,2.09.19,3.48.41,4.16.22.68.52.95.91.8.25-.1.47-.35.64-.75s.3-.97.37-1.7c.07-.74.09-1.85.05-3.34-.06-2.18-.19-3.61-.42-4.28-.22-.67-.53-.93-.94-.77s-.7.67-.86,1.51c-.16.84-.22,2.3-.16,4.37Z"/>
    <path d="M721.99,654.43l-7.45,2.98c.05-1.38.28-2.76.68-4.12.4-1.36,1.18-3.09,2.33-5.19.7-1.28,1.15-2.22,1.34-2.82.19-.6.28-1.13.27-1.59-.01-.5-.12-.89-.33-1.16-.21-.28-.47-.35-.77-.23-.32.13-.57.41-.77.86-.19.45-.31,1.15-.36,2.1l-2.5.62c.07-1.33.22-2.4.46-3.23.24-.83.6-1.53,1.06-2.1.47-.57,1.12-1.03,1.96-1.36.88-.35,1.56-.44,2.06-.26.5.17.89.58,1.19,1.23.3.65.46,1.44.48,2.39.02,1-.11,2.02-.41,3.06-.3,1.04-.85,2.27-1.67,3.7-.48.83-.81,1.41-.97,1.73-.16.32-.35.73-.57,1.23l3.88-1.55.09,3.71Z"/>
    <path d="M727.23,649.24l-4.52,1.8-.09-3.75,4.29-11.69,2.16-.86.23,10.1,1.12-.45.08,3.54-1.12.45.07,3.06-2.16.86-.07-3.06ZM727.15,645.71l-.12-5.17-2.27,6.12,2.39-.95Z"/>
    <path d="M685.96,620.2l4-1.47c.87-.32,1.5-.21,1.91.33.4.53.58,1.44.54,2.71-.05,1.3-.32,2.39-.8,3.29-.49.9-1.2,1.52-2.15,1.88l-1.29.49-.13,4.66-2.36.9.29-12.78ZM688.22,624.84l.58-.22c.46-.17.78-.42.98-.76s.3-.71.31-1.13c.01-.4-.06-.72-.21-.94-.15-.22-.45-.25-.9-.09l-.68.25-.08,2.88Z"/>
    <path d="M697.39,615.99l3.49-1.28c.68-.25,1.23-.3,1.63-.13.4.16.72.5.96.99.24.49.39,1.11.47,1.85.08.74.09,1.54.04,2.41-.08,1.35-.23,2.43-.46,3.24-.22.81-.51,1.52-.86,2.13-.35.62-.71,1.08-1.08,1.38-.51.42-.97.7-1.38.86l-3.4,1.3.59-12.74ZM699.6,618.07l-.35,6.96.56-.21c.48-.18.83-.4,1.04-.66s.39-.63.53-1.12c.14-.49.24-1.25.29-2.26.07-1.35,0-2.23-.24-2.64-.23-.41-.65-.5-1.25-.28l-.58.22Z"/>
    <path d="M708.97,622.1l-2.56.97-.49,2.19-2.31.88,3.58-13.75,2.51-.92,1.82,11.66-2.34.89-.22-1.91ZM708.7,619.56l-.5-4.27-1.11,4.88,1.61-.61Z"/>
    <path d="M713.25,610.16l3.37-1.24c.66-.24,1.18-.28,1.56-.11.38.17.67.5.88,1,.21.49.34,1.11.39,1.84s.03,1.53-.05,2.4c-.12,1.35-.3,2.42-.54,3.22-.24.8-.54,1.51-.89,2.12-.35.61-.71,1.06-1.08,1.36-.5.41-.95.69-1.34.84l-3.29,1.26.98-12.68ZM715.28,612.25l-.57,6.92.55-.21c.46-.18.8-.39,1.01-.64s.39-.62.54-1.11c.15-.49.27-1.24.35-2.25.12-1.34.07-2.22-.14-2.63-.21-.41-.6-.5-1.19-.29l-.56.21Z"/>
    <path d="M721.19,607.24l3.32-1.22c.65-.24,1.16-.27,1.53-.1.37.17.65.5.85,1,.2.49.31,1.11.35,1.84.03.73,0,1.53-.09,2.39-.14,1.34-.34,2.41-.59,3.21-.25.8-.55,1.5-.9,2.11-.35.61-.71,1.06-1.08,1.35-.5.4-.94.68-1.33.83l-3.24,1.23,1.17-12.65ZM723.14,609.34l-.67,6.9.54-.2c.46-.17.79-.38,1-.64s.39-.62.55-1.11c.15-.49.28-1.23.38-2.24.14-1.34.11-2.22-.09-2.62-.2-.41-.58-.51-1.15-.29l-.55.2Z"/>
    <path d="M727.91,604.77l2.44-.9.94,3.8,1.92-4.85,2.4-.88-3.59,8.4-.6,5.2-2.14.82.58-5.2-1.95-6.38Z"/>
    <path d="M677.8,638.82l5.85-2.25-.05,2.63-3.44,1.33-.02,2.12,2.93-1.14-.04,2.42-2.91,1.14-.06,4.83-2.32.92.08-12.01Z"/>
    <path d="M684.91,636.09l2.34-.9-.24,9.09,3.56-1.4-.1,2.89-5.81,2.31.26-11.99Z"/>
    <path d="M691.92,633.39l6.15-2.36-.13,2.6-3.82,1.48-.08,1.92,3.53-1.37-.12,2.44-3.51,1.37-.1,2.34,3.87-1.53-.13,2.65-6.1,2.42.43-11.97Z"/>
    <path d="M698.9,630.71l2.5-.96,1.08,3.24,1.47-4.22,2.45-.94-2.62,6.72,2.04,5.12-2.46.98-1.18-3.21-1.63,4.33-2.47.98,2.81-7.13-1.98-4.91Z"/>
    <path d="M707.33,627.47l4.16-1.6c.69-.27,1.2-.18,1.52.26.32.44.45,1.08.38,1.94-.06.71-.24,1.37-.54,1.98-.2.41-.48.77-.82,1.1.49,0,.84.22,1.03.62.2.41.27.98.2,1.73-.05.61-.18,1.19-.39,1.74-.21.55-.47,1.02-.78,1.42-.2.25-.48.48-.85.71-.49.3-.82.48-.98.54l-3.75,1.49.81-11.92ZM709.23,631.35l.96-.37c.34-.13.59-.33.74-.58s.24-.57.27-.94c.03-.35-.02-.6-.14-.74s-.35-.15-.68-.02l-.98.38-.17,2.28ZM708.89,636.01l1.11-.44c.37-.15.65-.36.82-.64.17-.28.27-.61.3-.99.03-.35-.03-.6-.16-.75-.14-.15-.4-.15-.78,0l-1.11.44-.17,2.39Z"/>
    <path d="M715.11,624.48l5.85-2.25-.25,2.59-3.63,1.41-.17,1.91,3.36-1.31-.23,2.43-3.34,1.31-.2,2.32,3.69-1.45-.25,2.64-5.81,2.31.99-11.9Z"/>
    <path d="M725.45,630.05l-2.39.94-.53,2.05-2.15.86,3.77-12.89,2.34-.9,1.28,10.85-2.18.87-.13-1.78ZM725.28,627.68l-.31-3.98-1.19,4.57,1.5-.59Z"/>
    <path d="M729.78,618.84l1.98-.76,1.77,5.63.8-6.62,1.98-.76-1.48,11.83-1.93.77-1.75-5.44-.75,6.43-1.95.77,1.34-11.85Z"/>
    <path d="M736.32,623.91l1.98-.98c-.03.54,0,.93.09,1.17.15.39.42.51.81.35.29-.11.53-.32.72-.63.19-.3.31-.61.35-.93.04-.3,0-.54-.12-.73-.12-.18-.44-.27-.96-.27-.85,0-1.43-.23-1.74-.68-.31-.45-.41-1.14-.29-2.07.08-.62.25-1.24.53-1.86.27-.63.63-1.18,1.07-1.65.44-.47,1.02-.84,1.72-1.11.86-.33,1.47-.29,1.84.11.37.4.51,1.21.42,2.41l-1.96.95c.02-.52-.03-.87-.17-1.05s-.35-.22-.64-.1c-.24.09-.43.25-.58.48s-.24.48-.27.74c-.03.19,0,.34.08.45.08.12.29.18.63.17.85,0,1.45.1,1.79.3s.56.53.66.98.11,1,.02,1.64c-.1.75-.32,1.48-.64,2.2-.32.72-.71,1.32-1.17,1.81-.46.49-1.01.86-1.64,1.11-1.12.44-1.85.37-2.18-.21-.34-.59-.46-1.46-.37-2.62Z"/>
    <path class="cls-3" d="M376.16,656.82c-3.3-1.47-6.52-2.9-9.78-4.35,0-6.54,0-13,0-19.47,1.25-.3,45.01,3.43,47.53,4.07-.06,6.59-.12,13.19-.18,19.85-3.28.84-6.52,1.66-9.86,2.52-.05,7.84-.11,15.6-.16,23.47,10.49,1.07,20.98,2.15,31.67,3.24.1-7.84.2-15.61.31-23.63-3.32-1.47-6.69-2.95-10.13-4.47.07-6.67.15-13.29.22-20.03,16.32,1.44,32.72,2.89,49.39,4.36-.14,6.75-.27,13.4-.41,20.3-3.38.83-6.86,1.69-10.38,2.55-.47,25.64-.93,50.92-1.39,76.1,3.35,1.5,6.69,2.99,10.11,4.52-.13,6.57-.26,13.03-.39,19.46-1.38.21-44.75-5.03-48.07-5.8-.36-1.32-.31-16.85.1-19.44,3.22-.66,6.53-1.35,10.04-2.07.23-8.21.24-16.46.38-24.66-1.42-.62-29.15-3.8-31.48-3.67-.36,1.27-.63,21.79-.29,24.7,3.13,1.42,6.36,2.89,9.65,4.38-.06,6.48-.11,12.83-.17,19.3-15.61-1.94-31.01-3.86-46.51-5.78-.14-6.29-.03-12.6-.07-19.05,3.27-.7,6.45-1.39,9.73-2.09.05-24.5.09-49.17.14-74.28ZM471.99,660.39c.1-5.22.2-10.32.3-15.47-14.77-1.32-29.28-2.61-43.79-3.9-.06,5.15-.12,10.19-.18,15.3,3.42,1.5,6.8,2.99,10.15,4.46-.13,9.6-.26,19.01-.38,28.4-.37.02-.61.07-.86.05-11.84-1.21-23.6-2.43-35.28-3.64-.24-.02-.48-.11-.71-.18-.06-.02-.11-.06-.16-.1-.04-.04-.07-.11-.15-.23.06-9.16.12-18.43.18-27.83,3.37-.88,6.7-1.74,9.93-2.59.04-5.2.08-10.15.13-15.17-14.24-1.27-28.22-2.51-42.2-3.76,0,5.03,0,9.93,0,14.99,3.25,1.45,6.52,2.91,9.84,4.4-.06,26.36-.12,52.34-.18,78.22-3.26.71-6.49,1.41-9.69,2.1,0,4.95,0,9.73,0,14.59,13.69,1.69,27.38,3.38,41.3,5.11.04-4.93.08-9.76.12-14.77-3.25-1.48-6.53-2.97-9.7-4.42.06-9.89.13-19.59.19-29.3,2.53-.12,35.7,3.64,36.98,4.18-.13,9.83-.26,19.62-.4,29.45-3.45.71-6.81,1.41-10.09,2.08-.06,5.08-.11,9.93-.17,14.87,14.19,1.75,28.38,3.51,42.81,5.29.1-5.01.2-9.98.3-15.03-3.41-1.53-6.75-3.02-10.06-4.5.47-26.5.94-53.09,1.42-80.05,3.47-.86,6.9-1.71,10.34-2.56Z"/>
    <path class="cls-2" d="M471.99,660.39c-3.45.85-6.87,1.7-10.34,2.56-.48,26.96-.95,53.55-1.42,80.05,3.31,1.48,6.64,2.98,10.06,4.5-.1,5.06-.2,10.02-.3,15.03-14.44-1.78-28.62-3.54-42.81-5.29.06-4.94.11-9.79.17-14.87,3.28-.68,6.64-1.37,10.09-2.08.13-9.83.26-19.63.4-29.45-1.28-.54-34.45-4.3-36.98-4.18-.06,9.71-.13,19.41-.19,29.3,3.17,1.44,6.45,2.94,9.7,4.42-.04,5.01-.08,9.84-.12,14.77-13.92-1.72-27.61-3.41-41.3-5.11,0-4.86,0-9.64,0-14.59,3.2-.69,6.43-1.4,9.69-2.1.06-25.87.12-51.86.18-78.22-3.32-1.48-6.58-2.94-9.84-4.4,0-5.06,0-9.96,0-14.99,13.97,1.24,27.96,2.49,42.2,3.76-.04,5.02-.08,9.97-.13,15.17-3.24.84-6.57,1.71-9.93,2.59-.06,9.41-.12,18.67-.18,27.83.08.12.11.19.15.23.04.04.1.08.16.1.24.07.47.16.71.18,11.68,1.21,23.44,2.42,35.28,3.64.24.02.48-.02.86-.05.13-9.39.25-18.8.38-28.4-3.35-1.47-6.73-2.96-10.15-4.46.06-5.11.12-10.15.18-15.3,14.5,1.29,29.01,2.58,43.79,3.9-.1,5.15-.2,10.25-.3,15.47ZM370.96,748.2c.25.13.41.26.57.28,11.56,1.44,23.2,2.88,34.93,4.33.47.06.95.04,1.42.05.05,0,.1-.05.15-.08.04-.03.07-.08.15-.16.03-3.51.06-7.08.09-10.8-3.29-1.51-6.55-3.01-9.71-4.46-.35-4.13-.02-31.66.37-32.95,2.78-.11,39.8,4.09,41.05,4.65-.15,11.08-.31,22.12-.46,33.18-3.47.71-6.83,1.4-10.22,2.09-.03,3.85-.15,7.47-.08,11.12.47.13.7.23.94.26,12.16,1.5,24.41,3.01,36.74,4.53.24.03.49,0,.73-.03.05,0,.1-.06.15-.1.04-.04.08-.08.15-.15.07-3.59.14-7.21.21-10.99-3.41-1.53-6.79-3.06-10.16-4.58.48-27.48.96-55.06,1.44-83.1,3.47-.87,6.94-1.74,10.34-2.59.42-2.52.47-10.24.09-11.62-13.14-1.18-26.19-2.35-39.22-3.52-.05,3.91-.09,7.68-.14,11.48,3.48,1.53,6.87,3.01,10.19,4.47-.15,10.88-.3,21.51-.45,32.19-13.96-1.45-27.7-2.87-41.38-4.29.06-10.65.13-21.2.19-31.84,3.37-.87,6.65-1.72,9.88-2.55.03-3.9.06-7.59.09-11.41-12.79-1.15-25.37-2.28-37.95-3.41,0,3.83,0,7.53-.01,11.27,3.36,1.5,6.63,2.96,9.87,4.41-.07,27.48-.15,54.48-.22,81.34-3.27.7-6.51,1.39-9.74,2.08,0,3.73,0,7.31,0,10.87Z"/>
    <path d="M370.96,748.2c0-3.56,0-7.14,0-10.87,3.23-.69,6.47-1.38,9.74-2.08.07-26.86.15-53.86.22-81.34-3.24-1.45-6.51-2.91-9.87-4.41,0-3.74,0-7.44.01-11.27,12.58,1.13,25.16,2.26,37.95,3.41-.03,3.81-.06,7.51-.09,11.41-3.23.83-6.51,1.68-9.88,2.55-.06,10.65-.13,21.2-.19,31.84,13.68,1.42,27.42,2.84,41.38,4.29.15-10.69.3-21.31.45-32.19-3.32-1.46-6.71-2.94-10.19-4.47.05-3.8.09-7.57.14-11.48,13.02,1.17,26.07,2.34,39.22,3.52.38,1.38.34,9.1-.09,11.62-3.4.85-6.88,1.72-10.34,2.59-.49,28.03-.97,55.62-1.44,83.1,3.37,1.52,6.75,3.04,10.16,4.58-.07,3.78-.14,7.4-.21,10.99-.07.07-.11.11-.15.15-.05.04-.09.09-.15.1-.24.02-.49.06-.73.03-12.34-1.51-24.58-3.02-36.74-4.53-.23-.03-.47-.13-.94-.26-.06-3.65.06-7.27.08-11.12,3.39-.69,6.75-1.38,10.22-2.09.15-11.06.31-22.1.46-33.18-1.25-.57-38.27-4.76-41.05-4.65-.4,1.29-.73,28.82-.37,32.95,3.16,1.45,6.42,2.95,9.71,4.46-.03,3.71-.06,7.28-.09,10.8-.08.08-.11.13-.15.16-.04.04-.1.09-.15.08-.47,0-.95,0-1.42-.05-11.72-1.45-23.37-2.89-34.93-4.33-.16-.02-.32-.15-.57-.28Z"/>
    <g>
      <path class="cls-2" d="M745.31,651.64l-71.35,29.07c-3.18,1.3-5.77-1.05-5.77-5.24v-50.07c0-4.23,2.6-8.63,5.8-9.83l71.66-26.96c2.97-1.12,5.36,1.28,5.33,5.34l-.28,48.21c-.02,4.04-2.44,8.28-5.4,9.49Z"/>
      <g>
        <g>
          <path d="M700.1,652.22c-.27.11-.51.29-.72.55-.21.26-.38.53-.53.82-.14.29-.25.54-.33.76-.08.22-.12.35-.12.38l-1.58-.33c0-.08.05-.24.12-.48.07-.25.18-.54.34-.89.15-.35.36-.71.61-1.07.25-.37.56-.72.93-1.04s.8-.59,1.3-.78c.58-.23,1.05-.31,1.43-.24.38.07.68.24.9.5.22.27.38.59.47.96.09.37.14.75.14,1.13,0,.47-.07.96-.22,1.46-.14.5-.33.99-.55,1.47-.23.48-.47.94-.73,1.37-.26.43-.51.82-.75,1.16-.24.34-.44.61-.6.82-.16.21-.26.34-.3.38l3.07-1.23v2.14s-5.85,2.36-5.85,2.36v-1.96c.07-.08.21-.28.43-.57.22-.3.48-.66.79-1.1.31-.44.63-.91.96-1.42.33-.51.64-1.02.93-1.54.29-.52.52-1,.7-1.46.18-.46.27-.85.27-1.17,0-.51-.09-.83-.28-.97-.19-.14-.46-.13-.81,0Z"/>
          <path d="M703.93,654.24c0-.94.09-1.8.27-2.58.18-.78.43-1.46.74-2.05.31-.59.66-1.08,1.06-1.47.4-.39.81-.67,1.24-.84.43-.17.85-.22,1.24-.14.39.08.74.29,1.05.63s.54.84.72,1.47c.17.63.26,1.42.26,2.36,0,1-.09,1.89-.27,2.67-.18.78-.42,1.46-.73,2.02-.31.57-.66,1.04-1.05,1.41-.39.37-.81.64-1.24.82-.43.17-.85.24-1.24.19s-.75-.24-1.05-.56c-.31-.32-.55-.8-.73-1.44-.18-.64-.26-1.46-.26-2.47ZM705.78,653.5c0,.78.06,1.41.17,1.87.12.46.28.77.5.94.22.16.47.18.77.06.3-.12.56-.35.77-.68.22-.33.38-.78.5-1.34.12-.56.18-1.23.18-2,0-.73-.05-1.33-.17-1.8-.12-.47-.28-.8-.49-.98-.21-.19-.47-.22-.77-.1-.3.12-.56.36-.77.72-.22.36-.39.82-.51,1.39-.12.56-.18,1.21-.18,1.95Z"/>
          <path d="M714.37,646.53c-.27.11-.51.29-.71.54-.21.25-.38.52-.52.81-.14.29-.25.54-.32.76-.07.22-.12.34-.12.38l-1.56-.34c0-.07.05-.23.12-.48.07-.24.18-.54.33-.88.15-.34.35-.7.6-1.07.25-.37.55-.71.91-1.03.36-.32.79-.58,1.28-.78.57-.23,1.04-.3,1.41-.24.37.07.67.24.89.5.22.27.37.58.46.96.09.37.14.75.14,1.12,0,.47-.07.95-.21,1.45-.14.49-.32.98-.55,1.46-.22.48-.46.93-.72,1.36-.26.43-.5.81-.74,1.15-.23.34-.43.61-.6.82-.16.21-.26.33-.29.38l3.02-1.22v2.13s-5.78,2.33-5.78,2.33v-1.94c.07-.08.21-.27.42-.57.22-.29.48-.66.78-1.09.3-.43.62-.9.95-1.41.33-.5.63-1.01.92-1.53.28-.51.52-.99.7-1.45.18-.45.27-.84.27-1.16,0-.51-.09-.83-.28-.96-.19-.13-.45-.13-.8,0Z"/>
          <path d="M723.05,641.2l-.02,6.37.92-.37v2.13s-.93.37-.93.37v2.27s-1.81.73-1.81.73v-2.27s-3.29,1.33-3.29,1.33v-1.94s3.06-7.79,3.06-7.79l2.07-.83ZM721.22,648.29v-3.25s0,0,0,0l-1.47,3.83,1.47-.59Z"/>
        </g>
        <g>
          <path d="M686.23,619.73l3.77-1.43c.82-.31,1.43-.29,1.84.08.41.36.61,1.02.61,1.98,0,.98-.22,1.84-.67,2.56-.44.72-1.12,1.26-2.04,1.61l-1.24.48v3.62s-2.28.88-2.28.88v-9.77ZM688.51,623.03l.56-.21c.44-.17.74-.38.92-.65.18-.27.27-.56.27-.88,0-.31-.08-.54-.23-.69-.15-.15-.44-.15-.86.01l-.65.25v2.18Z"/>
          <path d="M697.06,615.61l3.34-1.27c.66-.25,1.19-.33,1.59-.25.4.08.74.3,1,.64.26.34.45.79.57,1.34.12.55.17,1.15.17,1.81,0,1.04-.09,1.87-.27,2.51-.18.64-.42,1.21-.74,1.72-.31.51-.65.89-1.01,1.16-.49.37-.94.62-1.34.78l-3.33,1.28.02-9.72ZM699.31,616.96v5.3s.54-.21.54-.21c.47-.18.8-.38,1-.59.2-.22.35-.52.47-.91s.17-.97.17-1.75c0-1.03-.12-1.68-.37-1.97-.25-.28-.66-.32-1.25-.09l-.56.21Z"/>
          <path d="M708.89,619.17l-2.53.97-.36,1.73-2.28.88,2.74-10.72,2.43-.92,2.67,8.63-2.32.89-.36-1.46ZM708.44,617.26l-.78-3.17-.8,3.78,1.58-.61Z"/>
          <path d="M712.33,609.8l3.29-1.25c.65-.25,1.17-.33,1.57-.24.4.09.72.3.98.64s.44.79.56,1.33c.11.54.17,1.14.17,1.8,0,1.03-.09,1.86-.27,2.49-.18.63-.42,1.2-.73,1.7-.31.5-.64.88-1,1.15-.48.36-.92.62-1.32.77l-3.29,1.27.03-9.65ZM714.54,611.14l-.02,5.27.54-.21c.46-.18.79-.37.99-.58.2-.21.35-.51.46-.9.11-.39.17-.96.17-1.74,0-1.02-.12-1.67-.36-1.95-.25-.28-.65-.31-1.23-.1l-.55.21Z"/>
          <path d="M720.1,606.85l3.26-1.24c.64-.24,1.16-.32,1.55-.24.39.09.72.3.97.64.26.34.44.78.55,1.32.11.54.17,1.14.17,1.79,0,1.02-.09,1.85-.27,2.48-.17.63-.42,1.2-.72,1.7-.31.5-.64.88-.99,1.14-.48.36-.92.61-1.31.76l-3.26,1.26.03-9.62ZM722.29,608.19l-.02,5.25.54-.21c.46-.18.78-.37.98-.58.19-.21.35-.51.46-.89.11-.38.17-.96.17-1.73,0-1.02-.12-1.67-.36-1.95-.24-.28-.65-.31-1.22-.1l-.55.21Z"/>
          <path d="M726.72,604.33l2.42-.92,1.41,2.69,1.44-3.77,2.4-.91-2.76,6.6-.02,4-2.18.84.02-4.01-2.73-4.52Z"/>
        </g>
        <g>
          <path d="M677.15,638.61l5.65-2.19v2.1s-3.35,1.3-3.35,1.3v1.71s2.86-1.11,2.86-1.11v1.97s-2.86,1.12-2.86,1.12v3.99s-2.3.9-2.3.9v-9.79Z"/>
          <path d="M684.03,635.94l2.27-.88v7.35s3.53-1.38,3.53-1.38v2.39s-5.81,2.28-5.81,2.28v-9.76Z"/>
          <path d="M690.86,633.29l6.04-2.34v2.07s-3.78,1.47-3.78,1.47v1.54s3.5-1.36,3.5-1.36v1.98s-3.51,1.37-3.51,1.37v1.91s3.88-1.52,3.88-1.52v2.2s-6.15,2.41-6.15,2.41l.02-9.72Z"/>
          <path d="M697.72,630.63l2.47-.96,1.28,2.48,1.25-3.46,2.43-.94-2.26,5.56,2.45,4.02-2.51.98-1.42-2.55-1.44,3.67-2.5.98,2.51-6.03-2.27-3.76Z"/>
          <path d="M706.09,627.38l4.16-1.61c.69-.27,1.22-.24,1.59.07.37.32.55.81.55,1.49,0,.57-.14,1.11-.4,1.62-.18.34-.43.66-.77.95.51-.03.89.1,1.13.41.24.31.36.77.36,1.39,0,.5-.09.98-.26,1.45-.17.47-.41.87-.71,1.22-.19.22-.47.43-.84.65-.5.28-.83.46-.99.52l-3.84,1.51.03-9.66ZM708.32,630.3l.97-.38c.35-.13.59-.31.72-.52.14-.21.2-.47.21-.77,0-.28-.07-.47-.2-.58s-.37-.09-.71.04l-.98.38v1.83ZM708.31,634.09l1.13-.44c.38-.15.65-.35.81-.59.16-.24.24-.52.24-.83,0-.28-.08-.48-.23-.6-.15-.11-.43-.09-.81.06l-1.13.44v1.95Z"/>
          <path d="M713.88,624.36l5.91-2.29v2.05s-3.7,1.44-3.7,1.44v1.53s3.42-1.33,3.42-1.33v1.96s-3.43,1.34-3.43,1.34v1.89s3.79-1.49,3.79-1.49v2.17s-6.02,2.36-6.02,2.36l.03-9.62Z"/>
          <path d="M725.4,627.87l-2.48.97-.35,1.72-2.24.88,2.7-10.63,2.39-.93,2.61,8.53-2.28.9-.35-1.44ZM724.96,625.98l-.77-3.14-.79,3.75,1.55-.61Z"/>
          <path d="M728.78,618.58l2.03-.79,2.62,4.25.02-5.28,2.04-.79-.04,9.53-2.04.8-2.61-4.21-.02,5.24-2.05.8.04-9.56Z"/>
          <path d="M736.53,621.94l2.05-.98c.04.44.13.75.27.93.22.3.54.37.95.2.31-.12.54-.31.71-.57.17-.26.25-.52.25-.78,0-.25-.08-.44-.23-.57-.16-.13-.52-.17-1.1-.12-.94.08-1.62-.04-2.02-.37-.4-.32-.61-.86-.6-1.6,0-.49.11-.99.32-1.51.21-.52.52-.98.94-1.39.42-.41.99-.76,1.72-1.04.89-.35,1.57-.38,2.03-.11.46.27.74.88.82,1.83l-2.03.95c-.05-.41-.16-.67-.34-.8-.17-.13-.41-.13-.71-.01-.25.1-.44.24-.57.44-.13.19-.19.39-.19.6,0,.15.05.27.16.35.1.09.34.11.72.07.94-.09,1.61-.07,2.02.05.4.12.7.36.88.71.18.35.27.78.27,1.3,0,.61-.13,1.22-.38,1.83-.25.61-.6,1.13-1.04,1.57-.44.44-1,.79-1.68,1.06-1.19.47-2.01.48-2.46.03-.45-.44-.71-1.13-.77-2.07Z"/>
        </g>
      </g>
    </g>
    <g>
      <path class="cls-2" d="M745.72,730.57l-71.76,33.87c-3.28,1.55-5.94-.68-5.94-4.97v-50.87c0-4.26,2.65-8.83,5.91-10.2l71.42-30.08c2.9-1.22,5.26,1.02,5.28,5l.3,47.51c.03,4.01-2.3,8.37-5.21,9.74Z"/>
      <g>
        <g>
          <path d="M695.45,733.82c-.4.18-.76.48-1.07.87-.31.4-.57.82-.78,1.26-.21.44-.37.83-.48,1.16-.11.33-.17.53-.18.58l-2.37-.35c.01-.11.07-.35.17-.72.1-.37.27-.82.5-1.35.23-.53.53-1.08.9-1.65.37-.57.83-1.11,1.38-1.62.55-.51,1.19-.94,1.93-1.27.86-.39,1.57-.55,2.13-.48.57.07,1.01.29,1.34.66.33.37.56.83.7,1.38.14.54.21,1.1.21,1.66,0,.7-.1,1.42-.31,2.17-.21.75-.48,1.49-.81,2.23-.33.74-.69,1.43-1.08,2.09-.38.66-.75,1.26-1.1,1.78-.35.53-.65.95-.89,1.28-.24.33-.39.52-.44.6l4.56-2.11v3.17s-8.7,4.06-8.7,4.06v-2.91c.09-.13.3-.43.62-.89.33-.46.72-1.03,1.18-1.71.46-.68.93-1.41,1.43-2.2.49-.79.95-1.57,1.38-2.36s.77-1.53,1.04-2.22c.27-.69.4-1.28.4-1.76,0-.76-.15-1.22-.43-1.41-.28-.18-.69-.16-1.21.08Z"/>
          <path d="M701.16,736.46c0-1.39.13-2.67.39-3.83.26-1.16.62-2.19,1.08-3.09s.97-1.65,1.56-2.26c.58-.61,1.19-1.06,1.83-1.35.64-.29,1.25-.39,1.83-.32s1.1.36,1.55.84.81,1.18,1.07,2.1.39,2.06.4,3.45c0,1.47-.12,2.79-.37,3.95-.25,1.17-.6,2.18-1.05,3.05s-.96,1.59-1.54,2.17c-.58.58-1.19,1.02-1.83,1.32-.64.3-1.25.43-1.84.39s-1.11-.28-1.57-.73-.82-1.14-1.09-2.07c-.27-.93-.4-2.14-.41-3.62ZM703.89,735.21c0,1.16.09,2.07.27,2.74.18.67.43,1.12.75,1.34.32.22.7.23,1.14.02.44-.2.82-.56,1.13-1.08.31-.51.56-1.19.73-2.02.17-.83.25-1.82.25-2.97,0-1.08-.09-1.96-.27-2.64-.17-.68-.42-1.15-.74-1.41-.32-.26-.7-.29-1.14-.09s-.82.57-1.14,1.12c-.32.55-.56,1.24-.74,2.08-.17.84-.26,1.8-.25,2.88Z"/>
          <path d="M716.46,724.24c-.39.18-.74.46-1.04.85-.3.39-.55.8-.75,1.23s-.36.81-.46,1.13c-.11.33-.17.52-.18.57l-2.29-.36c.01-.11.07-.35.17-.71.1-.36.26-.8.48-1.32s.51-1.06.87-1.61c.36-.56.8-1.08,1.33-1.58s1.15-.91,1.87-1.24c.83-.38,1.52-.53,2.06-.46.55.07.98.29,1.3.66.32.37.54.82.68,1.36.14.54.21,1.08.21,1.63,0,.69-.1,1.4-.3,2.13-.2.73-.46,1.46-.78,2.18s-.67,1.4-1.04,2.05c-.37.65-.73,1.23-1.06,1.74-.34.51-.63.93-.86,1.25-.24.32-.38.51-.43.58l4.41-2.04v3.11s-8.41,3.93-8.41,3.93v-2.86c.08-.13.28-.42.6-.87.31-.45.69-1.01,1.14-1.67.44-.66.9-1.38,1.38-2.15.48-.77.92-1.54,1.33-2.31.41-.77.74-1.5,1-2.18.26-.68.39-1.25.38-1.72,0-.74-.14-1.2-.42-1.39s-.67-.16-1.17.07Z"/>
          <path d="M724.25,729.27c.05.2.13.38.22.54s.21.3.35.4c.14.1.31.15.51.16s.43-.06.7-.18c.54-.25.96-.68,1.26-1.3s.44-1.29.43-2.04c0-.72-.16-1.22-.44-1.5-.28-.28-.67-.31-1.16-.09-.32.15-.59.35-.81.6-.23.26-.41.52-.55.78s-.24.49-.3.69l-2.18-.07.99-8.87,6.49-2.94v3.08s-4.27,1.96-4.27,1.96l-.35,3.13c.03-.07.12-.2.28-.39s.36-.39.61-.61c.25-.21.54-.4.86-.54.57-.26,1.12-.34,1.64-.24s.96.44,1.3,1.01c.34.57.51,1.44.52,2.59,0,1.16-.17,2.25-.53,3.27-.36,1.03-.85,1.92-1.49,2.69-.63.76-1.36,1.34-2.18,1.72-.62.29-1.17.45-1.65.46-.47.02-.88-.06-1.21-.24-.34-.18-.61-.42-.82-.71-.21-.3-.37-.61-.48-.95l2.25-2.41Z"/>
        </g>
        <g>
          <path d="M699.1,694.76l5.14-2.19c.85-.36,1.51-.36,1.96,0,.46.37.69.97.69,1.8,0,.7-.16,1.36-.48,2-.22.43-.53.82-.95,1.2.64-.07,1.1.08,1.4.45.3.37.45.92.45,1.67,0,.61-.1,1.21-.31,1.79s-.5,1.09-.87,1.54c-.23.28-.57.56-1.04.84-.62.38-1.02.61-1.23.7l-4.74,2.07-.03-11.85ZM701.88,698.21l1.19-.51c.43-.18.72-.41.89-.68.17-.27.25-.59.25-.96,0-.34-.09-.58-.25-.7-.17-.12-.46-.09-.87.08l-1.21.52v2.24ZM701.9,702.86l1.4-.61c.47-.2.8-.46,1-.77.19-.31.29-.65.29-1.02,0-.35-.1-.59-.29-.72-.19-.13-.53-.09-1.01.12l-1.39.6v2.4Z"/>
          <path d="M708.82,690.61l2.71-1.16.04,11.73-2.72,1.18-.04-11.76Z"/>
          <path d="M717.87,694.21v-2.43s4.11-1.78,4.11-1.78l.02,4.96c-.78,1.07-1.48,1.87-2.09,2.39-.61.53-1.33.97-2.16,1.34-1.03.45-1.87.58-2.52.39-.65-.19-1.16-.68-1.52-1.46-.36-.78-.55-1.78-.55-3,0-1.28.19-2.48.58-3.59.39-1.11.96-2.07,1.71-2.89.59-.63,1.38-1.15,2.37-1.58s1.67-.6,2.14-.56c.47.03.87.22,1.18.58.31.36.55.88.71,1.56l-2.57,1.72c-.11-.39-.29-.65-.54-.78-.26-.12-.58-.1-.97.07-.59.25-1.05.73-1.4,1.43-.35.7-.52,1.65-.51,2.84,0,1.27.18,2.09.54,2.48.36.39.85.45,1.48.17.3-.13.58-.31.86-.55s.58-.57.93-1v-1.1s-1.79.77-1.79.77Z"/>
        </g>
        <g>
          <path d="M681.24,717.87l4.2-1.84c.82-.36,1.49-.51,2-.43.51.07.93.31,1.26.72s.57.94.72,1.6.23,1.4.23,2.22c0,1.28-.11,2.32-.33,3.13-.22.8-.52,1.53-.92,2.18-.39.65-.81,1.16-1.26,1.52-.62.49-1.18.86-1.68,1.08l-4.21,1.88v-12.06ZM684.07,719.35v6.57s.7-.31.7-.31c.59-.26,1.01-.54,1.26-.82.25-.28.44-.67.58-1.16.14-.49.21-1.22.21-2.18,0-1.27-.16-2.07-.48-2.4-.32-.33-.84-.34-1.57-.01l-.7.31Z"/>
          <path d="M696.12,721.3l-3.16,1.41-.44,2.17-2.86,1.28,3.38-13.46,3.03-1.33,3.39,10.4-2.9,1.3-.45-1.77ZM695.54,718.98l-1-3.85-.97,4.72,1.98-.88Z"/>
          <path d="M700.35,709.49l4.08-1.79c.8-.35,1.45-.49,1.94-.42.49.07.9.31,1.22.71.32.4.56.93.7,1.58.15.65.22,1.38.22,2.19,0,1.26-.1,2.29-.31,3.08-.21.79-.51,1.51-.89,2.15-.38.64-.79,1.14-1.23,1.49-.6.48-1.14.83-1.63,1.05l-4.08,1.83-.03-11.87ZM703.11,710.96l.02,6.47.67-.3c.57-.26.98-.52,1.22-.8.24-.28.43-.66.56-1.14.14-.48.2-1.2.2-2.14,0-1.25-.16-2.04-.47-2.37s-.81-.34-1.52-.02l-.68.3Z"/>
          <path d="M709.97,705.27l4.02-1.76c.79-.35,1.43-.48,1.91-.41.49.07.89.31,1.2.71s.55.92.69,1.57c.14.65.22,1.37.22,2.17,0,1.25-.1,2.27-.31,3.05-.21.78-.5,1.49-.87,2.13-.37.63-.78,1.13-1.21,1.47-.59.48-1.12.82-1.6,1.04l-4.02,1.8-.04-11.78ZM712.68,706.75l.02,6.42.66-.3c.56-.25.96-.51,1.2-.79.24-.27.42-.65.56-1.13.13-.48.2-1.19.19-2.13,0-1.24-.16-2.03-.46-2.35s-.8-.33-1.5-.03l-.67.3Z"/>
          <path d="M718.11,701.7l2.97-1.3,1.75,3.17,1.72-4.69,2.92-1.28-3.3,8.22.02,4.88-2.67,1.19-.02-4.89-3.39-5.3Z"/>
          <path d="M727.85,697.23l2.53-1.11v2.64c.02.97-.13,1.81-.42,2.51-.3.7-.8,1.42-1.52,2.17l-.56-1.16c.45-.48.76-.9.92-1.26.17-.36.26-.73.28-1.12l-1.21.53v-3.2Z"/>
          <path d="M731.2,703.72l2.49-1.32c.06.53.17.9.34,1.11.27.35.66.41,1.16.19.37-.17.66-.41.86-.74.2-.33.3-.65.3-.96s-.1-.52-.29-.67-.64-.18-1.34-.08c-1.15.16-1.97.05-2.46-.31-.5-.37-.75-1-.75-1.9,0-.59.12-1.21.37-1.85.25-.64.63-1.22,1.13-1.74.5-.52,1.2-.98,2.07-1.36,1.08-.47,1.9-.56,2.46-.26.57.3.91,1.02,1.02,2.17l-2.45,1.28c-.07-.49-.21-.81-.42-.95-.21-.14-.5-.13-.87.03-.3.13-.53.32-.68.56-.15.24-.23.49-.23.74,0,.18.07.32.19.41.12.1.42.11.88.04,1.14-.17,1.96-.19,2.45-.06.49.13.85.39,1.08.8.23.41.34.93.34,1.55,0,.74-.14,1.48-.44,2.24-.29.76-.71,1.42-1.24,1.98-.53.56-1.21,1.03-2.03,1.39-1.44.64-2.44.71-3,.2s-.88-1.33-.96-2.47Z"/>
        </g>
      </g>
    </g>
    <g>
      <path class="cls-2" d="M745.58,652.55l-71.82,28.47c-3.2,1.27-5.8-1.17-5.8-5.45v-50.9c0-4.28,2.6-8.7,5.8-9.87l71.82-26.26c2.98-1.09,5.39,1.36,5.39,5.48v48.94c0,4.11-2.41,8.41-5.39,9.59Z"/>
      <g>
        <g>
          <path d="M695.16,643.64c-.4.15-.76.42-1.06.8-.31.38-.57.78-.78,1.2s-.37.8-.48,1.13c-.11.33-.17.52-.18.57l-2.34-.54c.01-.11.07-.35.17-.71.1-.36.27-.8.49-1.32s.52-1.04.89-1.59.83-1.05,1.37-1.53c.54-.47,1.18-.85,1.92-1.13.85-.32,1.56-.43,2.12-.32.56.11,1,.37,1.33.78.32.4.56.89.7,1.45.14.56.21,1.12.21,1.69,0,.7-.1,1.43-.31,2.17-.21.74-.48,1.47-.81,2.18-.33.71-.69,1.39-1.07,2.02-.38.64-.75,1.2-1.1,1.7-.35.5-.65.9-.89,1.21-.24.31-.39.49-.44.56l4.53-1.75v3.19s-8.64,3.36-8.64,3.36v-2.92c.09-.13.3-.41.62-.85.32-.44.71-.98,1.17-1.62.45-.64.93-1.34,1.42-2.09.49-.75.95-1.51,1.37-2.27.42-.76.77-1.48,1.04-2.16.27-.68.4-1.26.4-1.74,0-.76-.14-1.25-.42-1.45-.28-.21-.68-.21-1.2-.01Z"/>
          <path d="M700.83,646.76c0-1.41.13-2.69.39-3.84.26-1.15.62-2.16,1.08-3.04.46-.87.97-1.59,1.56-2.16.58-.57,1.19-.98,1.83-1.22s1.25-.3,1.83-.18c.58.12,1.1.45,1.55.97.45.52.8,1.26,1.06,2.21.26.95.39,2.12.39,3.52,0,1.49-.13,2.81-.39,3.97-.26,1.16-.61,2.16-1.06,3s-.97,1.53-1.55,2.07-1.19.93-1.83,1.18c-.64.25-1.25.33-1.83.24s-1.1-.38-1.56-.87c-.46-.49-.82-1.21-1.08-2.17-.26-.96-.39-2.19-.39-3.69ZM703.55,645.71c0,1.17.09,2.1.26,2.79.18.69.42,1.16.74,1.41.32.25.7.29,1.14.12.44-.17.82-.5,1.13-1,.32-.49.56-1.15.73-1.98s.26-1.82.26-2.98c0-1.09-.09-1.99-.26-2.69s-.41-1.2-.73-1.48c-.32-.29-.69-.35-1.13-.18s-.82.52-1.14,1.05c-.32.53-.57,1.21-.74,2.05-.18.84-.26,1.8-.26,2.89Z"/>
          <path d="M716.17,635.6c-.39.15-.74.41-1.04.78-.3.37-.55.77-.76,1.19-.21.42-.36.79-.47,1.11-.11.32-.17.51-.18.56l-2.3-.55c.01-.11.07-.35.17-.71.1-.36.26-.8.48-1.3.22-.51.51-1.03.87-1.57.36-.54.81-1.04,1.34-1.51.53-.47,1.16-.84,1.88-1.11.83-.32,1.53-.42,2.08-.3.55.11.98.37,1.3.77.32.4.55.88.68,1.43.14.56.2,1.11.2,1.67,0,.7-.1,1.41-.31,2.14-.2.73-.47,1.45-.8,2.16-.33.71-.68,1.37-1.05,2-.37.63-.73,1.19-1.08,1.68-.34.49-.63.89-.87,1.2-.24.3-.38.49-.43.56l4.44-1.72v3.16l-8.47,3.3v-2.89c.09-.12.29-.4.61-.83.32-.43.7-.97,1.14-1.6.44-.64.91-1.32,1.39-2.07.48-.74.93-1.49,1.34-2.24.41-.75.75-1.46,1.01-2.13.26-.67.39-1.24.39-1.72,0-.75-.14-1.23-.42-1.44s-.67-.21-1.18-.02Z"/>
          <path d="M728.87,627.95v9.46s1.35-.52,1.35-.52v3.16s-1.35.52-1.35.52v3.37s-2.64,1.03-2.64,1.03v-3.37l-4.83,1.87v-2.88s4.43-11.47,4.43-11.47l3.04-1.16ZM726.23,638.42v-4.82s-.02,0-.02,0l-2.14,5.65,2.16-.83Z"/>
        </g>
        <g>
          <path d="M676.95,629.14l5.67-2.11v2.13s-3.36,1.26-3.36,1.26v1.73s2.87-1.08,2.87-1.08v2s-2.87,1.08-2.87,1.08v4.06s-2.31.87-2.31.87v-9.94Z"/>
          <path d="M683.84,626.57l2.28-.85v7.46s3.55-1.34,3.55-1.34v2.43s-5.83,2.2-5.83,2.2v-9.91Z"/>
          <path d="M690.7,624.01l6.06-2.26v2.1l-3.79,1.42v1.57s3.52-1.32,3.52-1.32v2.01s-3.52,1.32-3.52,1.32v1.95s3.9-1.47,3.9-1.47v2.23s-6.17,2.33-6.17,2.33v-9.88Z"/>
          <path d="M697.59,621.45l2.48-.92,1.29,2.54,1.25-3.49,2.44-.91-2.26,5.6,2.47,4.13-2.52.95-1.43-2.62-1.44,3.7-2.51.95,2.51-6.07-2.28-3.86Z"/>
          <path d="M705.98,618.32l4.18-1.56c.69-.26,1.23-.22,1.6.1.37.33.56.84.56,1.53,0,.58-.13,1.12-.4,1.64-.18.34-.44.66-.78.94.52-.02.9.12,1.14.44.24.32.37.79.37,1.41,0,.51-.09,1-.26,1.46s-.41.88-.71,1.23c-.19.22-.47.43-.84.64-.5.28-.83.45-1,.51l-3.85,1.45v-9.81ZM708.23,621.32l.97-.36c.35-.13.59-.3.73-.52.14-.21.2-.47.2-.78,0-.28-.07-.48-.2-.59s-.37-.1-.71.03l-.98.37v1.86ZM708.23,625.17l1.14-.43c.38-.14.65-.34.81-.58.16-.24.24-.52.24-.83,0-.29-.08-.49-.23-.61s-.43-.1-.82.04l-1.13.43v1.98Z"/>
          <path d="M713.8,615.4l5.93-2.21v2.08s-3.71,1.39-3.71,1.39v1.55l3.44-1.29v1.99s-3.44,1.29-3.44,1.29v1.92s3.82-1.44,3.82-1.44v2.21s-6.04,2.28-6.04,2.28v-9.77Z"/>
          <path d="M725.41,619.19l-2.5.94-.35,1.74-2.25.85,2.68-10.74,2.4-.89,2.67,8.71-2.3.87-.36-1.47ZM724.95,617.26l-.78-3.2-.78,3.79,1.56-.59Z"/>
          <path d="M728.77,609.82l2.04-.76,2.66,4.36v-5.36s2.05-.76,2.05-.76v9.67l-2.05.77-2.64-4.32v5.32s-2.06.78-2.06.78v-9.7Z"/>
          <path d="M736.58,613.37l2.06-.95c.04.44.14.76.27.95.22.31.54.38.96.23.31-.12.55-.31.71-.57.17-.26.25-.53.25-.79s-.08-.44-.24-.58-.53-.19-1.11-.14c-.95.06-1.63-.07-2.03-.41-.41-.33-.61-.88-.61-1.64,0-.5.1-1,.31-1.53.21-.52.52-.98.94-1.39.42-.41.99-.75,1.72-1.02.9-.33,1.58-.36,2.05-.08.47.28.75.91.84,1.87l-2.04.93c-.05-.41-.17-.69-.34-.82s-.41-.14-.72-.03c-.25.09-.44.24-.57.43-.13.19-.19.4-.19.61,0,.15.05.27.16.36.1.09.34.12.73.08.95-.07,1.62-.04,2.03.09.41.13.71.38.89.73.19.36.28.8.28,1.32,0,.62-.12,1.23-.37,1.85-.25.62-.59,1.14-1.04,1.58-.45.44-1.01.78-1.69,1.04-1.19.45-2.02.45-2.48-.01s-.72-1.17-.78-2.12Z"/>
        </g>
      </g>
    </g>
  </g>
</svg>