<?xml version="1.0" encoding="UTF-8"?>
<svg id="Layer_4" data-name="Layer 4" xmlns="http://www.w3.org/2000/svg" viewBox="0 0 1122 1953.06">
  <defs>
    <style>
      .cls-1 {
        fill: #c10230;
      }

      .cls-2 {
        fill: #abc8e7;
      }

      .cls-3 {
        fill: #fff;
      }
    </style>
  </defs>
  <g>
    <path class="cls-2" d="M276.82,1946.98h-34.51l-32.45-4.06-32.47,4.06h-38.55l-4.06-4.06v-8.12l4.06-4.04h32.47l12.16-4.06,4.06-8.12v-215.09l-4.06-8.1h-12.16l-30.45,10.14h-8.12l-4.04-4.06v-10.14l4.04-4.06,60.88-20.29,16.25-8.12h18.25l4.06,4.06v255.66l4.06,8.12,12.18,4.06h28.41l4.04,4.04v8.12l-4.04,4.06Z"/>
    <path class="cls-2" d="M410.69,1953.06c-60.86,0-101.45-30.43-101.45-79.13,0-36.53,24.35-64.94,62.9-77.11-34.49-12.18-50.72-32.47-50.72-66.96,0-40.59,38.55-73.04,89.27-73.04s87.25,26.37,87.25,68.98c0,32.47-18.27,56.82-52.76,68.98,42.61,10.14,66.96,36.53,66.96,71.02,0,48.7-44.63,87.25-101.45,87.25ZM410.69,1804.93c-32.47,0-54.78,26.39-54.78,64.94,0,42.61,22.31,68.98,54.78,68.98s54.8-26.37,54.8-68.98c0-38.55-22.33-64.94-54.8-64.94ZM410.69,1671.03c-26.37,0-44.63,22.31-44.63,56.8,0,40.59,18.27,60.88,44.63,60.88,28.41,0,42.61-20.29,42.61-60.88,0-34.49-16.23-56.8-42.61-56.8Z"/>
    <path class="cls-2" d="M662.23,1951.04c-62.9,0-99.43-48.7-99.43-129.86v-12.18c0-87.25,48.72-150.15,115.68-150.15,42.59,0,71,22.33,71,52.76,0,20.29-10.14,32.47-28.41,32.47-14.2,0-22.31-10.14-22.31-20.29,0-6.1,3.25-13,8.1-16.25h18.27c-2.02-18.27-18.27-32.47-42.61-32.47-46.66,0-73.04,42.61-73.04,121.76v12.16c16.25-22.31,40.59-34.49,64.94-34.49,48.7,0,83.19,34.49,83.19,83.19s-42.61,93.35-95.37,93.35ZM662.23,1792.77c-19.47,0-38.55,14.2-48.7,36.53v28.39c0,46.68,18.27,77.11,48.7,77.11s48.7-28.39,48.7-73.04c0-40.57-20.29-68.98-48.7-68.98Z"/>
    <path class="cls-2" d="M986.84,1942.92l-8.12,4.06h-85.21l-48.72-4.06-32.45,4.06h-12.18l-4.06-4.06v-8.12l4.06-4.04,8.12-4.06c93.33-81.17,121.74-125.8,121.74-182.62,0-42.61-20.29-69-52.76-69-30.43,0-52.76,22.33-52.76,52.76h24.35c6.1,4.87,10.14,12.18,10.14,20.31,0,14.2-10.14,24.35-26.37,24.35-18.27,0-32.47-16.25-32.47-40.59,0-38.55,32.47-73.04,85.23-73.04s93.33,34.49,93.33,85.23-36.51,97.39-129.86,166.37l-4.06,2.04,24.37-2.04h77.11l16.23-4.04,8.12-8.12,6.08-18.27,4.06-4.06h6.08l4.06,4.06v54.78l-4.06,8.12Z"/>
  </g>
  <g>
    <path class="cls-2" d="M559.48,1481.18l-7.6-3.78c-73.43-36.51-144.77-90.51-212.03-160.51-65.83-68.51-124.86-149.26-175.44-240.01C58.39,886.65,0,669.41,0,465.19c0-101.39,14.65-199.87,43.54-292.71l6.07-19.5,18.12,9.41c88.99,46.23,184.31,53.91,275.65,22.2,41.19-14.3,80.05-36.06,115.52-64.68,34.43-27.78,64-60.65,87.89-97.67l14.35-22.25,14.36,22.24c23.9,37.03,53.47,69.89,87.9,97.68,35.47,28.62,74.33,50.39,115.52,64.69,36.92,12.82,74.5,19.2,112.04,19.2,55.33,0,110.57-13.86,163.59-41.41l18.12-9.42,6.07,19.5c28.71,92.19,43.26,190.03,43.26,290.82,0,204.28-58.75,421.79-165.42,612.46-50.87,90.93-110.22,171.87-176.41,240.58-67.62,70.2-139.31,124.38-213.08,161.05l-7.61,3.78Z"/>
    <g>
      <path class="cls-2" d="M109.96,618.5h984c7.17-51.45,10.96-103.36,10.96-155.19,0-96.69-13.61-193.01-42.49-285.74-200.83,104.36-403.05,6.15-501.28-146.06-98.21,152.2-300.45,250.4-501.29,146.06-29.06,93.37-42.77,190.33-42.77,287.63,0,51.74,3.76,103.54,10.86,154.88v-1.58h82.01Z"/>
      <path class="cls-1" d="M109.96,618.5H27.95v1.58c14.48,104.6,42.9,207.27,82.01,303.61v-305.19Z"/>
      <path class="cls-3" d="M109.96,618.5v305.19c23.67,58.31,51.24,114.3,82.01,166.99v-472.18h-82.01Z"/>
      <path class="cls-2" d="M191.96,618.5v472.18c25.31,43.36,52.78,84.47,82.01,122.82v-595h-82.01Z"/>
      <path class="cls-3" d="M273.97,618.5v595c26.04,34.16,53.47,66.12,82.01,95.48v-690.48h-82.01Z"/>
      <path class="cls-1" d="M355.98,618.5v690.48c26.46,27.23,53.87,52.23,82.01,74.69v-765.17h-82.01Z"/>
      <path class="cls-3" d="M437.99,618.5v765.17c26.75,21.35,54.15,40.42,82.01,56.92v-822.09h-82.01Z"/>
      <path class="cls-2" d="M520,618.5v822.09c13.07,7.74,26.24,14.93,39.49,21.52,14.27-7.1,28.45-14.88,42.52-23.3v-820.3h-82.01Z"/>
      <path class="cls-3" d="M602,618.5v820.3c27.86-16.68,55.26-35.89,82.01-57.38v-762.93h-82.01Z"/>
      <path class="cls-1" d="M684.01,618.5v762.93c28.14-22.6,55.55-47.71,82.01-75.03v-687.9h-82.01Z"/>
      <path class="cls-3" d="M766.02,618.5v687.9c28.54-29.46,55.97-61.49,82.01-95.71v-592.19h-82.01Z"/>
      <path class="cls-2" d="M848.03,618.5v592.19c29.23-38.4,56.69-79.56,82.01-122.92v-469.27h-82.01Z"/>
      <path class="cls-3" d="M930.04,618.5v469.27c30.76-52.7,58.34-108.65,82.01-166.9v-302.37h-82.01Z"/>
      <path class="cls-1" d="M1012.04,920.87c39.06-96.03,67.48-198.27,82.01-302.37h-82.01v302.37Z"/>
    </g>
    <g>
      <path class="cls-3" d="M579.32,153.12h53.36v.36l-42.97,31.87,16.64,50.75-.35.37-42.43-31.49-42.42,31.49-.37-.37,16.86-50.75-43.35-31.87v-.36h53.17l15.94-49.84h.36l15.56,49.84Z"/>
      <path class="cls-3" d="M127.95,296.73h53.35v.36l-42.98,31.86,16.67,50.76-.37.36-42.42-31.49-42.42,31.49-.37-.36,16.86-50.76-43.35-31.86v-.36h53.17l15.93-49.84h.37l15.56,49.84Z"/>
      <path class="cls-3" d="M127.95,479.18h53.35v.36l-42.98,31.86,16.67,50.76-.37.37-42.42-31.5-42.42,31.5-.37-.37,16.86-50.76-43.35-31.86v-.36h53.17l15.93-49.83h.37l15.56,49.83Z"/>
      <path class="cls-3" d="M307.5,296.73h53.36v.36l-42.98,31.86,16.67,50.76-.37.36-42.42-31.49-42.42,31.49-.37-.36,16.85-50.76-43.34-31.86v-.36h53.17l15.93-49.84h.37l15.55,49.84Z"/>
      <path class="cls-3" d="M307.5,479.18h53.36v.36l-42.98,31.86,16.67,50.76-.37.37-42.42-31.5-42.42,31.5-.37-.37,16.85-50.76-43.34-31.86v-.36h53.17l15.93-49.83h.37l15.55,49.83Z"/>
      <path class="cls-3" d="M487.06,296.73h53.36v.36l-42.98,31.86,16.67,50.76-.37.36-42.42-31.49-42.43,31.49-.37-.36,16.86-50.76-43.34-31.86v-.36h53.16l15.94-49.84h.36l15.56,49.84Z"/>
      <path class="cls-3" d="M487.06,479.18h53.36v.36l-42.98,31.86,16.67,50.76-.37.37-42.42-31.5-42.43,31.5-.37-.37,16.86-50.76-43.34-31.86v-.36h53.16l15.94-49.83h.36l15.56,49.83Z"/>
      <path class="cls-3" d="M666.61,296.73h53.34v.36l-42.97,31.86,16.68,50.76-.37.36-42.44-31.49-42.42,31.49-.35-.36,16.84-50.76-43.34-31.86v-.36h53.18l15.92-49.84h.37l15.56,49.84Z"/>
      <path class="cls-3" d="M666.61,479.18h53.34v.36l-42.97,31.86,16.68,50.76-.37.37-42.44-31.5-42.42,31.5-.35-.37,16.84-50.76-43.34-31.86v-.36h53.18l15.92-49.83h.37l15.56,49.83Z"/>
      <path class="cls-3" d="M846.17,296.73h53.32v.36l-42.97,31.86,16.68,50.76-.39.36-42.38-31.49-42.42,31.49-.39-.36,16.84-50.76-43.32-31.86v-.36h53.16l15.94-49.84h.35l15.58,49.84Z"/>
      <path class="cls-3" d="M846.17,479.18h53.32v.36l-42.97,31.86,16.68,50.76-.39.37-42.38-31.5-42.42,31.5-.39-.37,16.84-50.76-43.32-31.86v-.36h53.16l15.94-49.83h.35l15.58,49.83Z"/>
      <path class="cls-3" d="M1025.72,296.73h53.36v.36l-43.01,31.86,16.69,50.76-.35.36-42.42-31.49-42.42,31.49-.39-.36,16.88-50.76-43.36-31.86v-.36h53.16l15.94-49.84h.35l15.58,49.84Z"/>
      <path class="cls-3" d="M1025.72,479.18h53.36v.36l-43.01,31.86,16.69,50.76-.35.37-42.42-31.5-42.42,31.5-.39-.37,16.88-50.76-43.36-31.86v-.36h53.16l15.94-49.83h.35l15.58,49.83Z"/>
    </g>
  </g>
</svg>