<?xml version="1.0" encoding="UTF-8"?>
<svg id="Layer_1" data-name="Layer 1" xmlns="http://www.w3.org/2000/svg" viewBox="0 0 170.96 299.84">
  <defs>
    <style>
      .cls-1 {
        fill: #9cff00;
      }
    </style>
  </defs>
  <g>
    <path class="cls-1" d="M37.23,298.92l-4.91-.61-4.82.61h-5.93c-.2,0-.39-.07-.53-.21l-.62-.62c-.14-.14-.22-.33-.22-.53v-1.24c0-.2.08-.39.22-.53l.62-.61c.14-.14.33-.22.53-.22h4.79l1.43-.48.4-.8v-32.35l-.33-.66h-1.26l-4.49,1.5c-.08.03-.16.04-.24.04h-1.23c-.2,0-.39-.08-.53-.22l-.61-.62c-.14-.14-.22-.33-.22-.53v-1.54c0-.2.08-.39.22-.53l.61-.62c.08-.08.18-.15.29-.18l9.17-3.07,2.41-1.21c.1-.05.22-.08.34-.08h2.76c.2,0,.39.08.53.22l.62.62c.14.14.22.33.22.53v38.7l.4.8,1.43.48h4.18c.2,0,.39.08.53.22l.61.61c.14.14.22.33.22.53v1.24c0,.2-.08.39-.22.53l-.61.62c-.14.14-.33.22-.53.22h-5.23Z"/>
    <path d="M35.08,254.36l.61.62v38.87l.61,1.23,1.84.62h4.3l.61.61v1.23l-.61.62h-5.23l-4.91-.62-4.92.62h-5.84l-.61-.62v-1.23l.61-.61h4.92l1.84-.62.61-1.23v-32.7l-.61-1.23h-1.84l-4.61,1.54h-1.23l-.61-.62v-1.54l.61-.62,9.22-3.08,2.46-1.24h2.76M35.08,252.86h-2.76c-.23,0-.46.05-.67.16l-2.36,1.19-9.12,3.05c-.22.07-.42.2-.59.37l-.61.62c-.28.28-.43.66-.43,1.06v1.54c0,.4.16.77.43,1.06l.61.62c.28.28.67.44,1.07.44h1.23c.16,0,.32-.03.48-.08l4.38-1.46h.67l.04.09v32l-.18.36-1.02.34h-4.67c-.4,0-.78.16-1.06.44l-.61.61c-.28.28-.44.66-.44,1.06v1.23c0,.4.16.78.44,1.06l.61.62c.28.28.66.44,1.06.44h5.84c.06,0,.12,0,.19-.01l4.73-.59,4.73.59c.06,0,.12.01.19.01h5.23c.4,0,.78-.16,1.07-.44l.61-.62c.28-.28.43-.66.43-1.06v-1.23c0-.4-.16-.78-.44-1.06l-.61-.61c-.28-.28-.66-.44-1.06-.44h-4.06l-1.02-.34-.18-.36v-38.52c0-.4-.16-.78-.44-1.06l-.61-.62c-.28-.28-.66-.44-1.06-.44h0Z"/>
  </g>
  <g>
    <path class="cls-1" d="M62.73,299.84c-9.79,0-16.11-5.02-16.11-12.78,0-5.21,3.04-9.5,8.22-11.76-4.34-2.06-6.38-5.32-6.38-10.15,0-6.65,6.27-11.86,14.27-11.86,8.48,0,13.96,4.41,13.96,11.24,0,4.61-2.3,8.23-6.52,10.36,5.47,1.93,8.67,5.91,8.67,10.93,0,7.86-7.08,14.02-16.11,14.02ZM62.73,277.32c-4.51,0-7.54,3.67-7.54,9.12,0,5.92,2.96,9.74,7.54,9.74s7.55-3.82,7.55-9.74c0-5.46-3.03-9.12-7.55-9.12ZM62.73,256.96c-3.59,0-6.01,3.17-6.01,7.89,0,5.41,2.19,8.51,6.01,8.51s5.7-2.78,5.7-8.51c0-4.86-2.19-7.89-5.7-7.89Z"/>
    <path d="M62.73,254.05c7.99,0,13.21,4.01,13.21,10.49,0,4.94-2.77,8.64-7.99,10.49,6.45,1.54,10.14,5.55,10.14,10.8,0,7.4-6.76,13.27-15.36,13.27-9.21,0-15.36-4.63-15.36-12.03,0-5.55,3.69-9.87,9.52-11.72-5.22-1.85-7.68-4.94-7.68-10.18,0-6.17,5.84-11.11,13.52-11.11M62.73,274.1c4.3,0,6.45-3.08,6.45-9.26,0-5.24-2.46-8.64-6.45-8.64s-6.76,3.39-6.76,8.64c0,6.17,2.77,9.26,6.76,9.26M62.73,296.93c4.92,0,8.3-4.01,8.3-10.49,0-5.86-3.38-9.87-8.3-9.87s-8.29,4.01-8.29,9.87c0,6.48,3.38,10.49,8.29,10.49M62.73,252.55c-8.42,0-15.02,5.54-15.02,12.61,0,4.64,1.75,7.92,5.47,10.12-4.64,2.51-7.31,6.73-7.31,11.78,0,8.22,6.62,13.53,16.86,13.53,9.45,0,16.86-6.49,16.86-14.77,0-4.89-2.82-8.84-7.7-11.05,3.61-2.32,5.55-5.85,5.55-10.24,0-7.28-5.77-11.99-14.71-11.99h0ZM62.73,272.6c-1.96,0-5.26-1.01-5.26-7.76,0-4.34,2.06-7.14,5.26-7.14s4.95,2.67,4.95,7.14c0,7.76-3.6,7.76-4.95,7.76h0ZM62.73,295.43c-4.19,0-6.79-3.44-6.79-8.99,0-5.01,2.73-8.37,6.79-8.37s6.8,3.37,6.8,8.37c0,5.54-2.6,8.99-6.8,8.99h0Z"/>
  </g>
  <g>
    <path class="cls-1" d="M100.81,299.53c-9.9,0-15.81-7.66-15.81-20.5v-1.85c0-13.66,7.68-23.58,18.26-23.58,6.77,0,11.5,3.61,11.5,8.77,0,3.56-1.89,5.69-5.05,5.69-2.68,0-4.13-1.98-4.13-3.83,0-1.2.64-2.48,1.56-3.09.12-.08.27-.13.42-.13h1.85c-.64-2.09-2.76-3.44-5.54-3.44-6.61,0-10.27,6.24-10.31,17.57,2.46-2.5,5.73-3.95,9.08-3.95,7.73,0,13.35,5.64,13.35,13.4,0,8.24-6.81,14.94-15.19,14.94ZM94.19,284.59c0,6.77,2.54,10.97,6.62,10.97s6.62-3.97,6.62-10.36c0-5.73-2.72-9.74-6.62-9.74-2.62,0-5.2,1.95-6.62,4.97v4.15Z"/>
    <path d="M103.27,254.36c6.45,0,10.75,3.39,10.75,8.02,0,3.08-1.54,4.94-4.3,4.94-2.15,0-3.38-1.54-3.38-3.08,0-.93.49-1.98,1.23-2.47h2.77c-.31-2.78-2.77-4.94-6.45-4.94-7.06,0-11.06,6.48-11.06,18.51v1.85c2.46-3.39,6.15-5.24,9.83-5.24,7.37,0,12.6,5.24,12.6,12.65s-6.45,14.19-14.44,14.19c-9.52,0-15.06-7.4-15.06-19.75v-1.85c0-13.27,7.38-22.83,17.51-22.83M100.81,296.32c4.61,0,7.37-4.32,7.37-11.11,0-6.17-3.07-10.49-7.37-10.49-2.95,0-5.84,2.16-7.37,5.55v4.32c0,7.1,2.77,11.72,7.37,11.72M103.27,252.86c-11.02,0-19.01,10.23-19.01,24.33v1.85c0,13.3,6.19,21.25,16.56,21.25,8.79,0,15.94-7.04,15.94-15.69,0-8.2-5.93-14.15-14.1-14.15-2.98,0-5.9,1.08-8.29,2.98.26-6.37,1.99-15.1,9.52-15.1,1.95,0,3.52.73,4.35,1.94h-.66c-.3,0-.59.09-.84.26-1.13.76-1.89,2.25-1.89,3.71,0,2.25,1.82,4.58,4.88,4.58,3.58,0,5.8-2.47,5.8-6.44,0-5.61-5.04-9.52-12.25-9.52h0ZM94.94,280.61c1.31-2.68,3.59-4.39,5.87-4.39,3.46,0,5.87,3.7,5.87,8.99,0,6.02-2.2,9.61-5.87,9.61-4.33,0-5.87-5.28-5.87-10.22v-3.98h0Z"/>
  </g>
  <g>
    <path class="cls-1" d="M135.83,298.92l-7.36-.61-4.84.61h-1.94c-.2,0-.39-.07-.53-.21l-.61-.62c-.14-.14-.22-.33-.22-.53v-1.24c0-.2.08-.39.22-.53l.61-.61c.06-.06.12-.1.19-.14l1.15-.58c13.7-11.98,18.1-18.58,18.1-27.14,0-6.01-2.77-9.74-7.24-9.74-3.94,0-6.87,2.7-7.21,6.52h2.9c.17,0,.34.06.47.17,1.15.93,1.82,2.26,1.82,3.67,0,2.62-1.95,4.45-4.74,4.45-3.28,0-5.67-2.91-5.67-6.92,0-7.7,7.04-11.86,13.65-11.86,8.76,0,14.88,5.64,14.88,13.71,0,7.65-5.15,14.65-18.27,24.62l.86-.07h11.65s2.16-.54,2.16-.54l.96-.96.87-2.61c.04-.11.1-.21.18-.29l.61-.62c.14-.14.33-.22.53-.22h.92c.2,0,.39.08.53.22l.61.62c.14.14.22.33.22.53v8.33c0,.12-.03.23-.08.33l-.61,1.24c-.07.15-.19.26-.33.34l-1.23.62c-.1.05-.22.08-.34.08h-12.9Z"/>
    <path d="M134.6,254.36c8.29,0,14.13,5.24,14.13,12.96s-5.53,14.81-19.66,25.3l-.61.31,3.69-.31h11.67l2.46-.61,1.23-1.23.92-2.78.61-.62h.92l.61.62v8.33l-.61,1.23-1.23.62h-12.9l-7.38-.62-4.91.62h-1.84l-.61-.62v-1.23l.61-.61,1.23-.62c14.13-12.34,18.43-19.13,18.43-27.77,0-6.48-3.07-10.49-7.99-10.49-4.61,0-7.99,3.39-7.99,8.02h3.69c.92.74,1.54,1.85,1.54,3.09,0,2.16-1.54,3.7-3.99,3.7-2.77,0-4.92-2.47-4.92-6.17,0-5.86,4.92-11.11,12.9-11.11M134.6,252.86c-4.17,0-7.79,1.3-10.46,3.75-2.54,2.33-3.94,5.48-3.94,8.86,0,4.45,2.7,7.67,6.42,7.67,3.23,0,5.49-2.14,5.49-5.2,0-1.64-.76-3.19-2.1-4.26-.27-.21-.6-.33-.94-.33h-2.04c.62-2.98,3.1-5.02,6.34-5.02,4.06,0,6.49,3.36,6.49,8.99,0,8.29-4.32,14.74-17.78,26.51l-1.06.53c-.14.07-.27.17-.39.28l-.61.61c-.28.28-.44.66-.44,1.06v1.23c0,.4.16.78.44,1.06l.61.62c.28.28.66.44,1.06.44h1.84c.06,0,.12,0,.19-.01l4.76-.6,7.22.6s.08,0,.13,0h12.9c.23,0,.46-.05.67-.16l1.23-.62c.29-.15.53-.38.67-.67l.61-1.23c.1-.21.16-.44.16-.67v-8.33c0-.4-.16-.78-.44-1.06l-.61-.62c-.28-.28-.66-.44-1.06-.44h-.92c-.4,0-.78.16-1.06.44l-.61.62c-.16.16-.29.37-.36.59l-.81,2.44-.69.69-1.87.47h-10.12c11.97-9.4,16.72-16.26,16.72-23.8,0-8.51-6.43-14.46-15.63-14.46h0Z"/>
  </g>
  <g>
    <path d="M85.25,226.72c-.11,0-.23-.03-.33-.08l-.75-.37C28.49,199.15-18.3,103.76,7.11,25.99l.66-2.02c.07-.21.23-.39.44-.47.09-.03.18-.05.27-.05.13,0,.26.03.37.1l1.84,1.04c8.17,4.63,16.73,6.98,25.45,6.98,18.53,0,37.07-11.24,47.23-28.64l1.49-2.56c.13-.23.38-.37.65-.37h0c.27,0,.51.14.65.37l1.5,2.56c10.15,17.4,28.69,28.64,47.22,28.64h0c8.71,0,17.27-2.35,25.45-6.98l1.84-1.04c.11-.06.24-.1.37-.1.09,0,.18.02.27.05.21.08.37.25.44.47l.66,2.02c25.37,77.66-21.69,173.07-77.56,200.28l-.76.37c-.1.05-.22.08-.33.08ZM67.65,209.76c3.6,2.87,7.25,5.45,10.88,7.69v-123.35c0-.41.34-.75.75-.75h12.39c.41,0,.75.34.75.75v123.07c3.65-2.27,7.31-4.88,10.88-7.75v-115.32c0-.41.34-.75.75-.75h12.38c.41,0,.75.34.75.75v102.36c3.78-4.04,7.43-8.4,10.89-13v-89.36c0-.41.34-.75.75-.75h12.38c.41,0,.75.34.75.75v67.9c4.1-7.39,7.75-15.15,10.88-23.1v-44.81c0-.41.34-.75.75-.75h11.06c.91-7.17,1.38-14.31,1.38-21.23,0-14.47-2.04-28.53-6.06-41.82-8.13,4.1-16.59,6.18-25.16,6.18-19.05,0-37.84-10.62-49.32-27.81-11.47,17.18-30.26,27.81-49.31,27.81-8.57,0-17.03-2.08-25.16-6.18-4.05,13.37-6.1,27.53-6.1,42.1,0,6.86.45,13.91,1.33,20.95h11.1c.41,0,.75.34.75.75v45.22c3.14,7.96,6.79,15.72,10.88,23.12v-68.34c0-.41.34-.75.75-.75h12.38c.41,0,.75.34.75.75v89.79c3.46,4.58,7.12,8.93,10.89,12.96v-102.75c0-.41.34-.75.75-.75h12.38c.41,0,.75.34.75.75v115.66Z"/>
    <path class="cls-1" d="M85.5.75l1.5,2.56c9.58,16.42,27.62,29.01,47.87,29.01,8.37,0,17.13-2.15,25.82-7.08l1.84-1.04.66,2.02c25.25,77.31-21.57,172.29-77.18,199.38l-.76.37-.75-.37C29.08,198.61-17.47,103.65,7.82,26.22l.66-2.02,1.84,1.04c8.69,4.92,17.44,7.08,25.82,7.08,20.25,0,38.29-12.6,47.87-29.01l1.49-2.56M36.18,35.73c-8.3,0-16.97-1.99-25.61-6.5-4.34,14.02-6.39,28.58-6.39,43.18,0,7.24.49,14.49,1.41,21.7h11.76v45.37c3.55,9.02,7.71,17.69,12.38,25.83v-71.2h12.38v90.04c3.93,5.23,8.08,10.1,12.39,14.59v-104.63h12.38v116.02c4.04,3.25,8.18,6.15,12.38,8.67v-124.68h12.39v124.41c4.21-2.54,8.35-5.47,12.38-8.73v-115.68h12.38v104.25c4.32-4.51,8.46-9.4,12.39-14.63v-89.61h12.38v70.76c4.68-8.15,8.84-16.8,12.38-25.81v-44.95h11.72c.96-7.3,1.47-14.64,1.47-21.98,0-14.51-2.04-28.97-6.35-42.89-8.65,4.51-17.31,6.5-25.62,6.5-20.53,0-38.86-12.16-49.32-28.43-10.45,16.27-28.78,28.43-49.31,28.43M85.5-.75h0c-.53,0-1.03.28-1.29.74l-1.49,2.56c-10.02,17.17-28.31,28.27-46.58,28.27-8.58,0-17.02-2.32-25.08-6.88l-1.84-1.04c-.23-.13-.48-.2-.74-.2-.18,0-.37.03-.54.1-.42.16-.74.51-.88.93l-.66,2.02c-25.52,78.12,21.5,173.94,77.45,201.19l.74.37c.21.1.44.16.67.16s.45-.05.66-.15l.76-.37c56.14-27.34,103.42-123.18,77.94-201.19l-.66-2.02c-.14-.43-.46-.77-.88-.93-.18-.07-.36-.1-.54-.1-.26,0-.51.07-.74.2l-1.84,1.04c-8.06,4.57-16.49,6.88-25.08,6.88-18.27,0-36.56-11.1-46.58-28.27L86.79,0c-.27-.46-.76-.74-1.29-.74h0ZM36.18,37.23c18.96,0,37.66-10.38,49.31-27.22,11.66,16.85,30.36,27.22,49.32,27.22,8.41,0,16.71-1.97,24.7-5.86,3.83,12.96,5.77,26.66,5.77,40.75,0,6.68-.43,13.57-1.29,20.48h-10.4c-.83,0-1.5.67-1.5,1.5v44.66c-2.74,6.95-5.89,13.75-9.38,20.29v-64.96c0-.83-.67-1.5-1.5-1.5h-12.38c-.83,0-1.5.67-1.5,1.5v89.11c-3,3.97-6.15,7.77-9.39,11.33v-100.44c0-.83-.67-1.5-1.5-1.5h-12.38c-.83,0-1.5.67-1.5,1.5v114.96c-3.09,2.47-6.23,4.73-9.38,6.75v-121.71c0-.83-.67-1.5-1.5-1.5h-12.39c-.83,0-1.5.67-1.5,1.5v122c-3.13-1.99-6.28-4.24-9.38-6.7v-115.3c0-.83-.67-1.5-1.5-1.5h-12.38c-.83,0-1.5.67-1.5,1.5v100.84c-3.24-3.55-6.39-7.34-9.39-11.3v-89.54c0-.83-.67-1.5-1.5-1.5h-12.38c-.83,0-1.5.67-1.5,1.5v65.39c-3.49-6.54-6.63-13.35-9.38-20.31v-45.08c0-.83-.67-1.5-1.5-1.5H6.92c-.82-6.79-1.24-13.58-1.24-20.2,0-14.19,1.95-27.99,5.81-41.04,7.99,3.89,16.29,5.86,24.7,5.86h0Z"/>
  </g>
  <g>
    <path class="cls-1" d="M79.46,38.81c-.19,0-.38-.07-.53-.22-.2-.2-.33-.55-.24-.82l2.38-7.18-6.11-4.51c-.19-.14-.3-.37-.3-.6,0-.41.34-.8.75-.8h7.48l2.24-7.04c.1-.31.39-.52.71-.52s.67.21.77.53l2.19,7.03h7.51c.41,0,.75.34.75.75,0,.24-.11.51-.3.66l-6.06,4.51,2.35,7.19c.09.26.02.55-.17.75-.16.17-.4.27-.64.27-.15,0-.29-.04-.41-.13l-5.96-4.44-5.96,4.44c-.13.1-.29.15-.45.15Z"/>
    <path d="M85.89,17.86l2.35,7.56h8.06v.05l-6.49,4.83,2.51,7.7-.05.06-6.41-4.78-6.41,4.78-.06-.06,2.55-7.7-6.55-4.83v-.05h8.03l2.41-7.56h.06M85.89,16.36h-.06c-.65,0-1.23.42-1.43,1.04l-2.07,6.51h-6.93c-.83,0-1.5.67-1.5,1.5v.05c0,.48.23.92.61,1.21l5.67,4.19-2.21,6.67c-.18.54-.04,1.13.36,1.53l.06.06c.29.29.68.44,1.06.44.31,0,.63-.1.9-.3l5.51-4.11,5.51,4.11c.27.2.58.3.9.3.4,0,.8-.16,1.09-.47l.05-.06c.38-.4.51-.97.34-1.5l-2.18-6.67,5.63-4.19c.38-.28.6-.73.6-1.2v-.05c0-.83-.67-1.5-1.5-1.5h-6.95l-2.02-6.5c-.2-.63-.78-1.05-1.43-1.05h0Z"/>
  </g>
  <g>
    <path class="cls-1" d="M11.29,60.59c-.19,0-.38-.07-.52-.21-.21-.2-.34-.56-.25-.83l2.38-7.18-6.11-4.51c-.19-.14-.3-.37-.3-.6,0-.41.34-.81.75-.81h7.48l2.24-7.04c.1-.31.39-.52.71-.52s.68.21.77.53l2.19,7.03h7.5c.41,0,.75.34.75.75,0,.24-.11.52-.3.66l-6.06,4.51,2.35,7.19c.09.27.02.57-.19.77-.16.16-.39.25-.62.25-.15,0-.29-.04-.41-.13l-5.96-4.44-5.96,4.44c-.13.1-.29.15-.45.15Z"/>
    <path d="M17.72,39.64l2.35,7.56h8.06v.06l-6.49,4.83,2.52,7.7-.06.06-6.41-4.78-6.41,4.78-.06-.06,2.55-7.7-6.55-4.83v-.06h8.03l2.41-7.56h.06M17.72,38.14h-.06c-.65,0-1.23.42-1.43,1.05l-2.07,6.51h-6.93c-.83,0-1.5.67-1.5,1.5v.06c0,.48.23.92.61,1.21l5.67,4.19-2.21,6.67c-.18.54-.03,1.14.38,1.54l.06.06c.29.28.67.43,1.05.43.31,0,.63-.1.9-.3l5.51-4.11,5.51,4.11c.27.2.58.3.9.3.38,0,.77-.15,1.06-.43l.06-.06c.4-.4.55-.99.37-1.53l-2.18-6.67,5.63-4.19c.38-.28.6-.73.6-1.2v-.06c0-.83-.67-1.5-1.5-1.5h-6.95l-2.02-6.5c-.2-.63-.78-1.05-1.43-1.05h0Z"/>
  </g>
  <g>
    <path class="cls-1" d="M11.29,88.27c-.19,0-.38-.07-.53-.22-.2-.2-.33-.55-.24-.82l2.38-7.18-6.11-4.51c-.19-.14-.3-.37-.3-.6,0-.41.34-.8.75-.8h7.48l2.24-7.04c.1-.31.39-.52.71-.52s.68.21.77.53l2.19,7.03h7.5c.41,0,.75.34.75.75,0,.24-.11.51-.3.66l-6.06,4.51,2.35,7.19c.09.27.02.56-.18.76-.16.16-.4.26-.63.26-.15,0-.29-.04-.41-.13l-5.96-4.44-5.96,4.44c-.13.1-.29.15-.45.15Z"/>
    <path d="M17.72,67.32l2.35,7.56h8.06v.06l-6.49,4.83,2.52,7.7-.06.06-6.41-4.78-6.41,4.78-.06-.06,2.55-7.7-6.55-4.83v-.06h8.03l2.41-7.56h.06M17.72,65.82h-.06c-.65,0-1.23.42-1.43,1.05l-2.07,6.51h-6.93c-.83,0-1.5.67-1.5,1.5v.06c0,.48.23.92.61,1.21l5.67,4.19-2.21,6.67c-.18.54-.04,1.13.37,1.53l.06.06c.29.29.67.44,1.06.44.31,0,.63-.1.9-.3l5.51-4.11,5.51,4.11c.27.2.58.3.9.3.39,0,.77-.15,1.07-.44l.06-.06c.4-.4.54-.99.36-1.52l-2.18-6.67,5.63-4.19c.38-.28.6-.73.6-1.2v-.06c0-.83-.67-1.5-1.5-1.5h-6.95l-2.02-6.5c-.2-.63-.78-1.05-1.43-1.05h0Z"/>
  </g>
  <g>
    <path class="cls-1" d="M38.41,60.59c-.19,0-.38-.07-.52-.21-.21-.2-.33-.55-.24-.83l2.37-7.18-6.11-4.51c-.19-.14-.3-.37-.3-.6,0-.41.34-.81.75-.81h7.48l2.24-7.04c.1-.31.39-.52.71-.52s.68.21.77.53l2.18,7.03h7.51c.41,0,.75.34.75.75,0,.24-.11.52-.3.66l-6.06,4.51,2.35,7.19c.09.27.01.57-.19.77-.16.15-.39.24-.61.24-.15,0-.29-.04-.41-.13l-5.96-4.44-5.96,4.44c-.13.1-.29.15-.45.15Z"/>
    <path d="M44.84,39.64l2.35,7.56h8.06v.06l-6.49,4.83,2.52,7.7-.06.06-6.41-4.78-6.41,4.78-.06-.06,2.54-7.7-6.55-4.83v-.06h8.03l2.41-7.56h.06M44.84,38.14h-.06c-.65,0-1.23.42-1.43,1.05l-2.07,6.51h-6.93c-.83,0-1.5.67-1.5,1.5v.06c0,.48.23.92.61,1.21l5.67,4.19-2.2,6.67c-.18.54-.04,1.14.37,1.54l.06.06c.29.29.67.43,1.06.43.31,0,.63-.1.9-.3l5.51-4.11,5.51,4.11c.27.2.58.3.9.3.38,0,.76-.14,1.05-.43l.06-.06c.41-.4.55-1,.38-1.54l-2.18-6.67,5.63-4.19c.38-.28.6-.73.6-1.2v-.06c0-.83-.67-1.5-1.5-1.5h-6.95l-2.02-6.5c-.19-.63-.78-1.05-1.43-1.05h0Z"/>
  </g>
  <g>
    <path class="cls-1" d="M38.41,88.27c-.19,0-.39-.08-.53-.22-.2-.2-.32-.55-.24-.82l2.37-7.18-6.11-4.51c-.19-.14-.3-.37-.3-.6,0-.41.34-.8.75-.8h7.48l2.24-7.04c.1-.31.39-.52.71-.52s.68.21.77.53l2.18,7.03h7.51c.41,0,.75.34.75.75,0,.24-.11.51-.3.66l-6.06,4.51,2.35,7.19c.09.27.02.56-.18.76-.16.16-.4.25-.63.25-.15,0-.29-.04-.41-.13l-5.96-4.44-5.96,4.44c-.13.1-.29.15-.45.15Z"/>
    <path d="M44.84,67.32l2.35,7.56h8.06v.06l-6.49,4.83,2.52,7.7-.06.06-6.41-4.78-6.41,4.78-.06-.06,2.54-7.7-6.55-4.83v-.06h8.03l2.41-7.56h.06M44.84,65.82h-.06c-.65,0-1.23.42-1.43,1.05l-2.07,6.51h-6.93c-.83,0-1.5.67-1.5,1.5v.06c0,.48.23.92.61,1.21l5.67,4.19-2.2,6.67c-.18.54-.04,1.13.36,1.53l.06.06c.29.29.68.44,1.07.44.31,0,.63-.1.9-.3l5.51-4.11,5.51,4.11c.27.2.58.3.9.3.39,0,.77-.15,1.06-.44l.06-.06c.4-.4.54-.99.37-1.53l-2.18-6.67,5.63-4.19c.38-.28.6-.73.6-1.2v-.06c0-.83-.67-1.5-1.5-1.5h-6.95l-2.02-6.5c-.19-.63-.78-1.05-1.43-1.05h0Z"/>
  </g>
  <g>
    <path class="cls-1" d="M65.52,60.59c-.19,0-.38-.07-.52-.21-.21-.2-.33-.55-.24-.83l2.38-7.18-6.11-4.51c-.19-.14-.3-.37-.3-.6,0-.41.34-.81.75-.81h7.48l2.24-7.04c.1-.31.39-.52.71-.52s.67.21.77.53l2.19,7.03h7.51c.41,0,.75.34.75.75,0,.24-.11.52-.3.66l-6.06,4.51,2.35,7.19c.09.27.01.57-.19.77-.16.15-.39.24-.61.24-.15,0-.29-.04-.41-.13l-5.96-4.44-5.96,4.44c-.13.1-.29.15-.45.15Z"/>
    <path d="M71.96,39.64l2.35,7.56h8.06v.06l-6.49,4.83,2.52,7.7-.06.06-6.41-4.78-6.41,4.78-.06-.06,2.55-7.7-6.55-4.83v-.06h8.03l2.41-7.56h.06M71.96,38.14h-.06c-.65,0-1.23.42-1.43,1.04l-2.07,6.51h-6.93c-.83,0-1.5.67-1.5,1.5v.06c0,.48.23.92.61,1.21l5.67,4.19-2.21,6.67c-.18.54-.03,1.14.38,1.54l.06.06c.29.28.67.43,1.05.43.31,0,.63-.1.9-.3l5.51-4.11,5.51,4.11c.27.2.58.3.9.3.38,0,.76-.15,1.05-.43l.06-.06c.41-.4.55-.99.38-1.54l-2.18-6.67,5.63-4.19c.38-.28.6-.73.6-1.2v-.06c0-.83-.67-1.5-1.5-1.5h-6.95l-2.02-6.5c-.2-.63-.78-1.05-1.43-1.05h0Z"/>
  </g>
  <g>
    <path class="cls-1" d="M65.52,88.27c-.19,0-.39-.08-.53-.22-.2-.2-.32-.55-.24-.82l2.38-7.18-6.11-4.51c-.19-.14-.3-.37-.3-.6,0-.41.34-.8.75-.8h7.48l2.24-7.04c.1-.31.39-.52.71-.52s.67.21.77.53l2.19,7.03h7.51c.41,0,.75.34.75.75,0,.24-.11.51-.3.66l-6.06,4.51,2.35,7.19c.09.27.02.56-.18.76-.16.16-.4.25-.63.25-.15,0-.29-.04-.41-.13l-5.96-4.44-5.96,4.44c-.13.1-.29.15-.45.15Z"/>
    <path d="M71.96,67.32l2.35,7.56h8.06v.06l-6.49,4.83,2.52,7.7-.06.06-6.41-4.78-6.41,4.78-.06-.06,2.55-7.7-6.55-4.83v-.06h8.03l2.41-7.56h.06M71.96,65.82h-.06c-.65,0-1.23.42-1.43,1.04l-2.07,6.51h-6.93c-.83,0-1.5.67-1.5,1.5v.06c0,.48.23.92.61,1.21l5.67,4.19-2.21,6.67c-.18.54-.04,1.13.37,1.53l.06.06c.29.29.67.44,1.06.44.31,0,.63-.1.9-.3l5.51-4.11,5.51,4.11c.27.2.58.3.9.3.39,0,.77-.15,1.06-.44l.06-.06c.4-.4.54-.99.37-1.53l-2.18-6.67,5.63-4.19c.38-.28.6-.73.6-1.2v-.06c0-.83-.67-1.5-1.5-1.5h-6.95l-2.02-6.5c-.2-.63-.78-1.05-1.43-1.05h0Z"/>
  </g>
  <g>
    <path class="cls-1" d="M92.64,60.59c-.2,0-.39-.08-.54-.23-.19-.2-.32-.55-.23-.81l2.37-7.18-6.11-4.51c-.19-.14-.3-.37-.3-.6,0-.41.34-.81.75-.81h7.48l2.24-7.04c.1-.31.39-.52.71-.52s.68.21.77.53l2.19,7.03h7.5c.41,0,.75.34.75.75,0,.24-.11.52-.3.66l-6.06,4.51,2.35,7.19c.09.27.02.57-.19.77-.16.16-.39.25-.62.25-.15,0-.29-.04-.41-.13l-5.96-4.44-5.96,4.44c-.13.1-.29.15-.45.15Z"/>
    <path d="M99.08,39.64l2.35,7.56h8.05v.06l-6.49,4.83,2.52,7.7-.06.06-6.41-4.78-6.41,4.78-.05-.06,2.54-7.7-6.55-4.83v-.06h8.03l2.4-7.56h.06M99.08,38.14h-.06c-.65,0-1.23.42-1.43,1.05l-2.07,6.51h-6.93c-.83,0-1.5.67-1.5,1.5v.06c0,.48.23.92.61,1.21l5.67,4.19-2.2,6.67c-.17.53-.04,1.11.34,1.51l.05.06c.29.3.69.46,1.08.46.31,0,.63-.1.9-.3l5.51-4.11,5.51,4.11c.27.2.58.3.9.3.38,0,.76-.14,1.05-.43l.06-.06c.41-.4.55-1,.38-1.54l-2.18-6.67,5.62-4.19c.38-.28.6-.73.6-1.2v-.06c0-.83-.67-1.5-1.5-1.5h-6.95l-2.02-6.5c-.2-.63-.78-1.05-1.43-1.05h0Z"/>
  </g>
  <g>
    <path class="cls-1" d="M92.64,88.27c-.2,0-.4-.08-.55-.24-.19-.2-.31-.54-.22-.81l2.37-7.18-6.11-4.51c-.19-.14-.3-.37-.3-.6,0-.41.34-.8.75-.8h7.48l2.24-7.04c.1-.31.39-.52.71-.52s.68.21.77.53l2.19,7.03h7.5c.41,0,.75.34.75.75,0,.24-.11.51-.3.66l-6.06,4.51,2.35,7.19c.09.27.02.56-.18.76-.16.16-.4.26-.63.26-.15,0-.29-.04-.41-.13l-5.96-4.44-5.96,4.44c-.13.1-.29.15-.45.15Z"/>
    <path d="M99.08,67.32l2.35,7.56h8.05v.06l-6.49,4.83,2.52,7.7-.06.06-6.41-4.78-6.41,4.78-.05-.06,2.54-7.7-6.55-4.83v-.06h8.03l2.4-7.56h.06M99.08,65.82h-.06c-.65,0-1.23.42-1.43,1.05l-2.07,6.51h-6.93c-.83,0-1.5.67-1.5,1.5v.06c0,.48.23.92.61,1.21l5.67,4.19-2.2,6.67c-.17.52-.04,1.1.33,1.5l.05.06c.29.31.69.47,1.09.47.31,0,.63-.1.9-.3l5.51-4.11,5.51,4.11c.27.2.58.3.9.3.39,0,.77-.15,1.06-.44l.06-.06c.4-.4.54-.99.37-1.53l-2.18-6.67,5.62-4.19c.38-.28.6-.73.6-1.2v-.06c0-.83-.67-1.5-1.5-1.5h-6.95l-2.02-6.5c-.2-.63-.78-1.05-1.43-1.05h0Z"/>
  </g>
  <g>
    <path class="cls-1" d="M119.76,60.59c-.18,0-.37-.07-.51-.2-.22-.2-.35-.56-.26-.84l2.37-7.18-6.11-4.51c-.19-.14-.3-.37-.3-.6,0-.41.34-.81.75-.81h7.48l2.24-7.04c.1-.31.39-.52.71-.52s.67.21.77.53l2.19,7.03h7.5c.41,0,.75.34.75.75,0,.24-.11.52-.3.66l-6.06,4.51,2.35,7.19c.09.28.01.59-.21.79-.16.14-.39.23-.6.23-.15,0-.29-.04-.41-.13l-5.95-4.44-5.96,4.44c-.13.1-.29.15-.45.15Z"/>
    <path d="M126.2,39.64l2.35,7.56h8.05v.06l-6.49,4.83,2.52,7.7-.06.06-6.4-4.78-6.41,4.78-.06-.06,2.54-7.7-6.54-4.83v-.06h8.03l2.41-7.56h.05M126.2,38.14h-.05c-.65,0-1.23.42-1.43,1.04l-2.07,6.51h-6.93c-.83,0-1.5.67-1.5,1.5v.06c0,.48.23.92.61,1.21l5.67,4.19-2.2,6.67c-.18.55-.03,1.17.4,1.57l.06.06c.29.27.66.41,1.03.41.31,0,.63-.1.9-.3l5.51-4.11,5.5,4.11c.27.2.58.3.9.3.37,0,.74-.14,1.02-.4l.06-.06c.43-.4.58-1.01.4-1.56l-2.18-6.67,5.62-4.19c.38-.28.6-.73.6-1.2v-.06c0-.83-.67-1.5-1.5-1.5h-6.95l-2.02-6.5c-.2-.63-.78-1.05-1.43-1.05h0Z"/>
  </g>
  <g>
    <path class="cls-1" d="M119.76,88.27c-.19,0-.38-.07-.52-.21-.21-.2-.34-.56-.25-.83l2.37-7.18-6.11-4.51c-.19-.14-.3-.37-.3-.6,0-.41.34-.8.75-.8h7.48l2.24-7.04c.1-.31.39-.52.71-.52s.67.21.77.53l2.19,7.03h7.5c.41,0,.75.34.75.75,0,.24-.11.51-.3.66l-6.06,4.51,2.35,7.19c.09.28.01.58-.2.78-.16.15-.39.24-.61.24-.15,0-.29-.04-.41-.13l-5.95-4.44-5.96,4.44c-.13.1-.29.15-.45.15Z"/>
    <path d="M126.2,67.32l2.35,7.56h8.05v.06l-6.49,4.83,2.52,7.7-.06.06-6.4-4.78-6.41,4.78-.06-.06,2.54-7.7-6.54-4.83v-.06h8.03l2.41-7.56h.05M126.2,65.82h-.05c-.65,0-1.23.42-1.43,1.04l-2.07,6.51h-6.93c-.83,0-1.5.67-1.5,1.5v.06c0,.48.23.92.61,1.21l5.67,4.19-2.2,6.67c-.18.55-.03,1.16.39,1.56l.06.06c.29.27.66.41,1.04.41.31,0,.63-.1.9-.3l5.51-4.11,5.5,4.11c.27.2.58.3.9.3.37,0,.75-.14,1.03-.41l.06-.06c.42-.4.57-1,.39-1.55l-2.18-6.67,5.62-4.19c.38-.28.6-.73.6-1.2v-.06c0-.83-.67-1.5-1.5-1.5h-6.95l-2.02-6.5c-.2-.63-.78-1.05-1.43-1.05h0Z"/>
  </g>
  <g>
    <path class="cls-1" d="M146.88,60.59c-.18,0-.37-.07-.51-.2-.22-.2-.35-.56-.26-.84l2.38-7.18-6.11-4.51c-.19-.14-.3-.37-.3-.6,0-.41.34-.81.75-.81h7.48l2.24-7.04c.1-.31.39-.52.71-.52s.67.21.77.53l2.19,7.03h7.51c.41,0,.75.34.75.75,0,.24-.11.52-.3.66l-6.06,4.51,2.35,7.19c.09.27.02.56-.18.76-.16.16-.4.26-.63.26-.15,0-.29-.04-.41-.13l-5.96-4.44-5.96,4.44c-.13.1-.29.15-.45.15Z"/>
    <path d="M153.31,39.64l2.35,7.56h8.06v.06l-6.5,4.83,2.52,7.7-.05.06-6.41-4.78-6.41,4.78-.06-.06,2.55-7.7-6.55-4.83v-.06h8.03l2.41-7.56h.05M153.31,38.14h-.05c-.65,0-1.23.42-1.43,1.04l-2.07,6.51h-6.93c-.83,0-1.5.67-1.5,1.5v.06c0,.48.23.92.61,1.21l5.67,4.19-2.21,6.67c-.18.55-.03,1.16.4,1.56l.06.06c.29.27.66.41,1.03.41.31,0,.63-.1.9-.3l5.51-4.11,5.51,4.11c.27.2.58.3.9.3.4,0,.79-.16,1.08-.46l.05-.06c.38-.4.52-.98.34-1.51l-2.18-6.67,5.63-4.19c.38-.28.6-.73.6-1.2v-.06c0-.83-.67-1.5-1.5-1.5h-6.95l-2.03-6.5c-.2-.63-.78-1.05-1.43-1.05h0Z"/>
  </g>
  <g>
    <path class="cls-1" d="M146.88,88.27c-.19,0-.38-.07-.52-.21-.21-.2-.34-.56-.25-.83l2.38-7.18-6.11-4.51c-.19-.14-.3-.37-.3-.6,0-.41.34-.8.75-.8h7.48l2.24-7.04c.1-.31.39-.52.71-.52s.67.21.77.53l2.19,7.03h7.51c.41,0,.75.34.75.75,0,.24-.11.51-.3.66l-6.06,4.51,2.35,7.19c.08.26.02.55-.17.75-.16.17-.4.27-.64.27-.15,0-.29-.04-.41-.13l-5.96-4.44-5.96,4.44c-.13.1-.29.15-.45.15Z"/>
    <path d="M153.31,67.32l2.35,7.56h8.06v.06l-6.5,4.83,2.52,7.7-.05.06-6.41-4.78-6.41,4.78-.06-.06,2.55-7.7-6.55-4.83v-.06h8.03l2.41-7.56h.05M153.31,65.82h-.05c-.65,0-1.23.42-1.43,1.04l-2.07,6.51h-6.93c-.83,0-1.5.67-1.5,1.5v.06c0,.48.23.92.61,1.21l5.67,4.19-2.21,6.67c-.18.55-.03,1.15.39,1.55l.06.06c.29.28.66.42,1.04.42.31,0,.63-.1.9-.3l5.51-4.11,5.51,4.11c.27.2.58.3.9.3.4,0,.8-.16,1.09-.47l.05-.06c.38-.4.51-.97.34-1.5l-2.18-6.67,5.63-4.19c.38-.28.6-.73.6-1.2v-.06c0-.83-.67-1.5-1.5-1.5h-6.95l-2.03-6.5c-.2-.63-.78-1.05-1.43-1.05h0Z"/>
  </g>
</svg>