<?xml version="1.0" encoding="UTF-8"?>
<svg id="Layer_4" data-name="Layer 4" xmlns="http://www.w3.org/2000/svg" viewBox="0 0 1122 1967.03">
  <defs>
    <style>
      .cls-1 {
        fill: #fff;
      }
    </style>
  </defs>
  <g>
    <path class="cls-1" d="M276.17,1960.93h-34.6l-32.53-4.07-32.55,4.07h-38.65l-4.07-4.07v-8.14l4.07-4.05h32.55l12.19-4.07,4.07-8.14v-215.63l-4.07-8.12h-12.19l-30.53,10.17h-8.14l-4.05-4.07v-10.17l4.05-4.07,61.03-20.34,16.29-8.14h18.29l4.07,4.07v256.3l4.07,8.14,12.21,4.07h28.48l4.05,4.05v8.14l-4.05,4.07Z"/>
    <path class="cls-1" d="M410.37,1967.03c-61.01,0-101.71-30.51-101.71-79.32,0-36.62,24.41-65.1,63.06-77.3-34.58-12.21-50.84-32.55-50.84-67.13,0-40.69,38.65-73.23,89.49-73.23s87.47,26.43,87.47,69.16c0,32.55-18.31,56.96-52.89,69.16,42.72,10.17,67.13,36.62,67.13,71.2,0,48.82-44.75,87.47-101.71,87.47ZM410.37,1818.53c-32.55,0-54.92,26.45-54.92,65.1,0,42.72,22.36,69.16,54.92,69.16s54.94-26.43,54.94-69.16c0-38.65-22.38-65.1-54.94-65.1ZM410.37,1684.29c-26.43,0-44.75,22.36-44.75,56.94,0,40.69,18.31,61.03,44.75,61.03,28.48,0,42.72-20.34,42.72-61.03,0-34.58-16.27-56.94-42.72-56.94Z"/>
    <path class="cls-1" d="M662.54,1965c-63.06,0-99.68-48.82-99.68-130.19v-12.21c0-87.47,48.84-150.53,115.97-150.53,42.7,0,71.18,22.38,71.18,52.89,0,20.34-10.17,32.55-28.48,32.55-14.24,0-22.36-10.17-22.36-20.34,0-6.12,3.26-13.03,8.12-16.29h18.31c-2.03-18.31-18.31-32.55-42.72-32.55-46.77,0-73.23,42.72-73.23,122.07v12.19c16.29-22.36,40.69-34.58,65.1-34.58,48.82,0,83.4,34.58,83.4,83.4s-42.72,93.58-95.61,93.58ZM662.54,1806.33c-19.52,0-38.65,14.24-48.82,36.62v28.46c0,46.79,18.31,77.3,48.82,77.3s48.82-28.46,48.82-73.23c0-40.68-20.34-69.16-48.82-69.16Z"/>
    <path class="cls-1" d="M987.96,1956.86l-8.14,4.07h-85.42l-48.84-4.07-32.53,4.07h-12.21l-4.07-4.07v-8.14l4.07-4.05,8.14-4.07c93.56-81.37,122.05-126.12,122.05-183.08,0-42.72-20.34-69.18-52.89-69.18-30.51,0-52.89,22.38-52.89,52.89h24.41c6.12,4.89,10.17,12.21,10.17,20.36,0,14.24-10.17,24.41-26.43,24.41-18.31,0-32.55-16.29-32.55-40.69,0-38.65,32.55-73.23,85.44-73.23s93.56,34.58,93.56,85.44-36.6,97.64-130.19,166.79l-4.07,2.05,24.43-2.05h77.3l16.27-4.05,8.14-8.14,6.1-18.31,4.07-4.07h6.1l4.07,4.07v54.92l-4.07,8.14Z"/>
  </g>
  <g>
    <path class="cls-1" d="M551.26,16.86c-89.7,152.98-291.18,255.65-487.93,144.64l-12.18-6.86-4.35,13.28c-167.47,510.54,140.81,1136.6,507.7,1314.55l5,2.43,5.01-2.43c368.17-178.59,678.2-804.77,510.98-1314.55l-4.36-13.28-12.19,6.86c-196.74,111.01-398.22,8.33-487.91-144.64l-9.89-16.86-9.89,16.86ZM561.15,43.21c97.22,150.64,297.36,247.84,496.12,144.56,28.58,91.78,42.05,187.11,42.05,282.8,0,420.02-250.9,844.89-539.82,988.52C271.96,1316.12,22.68,892.29,22.68,472.43c0-96.29,13.57-192.26,42.33-284.67,198.77,103.27,398.93,6.08,496.13-144.56Z"/>
    <g>
      <path class="cls-1" d="M109.95,615.47H27.94v1.58c14.48,104.6,42.91,207.28,82.01,303.62v-305.2Z"/>
      <path class="cls-1" d="M191.96,615.47v472.19c25.31,43.36,52.78,84.48,82.01,122.82v-595.01h-82.01Z"/>
      <path class="cls-1" d="M355.98,615.47v690.49c26.46,27.23,53.87,52.23,82.01,74.69v-765.18h-82.01Z"/>
      <path class="cls-1" d="M520,615.47v822.1c13.07,7.74,26.24,14.93,39.49,21.52,14.27-7.1,28.45-14.88,42.52-23.3v-820.31h-82.01Z"/>
      <path class="cls-1" d="M684.01,615.47v762.93c28.14-22.6,55.55-47.71,82.01-75.03v-687.9h-82.01Z"/>
      <path class="cls-1" d="M848.03,615.47v592.2c29.23-38.4,56.69-79.56,82.01-122.92v-469.28h-82.01Z"/>
      <path class="cls-1" d="M1012.05,917.85c39.06-96.03,67.48-198.27,82.01-302.38h-82.01v302.38Z"/>
    </g>
    <g>
      <path class="cls-1" d="M579.32,162.65h53.36v.36l-42.97,31.87,16.65,50.75-.35.37-42.43-31.49-42.42,31.49-.37-.37,16.86-50.75-43.35-31.87v-.36h53.17l15.94-49.84h.36l15.56,49.84Z"/>
      <path class="cls-1" d="M127.95,306.26h53.35v.36l-42.98,31.86,16.67,50.76-.37.36-42.42-31.49-42.42,31.49-.37-.36,16.86-50.76-43.35-31.86v-.36h53.17l15.93-49.84h.37l15.56,49.84Z"/>
      <path class="cls-1" d="M127.95,488.71h53.35v.36l-42.98,31.86,16.67,50.76-.37.37-42.42-31.5-42.42,31.5-.37-.37,16.86-50.76-43.35-31.86v-.36h53.17l15.93-49.83h.37l15.56,49.83Z"/>
      <path class="cls-1" d="M307.5,306.26h53.36v.36l-42.98,31.86,16.67,50.76-.37.36-42.42-31.49-42.42,31.49-.37-.36,16.85-50.76-43.34-31.86v-.36h53.17l15.93-49.84h.37l15.55,49.84Z"/>
      <path class="cls-1" d="M307.5,488.71h53.36v.36l-42.98,31.86,16.67,50.76-.37.37-42.42-31.5-42.42,31.5-.37-.37,16.85-50.76-43.34-31.86v-.36h53.17l15.93-49.83h.37l15.55,49.83Z"/>
      <path class="cls-1" d="M487.05,306.26h53.36v.36l-42.98,31.86,16.67,50.76-.37.36-42.42-31.49-42.43,31.49-.37-.36,16.86-50.76-43.34-31.86v-.36h53.16l15.94-49.84h.36l15.56,49.84Z"/>
      <path class="cls-1" d="M487.05,488.71h53.36v.36l-42.98,31.86,16.67,50.76-.37.37-42.42-31.5-42.43,31.5-.37-.37,16.86-50.76-43.34-31.86v-.36h53.16l15.94-49.83h.36l15.56,49.83Z"/>
      <path class="cls-1" d="M666.61,306.26h53.34v.36l-42.97,31.86,16.68,50.76-.37.36-42.44-31.49-42.42,31.49-.35-.36,16.84-50.76-43.34-31.86v-.36h53.18l15.92-49.84h.37l15.56,49.84Z"/>
      <path class="cls-1" d="M666.61,488.71h53.34v.36l-42.97,31.86,16.68,50.76-.37.37-42.44-31.5-42.42,31.5-.35-.37,16.84-50.76-43.34-31.86v-.36h53.18l15.92-49.83h.37l15.56,49.83Z"/>
      <path class="cls-1" d="M846.18,306.26h53.32v.36l-42.97,31.86,16.68,50.76-.39.36-42.38-31.49-42.42,31.49-.39-.36,16.84-50.76-43.32-31.86v-.36h53.16l15.94-49.84h.35l15.58,49.84Z"/>
      <path class="cls-1" d="M846.18,488.71h53.32v.36l-42.97,31.86,16.68,50.76-.39.37-42.38-31.5-42.42,31.5-.39-.37,16.84-50.76-43.32-31.86v-.36h53.16l15.94-49.83h.35l15.58,49.83Z"/>
      <path class="cls-1" d="M1025.73,306.26h53.36v.36l-43.01,31.86,16.69,50.76-.35.36-42.42-31.49-42.42,31.49-.39-.36,16.88-50.76-43.36-31.86v-.36h53.16l15.94-49.84h.35l15.58,49.84Z"/>
      <path class="cls-1" d="M1025.73,488.71h53.36v.36l-43.01,31.86,16.69,50.76-.35.37-42.42-31.5-42.42,31.5-.39-.37,16.88-50.76-43.36-31.86v-.36h53.16l15.94-49.83h.35l15.58,49.83Z"/>
    </g>
  </g>
</svg>