<?xml version="1.0" encoding="UTF-8"?>
<svg id="Layer_1" data-name="Layer 1" xmlns="http://www.w3.org/2000/svg" viewBox="0 0 801.13 301.34">
  <defs>
    <style>
      .cls-1 {
        fill: #9cff00;
      }
    </style>
  </defs>
  <g>
    <g>
      <path class="cls-1" d="M36.48,301.17l-4.91-.61-4.82.61h-5.93c-.2,0-.39-.07-.53-.21l-.62-.62c-.14-.14-.22-.33-.22-.53v-1.23c0-.2.08-.39.22-.53l.62-.62c.14-.14.33-.22.53-.22h4.79l1.43-.48.4-.8v-32.35l-.33-.66h-1.26l-4.49,1.5c-.08.03-.16.04-.24.04h-1.23c-.2,0-.39-.08-.53-.22l-.61-.62c-.14-.14-.22-.33-.22-.53v-1.54c0-.2.08-.39.22-.53l.61-.62c.08-.08.18-.15.29-.18l9.17-3.07,2.41-1.21c.1-.05.22-.08.34-.08h2.76c.2,0,.39.08.53.22l.61.62c.14.14.22.33.22.53v38.7l.4.8,1.43.48h4.18c.2,0,.39.08.53.22l.61.62c.14.14.22.33.22.53v1.23c0,.2-.08.39-.22.53l-.61.62c-.14.14-.33.22-.53.22h-5.23Z"/>
      <path d="M34.33,256.61l.61.62v38.87l.61,1.23,1.84.62h4.3l.61.61v1.24l-.61.62h-5.23l-4.91-.62-4.92.62h-5.84l-.61-.62v-1.24l.61-.61h4.92l1.84-.62.61-1.23v-32.7l-.61-1.23h-1.84l-4.61,1.54h-1.23l-.61-.62v-1.54l.61-.62,9.22-3.08,2.46-1.24h2.76M34.33,255.11h-2.76c-.23,0-.46.05-.67.16l-2.36,1.19-9.12,3.05c-.22.07-.42.2-.59.37l-.61.62c-.28.28-.43.66-.43,1.06v1.54c0,.4.16.77.43,1.06l.61.62c.28.28.67.44,1.07.44h1.23c.16,0,.32-.03.48-.08l4.38-1.47h.67l.04.09v32l-.18.36-1.02.34h-4.67c-.4,0-.78.16-1.06.44l-.61.61c-.28.28-.44.66-.44,1.06v1.24c0,.4.16.78.44,1.06l.61.62c.28.28.66.44,1.06.44h5.84c.06,0,.12,0,.19-.01l4.73-.59,4.73.59c.06,0,.12.01.19.01h5.23c.4,0,.78-.16,1.07-.44l.61-.62c.28-.28.43-.66.43-1.06v-1.24c0-.4-.16-.78-.44-1.06l-.61-.61c-.28-.28-.66-.44-1.06-.44h-4.06l-1.02-.34-.18-.36v-38.52c0-.4-.16-.78-.44-1.06l-.61-.62c-.28-.28-.66-.44-1.06-.44h0Z"/>
    </g>
    <g>
      <path class="cls-1" d="M61.98,302.09c-9.79,0-16.11-5.02-16.11-12.78,0-5.21,3.04-9.5,8.22-11.76-4.34-2.06-6.38-5.33-6.38-10.15,0-6.65,6.27-11.86,14.27-11.86,8.48,0,13.96,4.41,13.96,11.24,0,4.61-2.3,8.23-6.52,10.36,5.47,1.93,8.67,5.91,8.67,10.93,0,7.86-7.08,14.02-16.11,14.02ZM61.98,279.57c-4.51,0-7.54,3.67-7.54,9.12,0,5.92,2.96,9.74,7.54,9.74s7.55-3.82,7.55-9.74c0-5.46-3.03-9.12-7.55-9.12ZM61.98,259.21c-3.59,0-6.01,3.17-6.01,7.89,0,5.41,2.19,8.51,6.01,8.51s5.7-2.78,5.7-8.51c0-4.86-2.18-7.89-5.7-7.89Z"/>
      <path d="M61.98,256.3c7.99,0,13.21,4.01,13.21,10.49,0,4.94-2.77,8.64-7.99,10.49,6.45,1.54,10.14,5.55,10.14,10.8,0,7.4-6.76,13.27-15.36,13.27-9.21,0-15.36-4.63-15.36-12.03,0-5.55,3.69-9.87,9.52-11.72-5.22-1.85-7.68-4.94-7.68-10.18,0-6.17,5.84-11.11,13.52-11.11M61.98,276.35c4.3,0,6.45-3.08,6.45-9.26,0-5.24-2.46-8.64-6.45-8.64s-6.76,3.39-6.76,8.64c0,6.17,2.77,9.26,6.76,9.26M61.98,299.18c4.92,0,8.3-4.01,8.3-10.49,0-5.86-3.38-9.87-8.3-9.87s-8.29,4.01-8.29,9.87c0,6.48,3.38,10.49,8.29,10.49M61.98,254.8c-8.42,0-15.02,5.54-15.02,12.61,0,4.64,1.75,7.92,5.47,10.12-4.64,2.51-7.31,6.73-7.31,11.78,0,8.22,6.62,13.53,16.86,13.53,9.45,0,16.86-6.49,16.86-14.77,0-4.89-2.82-8.84-7.7-11.05,3.61-2.32,5.55-5.85,5.55-10.24,0-7.28-5.77-11.99-14.71-11.99h0ZM61.98,274.85c-1.96,0-5.26-1.01-5.26-7.76,0-4.34,2.06-7.14,5.26-7.14s4.95,2.67,4.95,7.14c0,7.76-3.6,7.76-4.95,7.76h0ZM61.98,297.68c-4.19,0-6.79-3.44-6.79-8.99,0-5.01,2.73-8.37,6.79-8.37s6.8,3.37,6.8,8.37c0,5.54-2.6,8.99-6.8,8.99h0Z"/>
    </g>
    <g>
      <path class="cls-1" d="M100.06,301.78c-9.9,0-15.81-7.66-15.81-20.5v-1.85c0-13.66,7.68-23.58,18.26-23.58,6.77,0,11.5,3.61,11.5,8.77,0,3.56-1.89,5.69-5.05,5.69-2.68,0-4.13-1.98-4.13-3.83,0-1.2.64-2.47,1.56-3.09.12-.08.27-.13.42-.13h1.85c-.64-2.09-2.76-3.44-5.54-3.44-6.61,0-10.27,6.24-10.31,17.57,2.46-2.5,5.73-3.95,9.08-3.95,7.73,0,13.34,5.64,13.34,13.4,0,8.24-6.81,14.94-15.19,14.94ZM93.44,286.84c0,6.77,2.54,10.97,6.62,10.97s6.62-3.97,6.62-10.36c0-5.73-2.72-9.74-6.62-9.74-2.62,0-5.2,1.95-6.62,4.97v4.15Z"/>
      <path d="M102.52,256.61c6.45,0,10.75,3.4,10.75,8.02,0,3.08-1.54,4.94-4.3,4.94-2.15,0-3.38-1.54-3.38-3.08,0-.93.49-1.98,1.23-2.47h2.77c-.31-2.78-2.77-4.94-6.45-4.94-7.06,0-11.06,6.48-11.06,18.51v1.85c2.46-3.39,6.15-5.24,9.83-5.24,7.37,0,12.6,5.24,12.6,12.65s-6.45,14.19-14.44,14.19c-9.52,0-15.06-7.4-15.06-19.75v-1.85c0-13.27,7.38-22.83,17.51-22.83M100.06,298.56c4.61,0,7.37-4.32,7.37-11.11,0-6.17-3.07-10.49-7.37-10.49-2.95,0-5.84,2.16-7.37,5.55v4.32c0,7.1,2.77,11.72,7.37,11.72M102.52,255.11c-11.02,0-19.01,10.23-19.01,24.33v1.85c0,13.3,6.19,21.25,16.56,21.25,8.79,0,15.94-7.04,15.94-15.69,0-8.2-5.93-14.15-14.1-14.15-2.98,0-5.9,1.08-8.29,2.98.26-6.37,1.99-15.1,9.52-15.1,1.95,0,3.52.73,4.35,1.94h-.66c-.3,0-.59.09-.84.26-1.13.76-1.89,2.25-1.89,3.72,0,2.25,1.82,4.58,4.88,4.58,3.58,0,5.8-2.47,5.8-6.44,0-5.61-5.04-9.52-12.25-9.52h0ZM94.19,282.86c1.31-2.68,3.59-4.39,5.87-4.39,3.46,0,5.87,3.7,5.87,8.99,0,6.02-2.2,9.61-5.87,9.61-4.33,0-5.87-5.28-5.87-10.22v-3.98h0Z"/>
    </g>
    <g>
      <path class="cls-1" d="M135.08,301.17l-7.36-.61-4.83.61h-1.94c-.2,0-.39-.07-.53-.21l-.62-.62c-.14-.14-.22-.33-.22-.53v-1.23c0-.2.08-.39.22-.53l.62-.62c.06-.06.12-.1.19-.14l1.14-.58c13.7-11.98,18.1-18.58,18.1-27.14,0-6.01-2.77-9.74-7.24-9.74-3.94,0-6.87,2.7-7.21,6.52h2.9c.17,0,.34.06.47.17,1.16.92,1.82,2.26,1.82,3.67,0,2.62-1.95,4.45-4.74,4.45-3.28,0-5.67-2.91-5.67-6.92,0-7.7,7.04-11.86,13.65-11.86,8.76,0,14.88,5.64,14.88,13.71,0,7.65-5.16,14.65-18.27,24.62l.86-.07h11.64s2.17-.54,2.17-.54l.96-.96.87-2.61c.04-.11.1-.21.18-.29l.62-.62c.14-.14.33-.22.53-.22h.92c.2,0,.39.08.53.22l.61.62c.14.14.22.33.22.53v8.33c0,.12-.03.23-.08.33l-.61,1.23c-.07.15-.19.26-.33.34l-1.23.62c-.1.05-.22.08-.34.08h-12.9Z"/>
      <path d="M133.85,256.61c8.29,0,14.13,5.24,14.13,12.96s-5.53,14.81-19.66,25.3l-.61.31,3.69-.31h11.67l2.46-.61,1.23-1.23.92-2.78.61-.62h.92l.61.62v8.33l-.61,1.24-1.23.62h-12.9l-7.38-.62-4.91.62h-1.84l-.61-.62v-1.24l.61-.61,1.23-.62c14.13-12.34,18.43-19.13,18.43-27.77,0-6.48-3.07-10.49-7.99-10.49-4.61,0-7.99,3.39-7.99,8.02h3.69c.92.74,1.54,1.85,1.54,3.09,0,2.16-1.54,3.7-3.99,3.7-2.77,0-4.92-2.47-4.92-6.17,0-5.86,4.92-11.11,12.9-11.11M133.85,255.11c-4.17,0-7.79,1.3-10.46,3.75-2.54,2.33-3.94,5.48-3.94,8.86,0,4.45,2.7,7.67,6.42,7.67,3.23,0,5.49-2.14,5.49-5.2,0-1.64-.76-3.19-2.1-4.26-.27-.21-.6-.33-.94-.33h-2.04c.62-2.98,3.1-5.02,6.34-5.02,4.06,0,6.49,3.36,6.49,8.99,0,8.29-4.32,14.75-17.78,26.51l-1.06.53c-.14.07-.27.17-.39.28l-.61.61c-.28.28-.44.66-.44,1.06v1.24c0,.4.16.78.44,1.06l.61.62c.28.28.66.44,1.06.44h1.84c.06,0,.12,0,.19-.01l4.76-.6,7.22.6s.08,0,.12,0h12.9c.23,0,.46-.05.67-.16l1.23-.62c.29-.15.53-.38.67-.67l.61-1.24c.1-.21.16-.44.16-.67v-8.33c0-.4-.16-.78-.44-1.06l-.61-.62c-.28-.28-.66-.44-1.06-.44h-.92c-.4,0-.78.16-1.06.44l-.61.62c-.16.16-.29.37-.36.59l-.81,2.44-.69.69-1.87.47h-10.12c11.97-9.4,16.72-16.26,16.72-23.8,0-8.51-6.43-14.46-15.63-14.46h0Z"/>
    </g>
    <g>
      <path d="M84.5,228.97c-.11,0-.23-.03-.33-.08l-.75-.37C27.74,201.4-19.05,106.01,6.36,28.24l.66-2.02c.07-.21.23-.39.44-.47.09-.03.18-.05.27-.05.13,0,.26.03.37.1l1.84,1.04c8.17,4.63,16.73,6.98,25.45,6.98,18.53,0,37.07-11.24,47.23-28.64l1.49-2.56c.13-.23.38-.37.65-.37h0c.27,0,.51.14.65.37l1.5,2.56c10.15,17.4,28.69,28.64,47.22,28.64h0c8.71,0,17.27-2.35,25.45-6.98l1.84-1.04c.11-.06.24-.1.37-.1.09,0,.18.02.27.05.21.08.37.25.44.47l.66,2.02c25.37,77.66-21.69,173.07-77.56,200.28l-.76.37c-.1.05-.22.08-.33.08ZM66.9,212.01c3.6,2.87,7.25,5.45,10.88,7.69v-123.35c0-.41.34-.75.75-.75h12.39c.41,0,.75.34.75.75v123.07c3.65-2.27,7.31-4.87,10.88-7.75v-115.32c0-.41.34-.75.75-.75h12.38c.41,0,.75.34.75.75v102.36c3.77-4.04,7.43-8.4,10.89-13v-89.36c0-.41.34-.75.75-.75h12.38c.41,0,.75.34.75.75v67.9c4.1-7.39,7.75-15.15,10.88-23.1v-44.81c0-.41.34-.75.75-.75h11.06c.91-7.16,1.38-14.3,1.38-21.23,0-14.47-2.04-28.53-6.06-41.82-8.13,4.1-16.59,6.18-25.16,6.18-19.05,0-37.84-10.62-49.32-27.81-11.47,17.18-30.26,27.81-49.31,27.81-8.57,0-17.03-2.08-25.16-6.18-4.05,13.37-6.1,27.53-6.1,42.1,0,6.86.45,13.9,1.33,20.95h11.1c.41,0,.75.34.75.75v45.22c3.14,7.96,6.79,15.72,10.88,23.12v-68.34c0-.41.34-.75.75-.75h12.38c.41,0,.75.34.75.75v89.79c3.46,4.58,7.12,8.94,10.89,12.96v-102.75c0-.41.34-.75.75-.75h12.38c.41,0,.75.34.75.75v115.66Z"/>
      <path class="cls-1" d="M84.75,3l1.5,2.56c9.58,16.42,27.62,29.01,47.87,29.01,8.37,0,17.13-2.15,25.82-7.08l1.84-1.04.66,2.02c25.25,77.31-21.57,172.29-77.18,199.38l-.76.37-.75-.37C28.33,200.86-18.22,105.9,7.07,28.47l.66-2.02,1.84,1.04c8.69,4.92,17.44,7.08,25.82,7.08,20.25,0,38.29-12.6,47.87-29.01l1.49-2.56M35.43,37.98c-8.3,0-16.97-1.99-25.61-6.5-4.34,14.02-6.39,28.58-6.39,43.18,0,7.24.49,14.49,1.41,21.7h11.76v45.37c3.55,9.02,7.71,17.69,12.38,25.83v-71.2h12.38v90.04c3.93,5.23,8.08,10.1,12.39,14.59v-104.63h12.38v116.02c4.04,3.25,8.18,6.15,12.38,8.67v-124.68h12.39v124.41c4.21-2.54,8.35-5.47,12.38-8.73v-115.68h12.38v104.25c4.32-4.51,8.46-9.4,12.39-14.63v-89.61h12.38v70.76c4.68-8.15,8.84-16.8,12.38-25.81v-44.95h11.72c.96-7.3,1.47-14.64,1.47-21.98,0-14.51-2.04-28.97-6.35-42.89-8.65,4.51-17.31,6.5-25.62,6.5-20.53,0-38.86-12.16-49.32-28.43-10.45,16.27-28.78,28.43-49.31,28.43M84.75,1.5h0c-.53,0-1.03.28-1.29.74l-1.49,2.56c-10.02,17.17-28.31,28.27-46.58,28.27-8.58,0-17.02-2.32-25.08-6.88l-1.84-1.04c-.23-.13-.48-.2-.74-.2-.18,0-.37.03-.54.1-.42.16-.74.51-.88.93l-.66,2.02c-25.52,78.12,21.5,173.94,77.45,201.19l.74.37c.21.1.44.16.67.16s.45-.05.66-.15l.76-.37c56.14-27.34,103.42-123.18,77.94-201.19l-.66-2.02c-.14-.43-.46-.77-.88-.93-.18-.07-.36-.1-.54-.1-.26,0-.51.07-.74.2l-1.84,1.04c-8.06,4.57-16.49,6.88-25.08,6.88-18.27,0-36.56-11.1-46.58-28.27l-1.5-2.56c-.27-.46-.76-.74-1.29-.74h0ZM35.43,39.48c18.96,0,37.66-10.38,49.31-27.22,11.66,16.85,30.36,27.22,49.32,27.22,8.41,0,16.71-1.97,24.7-5.86,3.83,12.96,5.77,26.66,5.77,40.75,0,6.68-.43,13.57-1.29,20.48h-10.4c-.83,0-1.5.67-1.5,1.5v44.66c-2.74,6.95-5.89,13.75-9.38,20.29v-64.96c0-.83-.67-1.5-1.5-1.5h-12.38c-.83,0-1.5.67-1.5,1.5v89.11c-3,3.97-6.15,7.77-9.39,11.33v-100.44c0-.83-.67-1.5-1.5-1.5h-12.38c-.83,0-1.5.67-1.5,1.5v114.96c-3.09,2.47-6.23,4.73-9.38,6.75v-121.71c0-.83-.67-1.5-1.5-1.5h-12.39c-.83,0-1.5.67-1.5,1.5v122c-3.13-1.99-6.28-4.24-9.38-6.7v-115.3c0-.83-.67-1.5-1.5-1.5h-12.38c-.83,0-1.5.67-1.5,1.5v100.84c-3.24-3.55-6.39-7.34-9.39-11.3v-89.54c0-.83-.67-1.5-1.5-1.5h-12.38c-.83,0-1.5.67-1.5,1.5v65.39c-3.49-6.54-6.63-13.35-9.38-20.31v-45.08c0-.83-.67-1.5-1.5-1.5H6.17c-.82-6.79-1.24-13.58-1.24-20.2,0-14.19,1.95-27.99,5.81-41.04,7.99,3.89,16.29,5.86,24.7,5.86h0Z"/>
    </g>
    <g>
      <path class="cls-1" d="M78.71,41.06c-.19,0-.38-.07-.53-.22-.2-.2-.33-.55-.24-.82l2.38-7.18-6.11-4.51c-.19-.14-.3-.37-.3-.6,0-.41.34-.81.75-.81h7.48l2.24-7.04c.1-.31.39-.52.71-.52s.67.21.77.53l2.19,7.03h7.51c.41,0,.75.34.75.75,0,.24-.11.52-.3.66l-6.06,4.51,2.35,7.19c.09.26.02.55-.17.75-.16.17-.4.27-.64.27-.15,0-.29-.04-.41-.13l-5.96-4.44-5.96,4.44c-.13.1-.29.15-.45.15Z"/>
      <path d="M85.14,20.11l2.35,7.56h8.06v.05l-6.49,4.83,2.51,7.7-.05.06-6.41-4.78-6.41,4.78-.06-.06,2.55-7.7-6.55-4.83v-.05h8.03l2.41-7.56h.06M85.14,18.61h-.06c-.65,0-1.23.42-1.43,1.04l-2.07,6.51h-6.93c-.83,0-1.5.67-1.5,1.5v.05c0,.48.23.92.61,1.21l5.67,4.19-2.21,6.67c-.18.54-.04,1.13.36,1.53l.06.06c.29.29.68.44,1.06.44.31,0,.63-.1.9-.3l5.51-4.11,5.51,4.11c.27.2.58.3.9.3.4,0,.8-.16,1.09-.47l.05-.06c.38-.4.51-.97.34-1.5l-2.18-6.67,5.63-4.19c.38-.28.6-.73.6-1.2v-.05c0-.83-.67-1.5-1.5-1.5h-6.95l-2.02-6.5c-.2-.63-.78-1.05-1.43-1.05h0Z"/>
    </g>
    <g>
      <path class="cls-1" d="M10.54,62.84c-.19,0-.38-.07-.53-.22-.2-.2-.33-.55-.24-.82l2.38-7.18-6.11-4.51c-.19-.14-.3-.37-.3-.6,0-.41.34-.8.75-.8h7.48l2.24-7.04c.1-.31.39-.52.71-.52s.67.21.77.53l2.19,7.03h7.5c.41,0,.75.34.75.75,0,.24-.11.51-.3.66l-6.06,4.51,2.35,7.19c.09.27.02.56-.18.76-.16.16-.4.25-.62.25-.15,0-.29-.04-.41-.13l-5.96-4.44-5.96,4.44c-.13.1-.29.15-.45.15Z"/>
      <path d="M16.97,41.89l2.35,7.56h8.06v.05l-6.49,4.83,2.52,7.7-.06.06-6.41-4.78-6.41,4.78-.06-.06,2.55-7.7-6.55-4.83v-.05h8.03l2.41-7.56h.06M16.97,40.39h-.06c-.65,0-1.23.42-1.43,1.05l-2.07,6.51h-6.93c-.83,0-1.5.67-1.5,1.5v.05c0,.48.23.92.61,1.21l5.67,4.19-2.21,6.67c-.18.54-.03,1.14.38,1.54l.06.06c.29.28.67.43,1.05.43.31,0,.63-.1.9-.3l5.51-4.11,5.51,4.11c.27.2.58.3.9.3.38,0,.77-.15,1.06-.43l.06-.06c.4-.4.55-.99.37-1.53l-2.18-6.67,5.63-4.19c.38-.28.6-.73.6-1.2v-.05c0-.83-.67-1.5-1.5-1.5h-6.95l-2.02-6.5c-.2-.63-.78-1.05-1.43-1.05h0Z"/>
    </g>
    <g>
      <path class="cls-1" d="M10.54,90.52c-.2,0-.39-.08-.54-.22-.2-.2-.32-.55-.23-.82l2.38-7.18-6.11-4.51c-.19-.14-.3-.37-.3-.6,0-.41.34-.81.75-.81h7.48l2.24-7.04c.1-.31.39-.52.71-.52s.67.21.77.53l2.19,7.03h7.5c.41,0,.75.34.75.75,0,.24-.11.52-.3.66l-6.06,4.51,2.35,7.19c.09.27.02.56-.18.76-.16.16-.4.26-.63.26-.15,0-.29-.04-.41-.13l-5.96-4.44-5.96,4.44c-.13.1-.29.15-.45.15Z"/>
      <path d="M16.97,69.57l2.35,7.56h8.06v.06l-6.49,4.83,2.52,7.7-.06.06-6.41-4.78-6.41,4.78-.06-.06,2.55-7.7-6.55-4.83v-.06h8.03l2.41-7.56h.06M16.97,68.07h-.06c-.65,0-1.23.42-1.43,1.05l-2.07,6.51h-6.93c-.83,0-1.5.67-1.5,1.5v.06c0,.48.23.92.61,1.21l5.67,4.19-2.21,6.67c-.18.54-.04,1.14.37,1.54l.06.06c.29.29.67.43,1.06.43.31,0,.63-.1.9-.3l5.51-4.11,5.51,4.11c.27.2.58.3.9.3.39,0,.77-.15,1.06-.44l.06-.06c.4-.4.54-.99.36-1.52l-2.18-6.67,5.63-4.19c.38-.28.6-.73.6-1.2v-.06c0-.83-.67-1.5-1.5-1.5h-6.95l-2.02-6.5c-.2-.63-.78-1.05-1.43-1.05h0Z"/>
    </g>
    <g>
      <path class="cls-1" d="M37.66,62.84c-.19,0-.38-.07-.53-.22-.2-.2-.33-.55-.24-.82l2.37-7.18-6.11-4.51c-.19-.14-.3-.37-.3-.6,0-.41.34-.8.75-.8h7.48l2.24-7.04c.1-.31.39-.52.71-.52s.68.21.77.53l2.19,7.03h7.51c.41,0,.75.34.75.75,0,.24-.11.51-.3.66l-6.06,4.51,2.35,7.19c.09.27.02.56-.18.76-.16.16-.4.25-.62.25-.15,0-.29-.04-.41-.13l-5.96-4.44-5.96,4.44c-.13.1-.29.15-.45.15Z"/>
      <path d="M44.09,41.89l2.35,7.56h8.06v.05l-6.49,4.83,2.52,7.7-.06.06-6.41-4.78-6.41,4.78-.06-.06,2.54-7.7-6.55-4.83v-.05h8.03l2.41-7.56h.06M44.09,40.39h-.06c-.65,0-1.23.42-1.43,1.05l-2.07,6.51h-6.93c-.83,0-1.5.67-1.5,1.5v.05c0,.48.23.92.61,1.21l5.67,4.19-2.2,6.67c-.18.54-.04,1.14.37,1.54l.06.06c.29.29.67.43,1.05.43.31,0,.63-.1.9-.3l5.51-4.11,5.51,4.11c.27.2.58.3.9.3.38,0,.76-.14,1.05-.43l.06-.06c.41-.4.55-1,.38-1.54l-2.18-6.67,5.63-4.19c.38-.28.6-.73.6-1.2v-.05c0-.83-.67-1.5-1.5-1.5h-6.95l-2.02-6.5c-.19-.63-.78-1.05-1.43-1.05h0Z"/>
    </g>
    <g>
      <path class="cls-1" d="M37.66,90.52c-.2,0-.39-.08-.54-.22-.2-.2-.32-.55-.23-.82l2.37-7.18-6.11-4.51c-.19-.14-.3-.37-.3-.6,0-.41.34-.81.75-.81h7.48l2.24-7.04c.1-.31.39-.52.71-.52s.68.21.77.53l2.19,7.03h7.51c.41,0,.75.34.75.75,0,.24-.11.52-.3.66l-6.06,4.51,2.35,7.19c.09.27.02.56-.18.76-.16.16-.4.26-.63.26-.15,0-.29-.04-.41-.13l-5.96-4.44-5.96,4.44c-.13.1-.29.15-.45.15Z"/>
      <path d="M44.09,69.57l2.35,7.56h8.06v.06l-6.49,4.83,2.52,7.7-.06.06-6.41-4.78-6.41,4.78-.06-.06,2.54-7.7-6.55-4.83v-.06h8.03l2.41-7.56h.06M44.09,68.07h-.06c-.65,0-1.23.42-1.43,1.05l-2.07,6.51h-6.93c-.83,0-1.5.67-1.5,1.5v.06c0,.48.23.92.61,1.21l5.67,4.19-2.2,6.67c-.18.54-.04,1.13.36,1.53l.06.06c.29.29.67.44,1.06.44.31,0,.63-.1.9-.3l5.51-4.11,5.51,4.11c.27.2.58.3.9.3.38,0,.77-.15,1.06-.43l.06-.06c.4-.4.55-.99.37-1.53l-2.18-6.67,5.63-4.19c.38-.28.6-.73.6-1.2v-.06c0-.83-.67-1.5-1.5-1.5h-6.95l-2.02-6.5c-.19-.63-.78-1.05-1.43-1.05h0Z"/>
    </g>
    <g>
      <path class="cls-1" d="M64.77,62.84c-.19,0-.38-.07-.53-.21-.2-.2-.33-.55-.24-.83l2.38-7.18-6.11-4.51c-.19-.14-.3-.37-.3-.6,0-.41.34-.8.75-.8h7.48l2.24-7.04c.1-.31.39-.52.71-.52s.67.21.77.53l2.19,7.03h7.51c.41,0,.75.34.75.75,0,.24-.11.51-.3.66l-6.06,4.51,2.35,7.19c.09.27.02.57-.19.77-.16.16-.39.25-.62.25-.15,0-.29-.04-.41-.13l-5.96-4.44-5.96,4.44c-.13.1-.29.15-.45.15Z"/>
      <path d="M71.21,41.89l2.35,7.56h8.06v.05l-6.49,4.83,2.52,7.7-.06.06-6.41-4.78-6.41,4.78-.06-.06,2.55-7.7-6.55-4.83v-.05h8.03l2.41-7.56h.06M71.21,40.39h-.06c-.65,0-1.23.42-1.43,1.04l-2.07,6.51h-6.93c-.83,0-1.5.67-1.5,1.5v.05c0,.48.23.92.61,1.21l5.67,4.19-2.21,6.67c-.18.54-.03,1.14.38,1.54l.06.06c.29.28.67.43,1.05.43.31,0,.63-.1.9-.3l5.51-4.11,5.51,4.11c.27.2.58.3.9.3.38,0,.76-.15,1.05-.43l.06-.06c.41-.4.55-.99.37-1.54l-2.18-6.67,5.63-4.19c.38-.28.6-.73.6-1.2v-.05c0-.83-.67-1.5-1.5-1.5h-6.95l-2.02-6.5c-.2-.63-.78-1.05-1.43-1.05h0Z"/>
    </g>
    <g>
      <path class="cls-1" d="M64.77,90.52c-.19,0-.38-.07-.53-.22-.2-.2-.33-.55-.24-.82l2.38-7.18-6.11-4.51c-.19-.14-.3-.37-.3-.6,0-.41.34-.81.75-.81h7.48l2.24-7.04c.1-.31.39-.52.71-.52s.67.21.77.53l2.19,7.03h7.51c.41,0,.75.34.75.75,0,.24-.11.52-.3.66l-6.06,4.51,2.35,7.19c.09.27.02.56-.18.76-.16.16-.4.25-.63.25-.15,0-.29-.04-.41-.13l-5.96-4.44-5.96,4.44c-.13.1-.29.15-.45.15Z"/>
      <path d="M71.21,69.57l2.35,7.56h8.06v.06l-6.49,4.83,2.52,7.7-.06.06-6.41-4.78-6.41,4.78-.06-.06,2.55-7.7-6.55-4.83v-.06h8.03l2.41-7.56h.06M71.21,68.07h-.06c-.65,0-1.23.42-1.43,1.04l-2.07,6.51h-6.93c-.83,0-1.5.67-1.5,1.5v.06c0,.48.23.92.61,1.21l5.67,4.19-2.21,6.67c-.18.54-.04,1.14.37,1.54l.06.06c.29.29.67.43,1.06.43.31,0,.63-.1.9-.3l5.51-4.11,5.51,4.11c.27.2.58.3.9.3.39,0,.77-.15,1.06-.44l.06-.06c.4-.4.54-.99.37-1.53l-2.18-6.67,5.63-4.19c.38-.28.6-.73.6-1.2v-.06c0-.83-.67-1.5-1.5-1.5h-6.95l-2.02-6.5c-.2-.63-.78-1.05-1.43-1.05h0Z"/>
    </g>
    <g>
      <path class="cls-1" d="M91.89,62.84c-.2,0-.4-.08-.54-.23-.19-.2-.31-.54-.22-.81l2.37-7.18-6.11-4.51c-.19-.14-.3-.37-.3-.6,0-.41.34-.8.75-.8h7.48l2.24-7.04c.1-.31.39-.52.71-.52s.67.21.77.53l2.19,7.03h7.5c.41,0,.75.34.75.75,0,.24-.11.51-.3.66l-6.06,4.51,2.35,7.19c.09.27.02.57-.19.77-.16.16-.39.25-.62.25-.15,0-.29-.04-.41-.13l-5.96-4.44-5.96,4.44c-.13.1-.29.15-.45.15Z"/>
      <path d="M98.33,41.89l2.35,7.56h8.05v.05l-6.49,4.83,2.52,7.7-.06.06-6.41-4.78-6.41,4.78-.05-.06,2.54-7.7-6.55-4.83v-.05h8.03l2.4-7.56h.06M98.33,40.39h-.06c-.65,0-1.23.42-1.43,1.05l-2.07,6.51h-6.93c-.83,0-1.5.67-1.5,1.5v.05c0,.48.23.92.61,1.21l5.67,4.19-2.2,6.67c-.17.53-.04,1.11.34,1.51l.05.06c.29.3.69.46,1.08.46.31,0,.63-.1.9-.3l5.51-4.11,5.51,4.11c.27.2.58.3.9.3.38,0,.76-.14,1.05-.43l.06-.06c.41-.4.55-1,.38-1.54l-2.18-6.67,5.62-4.19c.38-.28.6-.73.6-1.2v-.05c0-.83-.67-1.5-1.5-1.5h-6.95l-2.02-6.5c-.2-.63-.78-1.05-1.43-1.05h0Z"/>
    </g>
    <g>
      <path class="cls-1" d="M91.89,90.52c-.2,0-.4-.08-.55-.24-.19-.2-.3-.54-.22-.8l2.37-7.18-6.11-4.51c-.19-.14-.3-.37-.3-.6,0-.41.34-.81.75-.81h7.48l2.24-7.04c.1-.31.39-.52.71-.52s.67.21.77.53l2.19,7.03h7.5c.41,0,.75.34.75.75,0,.24-.11.52-.3.66l-6.06,4.51,2.35,7.19c.09.27.02.56-.18.76-.16.16-.4.25-.63.25-.15,0-.29-.04-.41-.13l-5.96-4.44-5.96,4.44c-.13.1-.29.15-.45.15Z"/>
      <path d="M98.33,69.57l2.35,7.56h8.05v.06l-6.49,4.83,2.52,7.7-.06.06-6.41-4.78-6.41,4.78-.05-.06,2.54-7.7-6.55-4.83v-.06h8.03l2.4-7.56h.06M98.33,68.07h-.06c-.65,0-1.23.42-1.43,1.05l-2.07,6.51h-6.93c-.83,0-1.5.67-1.5,1.5v.06c0,.48.23.92.61,1.21l5.67,4.19-2.2,6.67c-.17.52-.04,1.1.34,1.5l.05.06c.29.31.69.47,1.09.47.31,0,.63-.1.9-.3l5.51-4.11,5.51,4.11c.27.2.58.3.9.3.38,0,.77-.15,1.06-.43l.06-.06c.4-.4.55-.99.37-1.53l-2.18-6.67,5.62-4.19c.38-.28.6-.73.6-1.2v-.06c0-.83-.67-1.5-1.5-1.5h-6.95l-2.02-6.5c-.2-.63-.78-1.05-1.43-1.05h0Z"/>
    </g>
    <g>
      <path class="cls-1" d="M119.01,62.84c-.19,0-.37-.07-.52-.21-.21-.2-.34-.56-.25-.83l2.37-7.18-6.11-4.51c-.19-.14-.3-.37-.3-.6,0-.41.34-.8.75-.8h7.48l2.24-7.04c.1-.31.39-.52.71-.52s.67.21.77.53l2.19,7.03h7.5c.41,0,.75.34.75.75,0,.24-.11.51-.3.66l-6.06,4.51,2.35,7.19c.09.28.01.58-.2.78-.16.15-.39.24-.61.24-.15,0-.29-.04-.41-.13l-5.95-4.44-5.96,4.44c-.13.1-.29.15-.45.15Z"/>
      <path d="M125.45,41.89l2.35,7.56h8.05v.05l-6.49,4.83,2.52,7.7-.06.06-6.4-4.78-6.41,4.78-.06-.06,2.54-7.7-6.54-4.83v-.05h8.03l2.41-7.56h.05M125.45,40.39h-.05c-.65,0-1.23.42-1.43,1.04l-2.07,6.51h-6.93c-.83,0-1.5.67-1.5,1.5v.05c0,.48.23.92.61,1.21l5.67,4.19-2.2,6.67c-.18.55-.03,1.16.4,1.56l.06.06c.29.27.66.41,1.03.41.31,0,.63-.1.9-.3l5.51-4.11,5.5,4.11c.27.2.58.3.9.3.37,0,.74-.14,1.02-.4l.06-.06c.43-.4.58-1.01.4-1.56l-2.18-6.67,5.62-4.19c.38-.28.6-.73.6-1.2v-.05c0-.83-.67-1.5-1.5-1.5h-6.95l-2.02-6.5c-.2-.63-.78-1.05-1.43-1.05h0Z"/>
    </g>
    <g>
      <path class="cls-1" d="M119.01,90.52c-.19,0-.38-.07-.52-.21-.21-.2-.34-.56-.25-.83l2.37-7.18-6.11-4.51c-.19-.14-.3-.37-.3-.6,0-.41.34-.81.75-.81h7.48l2.24-7.04c.1-.31.39-.52.71-.52s.67.21.77.53l2.19,7.03h7.5c.41,0,.75.34.75.75,0,.24-.11.52-.3.66l-6.06,4.51,2.35,7.19c.09.28.01.58-.2.78-.16.15-.39.24-.62.24-.15,0-.29-.04-.41-.13l-5.95-4.44-5.96,4.44c-.13.1-.29.15-.45.15Z"/>
      <path d="M125.45,69.57l2.35,7.56h8.05v.06l-6.49,4.83,2.52,7.7-.06.06-6.4-4.78-6.41,4.78-.06-.06,2.54-7.7-6.54-4.83v-.06h8.03l2.41-7.56h.05M125.45,68.07h-.05c-.65,0-1.23.42-1.43,1.04l-2.07,6.51h-6.93c-.83,0-1.5.67-1.5,1.5v.06c0,.48.23.92.61,1.21l5.67,4.19-2.2,6.67c-.18.55-.03,1.16.39,1.56l.06.06c.29.27.66.41,1.04.41.31,0,.63-.1.9-.3l5.51-4.11,5.5,4.11c.27.2.58.3.9.3.37,0,.74-.14,1.03-.41l.06-.06c.42-.4.57-1,.39-1.56l-2.18-6.67,5.62-4.19c.38-.28.6-.73.6-1.2v-.06c0-.83-.67-1.5-1.5-1.5h-6.95l-2.02-6.5c-.2-.63-.78-1.05-1.43-1.05h0Z"/>
    </g>
    <g>
      <path class="cls-1" d="M146.13,62.84c-.18,0-.37-.07-.51-.2-.21-.2-.35-.56-.26-.84l2.38-7.18-6.11-4.51c-.19-.14-.3-.37-.3-.6,0-.41.34-.8.75-.8h7.48l2.24-7.04c.1-.31.39-.52.71-.52s.67.21.77.53l2.19,7.03h7.51c.41,0,.75.34.75.75,0,.24-.11.51-.3.66l-6.06,4.51,2.35,7.19c.09.26.02.55-.17.75-.16.17-.4.26-.63.26-.15,0-.29-.04-.41-.13l-5.96-4.44-5.96,4.44c-.13.1-.29.15-.45.15Z"/>
      <path d="M152.56,41.89l2.35,7.56h8.06v.05l-6.5,4.83,2.52,7.7-.05.06-6.41-4.78-6.41,4.78-.06-.06,2.55-7.7-6.55-4.83v-.05h8.03l2.41-7.56h.05M152.56,40.39h-.05c-.65,0-1.23.42-1.43,1.04l-2.07,6.51h-6.93c-.83,0-1.5.67-1.5,1.5v.05c0,.48.23.92.61,1.21l5.67,4.19-2.21,6.67c-.18.55-.03,1.16.4,1.56l.06.06c.29.27.66.41,1.03.41.31,0,.63-.1.9-.3l5.51-4.11,5.51,4.11c.27.2.58.3.9.3.4,0,.79-.16,1.08-.46l.05-.06c.38-.4.52-.98.34-1.51l-2.18-6.67,5.63-4.19c.38-.28.6-.73.6-1.2v-.05c0-.83-.67-1.5-1.5-1.5h-6.95l-2.03-6.5c-.2-.63-.78-1.05-1.43-1.05h0Z"/>
    </g>
    <g>
      <path class="cls-1" d="M146.13,90.52c-.19,0-.37-.07-.52-.21-.21-.2-.35-.56-.25-.84l2.38-7.18-6.11-4.51c-.19-.14-.3-.37-.3-.6,0-.41.34-.81.75-.81h7.48l2.24-7.04c.1-.31.39-.52.71-.52s.67.21.77.53l2.19,7.03h7.51c.41,0,.75.34.75.75,0,.24-.11.52-.3.66l-6.06,4.51,2.35,7.19c.09.26.02.55-.17.75-.16.17-.4.27-.64.27-.15,0-.29-.04-.41-.13l-5.96-4.44-5.96,4.44c-.13.1-.29.15-.45.15Z"/>
      <path d="M152.56,69.57l2.35,7.56h8.06v.06l-6.5,4.83,2.52,7.7-.05.06-6.41-4.78-6.41,4.78-.06-.06,2.55-7.7-6.55-4.83v-.06h8.03l2.41-7.56h.05M152.56,68.07h-.05c-.65,0-1.23.42-1.43,1.04l-2.07,6.51h-6.93c-.83,0-1.5.67-1.5,1.5v.06c0,.48.23.92.61,1.21l5.67,4.19-2.21,6.67c-.18.55-.03,1.16.39,1.56l.06.06c.29.27.66.41,1.04.41.31,0,.63-.1.9-.3l5.51-4.11,5.51,4.11c.27.2.58.3.9.3.4,0,.8-.16,1.09-.47l.05-.06c.38-.4.51-.98.34-1.5l-2.18-6.67,5.63-4.19c.38-.28.6-.73.6-1.2v-.06c0-.83-.67-1.5-1.5-1.5h-6.95l-2.03-6.5c-.2-.63-.78-1.05-1.43-1.05h0Z"/>
    </g>
  </g>
  <g>
    <path d="M244.8,47.61h10.22c1.31,0,2.38.83,2.38,1.85v29.41c0,3.1-.45,6.03-1.34,8.78-.89,2.75-2.3,5.16-4.21,7.22-1.91,2.06-3.91,3.51-6.01,4.34-2.91,1.17-6.41,1.75-10.5,1.75-2.36,0-4.94-.18-7.73-.54-2.79-.36-5.13-1.07-7.01-2.13-1.88-1.06-3.59-2.57-5.15-4.52-1.56-1.95-2.62-3.97-3.2-6.04-.93-3.34-1.39-6.29-1.39-8.87v-29.41c0-1.02,1.06-1.85,2.38-1.85h10.22c1.31,0,2.38.83,2.38,1.85v30.16c0,2.86.73,5.1,2.2,6.7,1.47,1.61,3.51,2.41,6.11,2.41s4.61-.79,6.08-2.38c1.47-1.58,2.2-3.83,2.2-6.74v-30.16c0-1.02,1.06-1.85,2.38-1.85Z"/>
    <path d="M269.8,47.61h10.15c.91,0,1.74.4,2.14,1.03l13.12,20.83c1.11,1.76,4.51,1.15,4.51-.81v-19.2c0-1.02,1.06-1.85,2.38-1.85h9.39c1.31,0,2.38.83,2.38,1.85v48.77c0,1.02-1.06,1.85-2.38,1.85h-10.28c-.91,0-1.74-.4-2.13-1.03l-13.02-20.62c-1.11-1.76-4.51-1.14-4.51.81v19c0,1.02-1.06,1.85-2.38,1.85h-9.35c-1.31,0-2.38-.83-2.38-1.85v-48.77c0-1.02,1.06-1.85,2.38-1.85Z"/>
    <path d="M326.8,47.61h10.28c1.31,0,2.38.83,2.38,1.85v48.77c0,1.02-1.06,1.85-2.38,1.85h-10.28c-1.31,0-2.38-.83-2.38-1.85v-48.77c0-1.02,1.06-1.85,2.38-1.85Z"/>
    <path d="M348.34,73.88c0-8.56,2.21-15.23,6.62-20,4.42-4.77,10.56-7.16,18.45-7.16s14.31,2.34,18.68,7.03c4.37,4.69,6.56,11.25,6.56,19.7,0,6.13-.95,11.16-2.86,15.08-1.91,3.92-4.67,6.98-8.28,9.16-3.61,2.18-8.11,3.27-13.5,3.27s-10.01-.94-13.6-2.83c-3.59-1.88-6.5-4.87-8.73-8.95s-3.34-9.18-3.34-15.32ZM363.34,73.95c0,5.3.91,9.1,2.73,11.42s4.3,3.47,7.43,3.47,5.72-1.13,7.49-3.4,2.65-6.33,2.65-12.2c0-4.94-.92-8.55-2.77-10.83-1.84-2.28-4.34-3.42-7.5-3.42s-5.45,1.16-7.29,3.47c-1.83,2.31-2.75,6.14-2.75,11.49Z"/>
    <path d="M409.2,47.61h10.15c.91,0,1.74.4,2.14,1.03l13.12,20.83c1.11,1.76,4.51,1.15,4.51-.81v-19.2c0-1.02,1.06-1.85,2.38-1.85h9.39c1.31,0,2.38.83,2.38,1.85v48.77c0,1.02-1.06,1.85-2.38,1.85h-10.28c-.91,0-1.74-.4-2.13-1.03l-13.02-20.62c-1.11-1.76-4.51-1.14-4.51.81v19c0,1.02-1.06,1.85-2.38,1.85h-9.35c-1.31,0-2.38-.83-2.38-1.85v-48.77c0-1.02,1.06-1.85,2.38-1.85Z"/>
    <path d="M488.22,47.61h10.25c1.31,0,2.38.83,2.38,1.85v35.85c0,1.02,1.06,1.85,2.38,1.85h18.66c1.31,0,2.38.83,2.38,1.85v9.23c0,1.02-1.06,1.85-2.38,1.85h-33.66c-1.31,0-2.38-.83-2.38-1.85v-48.77c0-1.02,1.06-1.85,2.38-1.85Z"/>
    <path d="M533.43,47.61h35.45c1.31,0,2.38.83,2.38,1.85v7.51c0,1.02-1.06,1.85-2.38,1.85h-20.42c-1.31,0-2.38.83-2.38,1.85v4.65c0,1.02,1.06,1.85,2.38,1.85h18.59c1.31,0,2.38.83,2.38,1.85v7.01c0,1.02-1.06,1.85-2.38,1.85h-18.59c-1.31,0-2.38.83-2.38,1.85v6.65c0,1.02,1.06,1.85,2.38,1.85h21.15c1.31,0,2.38.83,2.38,1.85v8.19c0,1.02-1.06,1.85-2.38,1.85h-36.18c-1.31,0-2.38-.83-2.38-1.85v-48.77c0-1.02,1.06-1.85,2.38-1.85Z"/>
    <path d="M608.01,91.41h-13.19c-1.12,0-2.09.61-2.33,1.46l-1.57,5.73c-.23.85-1.2,1.46-2.33,1.46h-10.29c-1.56,0-2.7-1.15-2.29-2.33l16.96-48.77c.28-.81,1.22-1.36,2.29-1.36h12.72c1.07,0,2.01.56,2.29,1.36l16.96,48.77c.41,1.17-.73,2.33-2.29,2.33h-10.69c-1.12,0-2.08-.6-2.32-1.45l-1.61-5.75c-.24-.85-1.2-1.45-2.32-1.45ZM606.17,77.83l-2.39-8.4c-.55-1.93-4.1-1.93-4.64,0l-2.36,8.4c-.32,1.15.81,2.24,2.32,2.24h4.75c1.52,0,2.65-1.09,2.32-2.24Z"/>
    <path d="M656.01,79.23v-7.22c0-1.02,1.06-1.85,2.38-1.85h18.43c1.31,0,2.38.83,2.38,1.85v19.72c0,.51-.27,1.01-.76,1.35-4.13,2.97-7.8,5.01-11.02,6.12-3.41,1.18-7.46,1.77-12.14,1.77-5.76,0-10.46-1.06-14.09-3.18-3.63-2.12-6.45-5.28-8.44-9.48-2-4.2-3-9.02-3-14.46,0-5.73,1.09-10.71,3.28-14.94,2.19-4.23,5.39-7.45,9.6-9.64,3.29-1.69,7.72-2.54,13.28-2.54s9.38.53,12.04,1.58c2.66,1.05,4.87,2.68,6.62,4.88,1.43,1.8,2.57,3.99,3.42,6.57.33.99-.45,2.01-1.73,2.26l-10.01,1.93c-1.16.22-2.37-.25-2.78-1.12-.6-1.24-1.41-2.24-2.44-3-1.42-1.05-3.24-1.57-5.45-1.57-3.29,0-5.91,1.23-7.87,3.7-1.95,2.47-2.93,6.38-2.93,11.72,0,5.68.99,9.73,2.96,12.17,1.98,2.43,4.73,3.65,8.26,3.65,1.68,0,3.28-.26,4.8-.79,1.28-.44,2.71-1.14,4.29-2.1.59-.35.94-.89.94-1.47v-2.21c0-1.02-1.06-1.85-2.38-1.85h-5.28c-1.31,0-2.38-.83-2.38-1.85Z"/>
    <path d="M722.08,47.61h10.22c1.31,0,2.38.83,2.38,1.85v29.41c0,3.1-.45,6.03-1.34,8.78-.89,2.75-2.3,5.16-4.21,7.22-1.91,2.06-3.91,3.51-6.01,4.34-2.91,1.17-6.41,1.75-10.5,1.75-2.36,0-4.94-.18-7.73-.54-2.79-.36-5.13-1.07-7.01-2.13-1.88-1.06-3.59-2.57-5.15-4.52s-2.62-3.97-3.2-6.04c-.93-3.34-1.39-6.29-1.39-8.87v-29.41c0-1.02,1.06-1.85,2.38-1.85h10.22c1.31,0,2.38.83,2.38,1.85v30.16c0,2.86.73,5.1,2.2,6.7,1.47,1.61,3.51,2.41,6.11,2.41s4.61-.79,6.08-2.38c1.47-1.58,2.2-3.83,2.2-6.74v-30.16c0-1.02,1.06-1.85,2.38-1.85Z"/>
    <path d="M746.95,47.61h35.45c1.31,0,2.38.83,2.38,1.85v7.51c0,1.02-1.06,1.85-2.38,1.85h-20.42c-1.31,0-2.38.83-2.38,1.85v4.65c0,1.02,1.06,1.85,2.38,1.85h18.59c1.31,0,2.38.83,2.38,1.85v7.01c0,1.02-1.06,1.85-2.38,1.85h-18.59c-1.31,0-2.38.83-2.38,1.85v6.65c0,1.02,1.06,1.85,2.38,1.85h21.15c1.31,0,2.38.83,2.38,1.85v8.19c0,1.02-1.06,1.85-2.38,1.85h-36.18c-1.31,0-2.38-.83-2.38-1.85v-48.77c0-1.02,1.06-1.85,2.38-1.85Z"/>
    <path d="M213.24,117.38h17.75c.91,0,1.74.64,2.14,1.65l23.03,58.46c1.11,2.81,4.51,1.83,4.51-1.3v-55.86c0-1.63,1.06-2.95,2.38-2.95h17.06c1.31,0,2.38,1.32,2.38,2.95v123.45c0,1.63-1.06,2.95-2.38,2.95h-17.95c-.91,0-1.74-.64-2.13-1.65l-22.88-57.94c-1.11-2.81-4.51-1.83-4.51,1.3v55.35c0,1.63-1.06,2.95-2.38,2.95h-17.01c-1.31,0-2.38-1.32-2.38-2.95v-123.45c0-1.63,1.06-2.95,2.38-2.95Z"/>
    <path d="M340.95,225.38h-22.43c-1.12,0-2.09.98-2.33,2.34l-2.85,16.68c-.23,1.36-1.2,2.34-2.33,2.34h-18.6c-1.56,0-2.7-1.84-2.29-3.72l26.86-123.45c.28-1.29,1.22-2.18,2.29-2.18h21.6c1.07,0,2.01.89,2.29,2.18l26.85,123.45c.41,1.88-.73,3.72-2.29,3.72h-19.21c-1.12,0-2.08-.97-2.32-2.32l-2.93-16.71c-.24-1.36-1.2-2.32-2.32-2.32ZM337.42,193.82l-5.29-29.79c-.55-3.09-4.1-3.09-4.64,0l-5.24,29.79c-.32,1.84.81,3.58,2.32,3.58h10.53c1.52,0,2.65-1.74,2.32-3.59Z"/>
    <path d="M368.11,117.38h65.58c1.31,0,2.38,1.32,2.38,2.95v26.04c0,1.63-1.06,2.95-2.38,2.95h-18.84c-1.31,0-2.38,1.32-2.38,2.95v91.51c0,1.63-1.06,2.95-2.38,2.95h-18.38c-1.31,0-2.38-1.32-2.38-2.95v-91.51c0-1.63-1.06-2.95-2.38-2.95h-18.84c-1.31,0-2.38-1.32-2.38-2.95v-26.04c0-1.63,1.06-2.95,2.38-2.95Z"/>
    <path d="M449.83,117.38h18.44c1.31,0,2.38,1.32,2.38,2.95v123.45c0,1.63-1.06,2.95-2.38,2.95h-18.44c-1.31,0-2.38-1.32-2.38-2.95v-123.45c0-1.63,1.06-2.95,2.38-2.95Z"/>
    <path d="M484.34,182.14c0-21.12,3.4-37.56,10.22-49.32,6.81-11.76,16.29-17.65,28.45-17.65s22.07,5.78,28.81,17.34c6.74,11.56,10.11,27.75,10.11,48.57,0,15.12-1.47,27.52-4.42,37.19-2.95,9.68-7.2,17.21-12.77,22.59s-12.51,8.07-20.81,8.07-15.44-2.32-20.97-6.97c-5.53-4.65-10.02-12-13.46-22.06s-5.16-22.65-5.16-37.76ZM507.48,182.32c0,13.06,1.4,22.44,4.21,28.15,2.81,5.71,6.63,8.56,11.47,8.56s8.82-2.79,11.54-8.38c2.72-5.59,4.09-15.62,4.09-30.09,0-12.18-1.42-21.07-4.27-26.69s-6.7-8.43-11.57-8.43-8.41,2.85-11.24,8.56c-2.83,5.71-4.24,15.15-4.24,28.32Z"/>
    <path d="M576.92,117.38h17.75c.91,0,1.74.64,2.14,1.65l23.03,58.46c1.11,2.81,4.51,1.83,4.51-1.3v-55.86c0-1.63,1.06-2.95,2.38-2.95h17.06c1.31,0,2.38,1.32,2.38,2.95v123.45c0,1.63-1.06,2.95-2.38,2.95h-17.95c-.91,0-1.74-.64-2.13-1.65l-22.88-57.94c-1.11-2.81-4.51-1.83-4.51,1.3v55.35c0,1.63-1.06,2.95-2.38,2.95h-17.01c-1.31,0-2.38-1.32-2.38-2.95v-123.45c0-1.63,1.06-2.95,2.38-2.95Z"/>
    <path d="M704.63,225.38h-22.43c-1.12,0-2.09.98-2.33,2.34l-2.85,16.68c-.23,1.36-1.2,2.34-2.33,2.34h-18.6c-1.56,0-2.7-1.84-2.29-3.72l26.86-123.45c.28-1.29,1.22-2.18,2.29-2.18h21.6c1.07,0,2.01.89,2.29,2.18l26.85,123.45c.41,1.88-.73,3.72-2.29,3.72h-19.21c-1.12,0-2.08-.97-2.32-2.32l-2.93-16.71c-.24-1.36-1.2-2.32-2.32-2.32ZM701.11,193.82l-5.29-29.79c-.55-3.09-4.1-3.09-4.64,0l-5.24,29.79c-.32,1.84.81,3.58,2.32,3.58h10.53c1.52,0,2.65-1.74,2.32-3.59Z"/>
    <path d="M744.26,117.38h18.38c1.31,0,2.38,1.32,2.38,2.95v91.6c0,1.63,1.06,2.95,2.38,2.95h31.36c1.31,0,2.38,1.32,2.38,2.95v25.95c0,1.63-1.06,2.95-2.38,2.95h-54.5c-1.31,0-2.38-1.32-2.38-2.95v-123.45c0-1.63,1.06-2.95,2.38-2.95Z"/>
  </g>
  <g>
    <path class="cls-1" d="M776.22,294.3l-126.98-.67-413.98-.07c-5.75.3-5.95,5.95.07,6.28l537.06-.1c5.17-.93,10.15-5.13,3.83-5.44Z"/>
    <path d="M793.53,277.02c.27,4.06-1.29,8.45-4.59,8.86l-282.95-1.99-282.95,1.99c-3.29-.41-4.86-4.8-4.59-8.86-.15-1.54.29-3.17,1.26-4.51.78-1.33,1.91-2.27,3.4-2.46l282.88.13,282.88-.13c1.49.19,2.62,1.13,3.4,2.46.97,1.34,1.4,2.98,1.26,4.51Z"/>
  </g>
</svg>